ISO-10303-21;
HEADER;
/* Generated by software containing ST-Developer
 * from STEP Tools, Inc. (www.steptools.com) 
 */

FILE_DESCRIPTION(
/* description */ (''),
/* implementation_level */ '2;1');

FILE_NAME(
/* name */ 'wortuhr-stand_v9.step',
/* time_stamp */ '2026-10-03T17:46:40+02:00',
/* author */ (''),
/* organization */ (''),
/* preprocessor_version */ 'ST-DEVELOPER v20.2',
/* originating_system */ 'Autodesk Translation Framework v15.15.0.0',
/* authorisation */ '');

FILE_SCHEMA (('AUTOMOTIVE_DESIGN { 1 0 10303 214 3 1 1 }'));
ENDSEC;

DATA;
#10=MECHANICAL_DESIGN_GEOMETRIC_PRESENTATION_REPRESENTATION('',(#13),#1903);
#11=SHAPE_REPRESENTATION_RELATIONSHIP('SRR','None',#1910,#12);
#12=ADVANCED_BREP_SHAPE_REPRESENTATION('',(#14),#1902);
#13=STYLED_ITEM('',(#1919),#14);
#14=MANIFOLD_SOLID_BREP('Stand_v5',#1189);
#15=CYLINDRICAL_SURFACE('',#1255,3.3);
#16=CYLINDRICAL_SURFACE('',#1256,2.1);
#17=CYLINDRICAL_SURFACE('',#1260,3.3);
#18=CYLINDRICAL_SURFACE('',#1261,2.1);
#19=CIRCLE('',#1225,2.1);
#20=CIRCLE('',#1226,2.1);
#21=CIRCLE('',#1240,3.3);
#22=CIRCLE('',#1241,3.3);
#23=CIRCLE('',#1253,3.3);
#24=CIRCLE('',#1254,2.1);
#25=CIRCLE('',#1258,3.3);
#26=CIRCLE('',#1259,2.1);
#27=FACE_BOUND('',#110,.T.);
#28=FACE_BOUND('',#118,.T.);
#29=FACE_BOUND('',#124,.T.);
#30=FACE_BOUND('',#128,.T.);
#31=FACE_BOUND('',#129,.T.);
#32=FACE_BOUND('',#143,.T.);
#33=FACE_BOUND('',#144,.T.);
#34=FACE_BOUND('',#151,.T.);
#35=FACE_BOUND('',#157,.T.);
#36=FACE_BOUND('',#161,.T.);
#37=FACE_BOUND('',#172,.T.);
#38=FACE_BOUND('',#178,.T.);
#39=FACE_OUTER_BOUND('',#103,.T.);
#40=FACE_OUTER_BOUND('',#104,.T.);
#41=FACE_OUTER_BOUND('',#105,.T.);
#42=FACE_OUTER_BOUND('',#106,.T.);
#43=FACE_OUTER_BOUND('',#107,.T.);
#44=FACE_OUTER_BOUND('',#108,.T.);
#45=FACE_OUTER_BOUND('',#109,.T.);
#46=FACE_OUTER_BOUND('',#111,.T.);
#47=FACE_OUTER_BOUND('',#112,.T.);
#48=FACE_OUTER_BOUND('',#113,.T.);
#49=FACE_OUTER_BOUND('',#114,.T.);
#50=FACE_OUTER_BOUND('',#115,.T.);
#51=FACE_OUTER_BOUND('',#116,.T.);
#52=FACE_OUTER_BOUND('',#117,.T.);
#53=FACE_OUTER_BOUND('',#119,.T.);
#54=FACE_OUTER_BOUND('',#120,.T.);
#55=FACE_OUTER_BOUND('',#121,.T.);
#56=FACE_OUTER_BOUND('',#122,.T.);
#57=FACE_OUTER_BOUND('',#123,.T.);
#58=FACE_OUTER_BOUND('',#125,.T.);
#59=FACE_OUTER_BOUND('',#126,.T.);
#60=FACE_OUTER_BOUND('',#127,.T.);
#61=FACE_OUTER_BOUND('',#130,.T.);
#62=FACE_OUTER_BOUND('',#131,.T.);
#63=FACE_OUTER_BOUND('',#132,.T.);
#64=FACE_OUTER_BOUND('',#133,.T.);
#65=FACE_OUTER_BOUND('',#134,.T.);
#66=FACE_OUTER_BOUND('',#135,.T.);
#67=FACE_OUTER_BOUND('',#136,.T.);
#68=FACE_OUTER_BOUND('',#137,.T.);
#69=FACE_OUTER_BOUND('',#138,.T.);
#70=FACE_OUTER_BOUND('',#139,.T.);
#71=FACE_OUTER_BOUND('',#140,.T.);
#72=FACE_OUTER_BOUND('',#141,.T.);
#73=FACE_OUTER_BOUND('',#142,.T.);
#74=FACE_OUTER_BOUND('',#145,.T.);
#75=FACE_OUTER_BOUND('',#146,.T.);
#76=FACE_OUTER_BOUND('',#147,.T.);
#77=FACE_OUTER_BOUND('',#148,.T.);
#78=FACE_OUTER_BOUND('',#149,.T.);
#79=FACE_OUTER_BOUND('',#150,.T.);
#80=FACE_OUTER_BOUND('',#152,.T.);
#81=FACE_OUTER_BOUND('',#153,.T.);
#82=FACE_OUTER_BOUND('',#154,.T.);
#83=FACE_OUTER_BOUND('',#155,.T.);
#84=FACE_OUTER_BOUND('',#156,.T.);
#85=FACE_OUTER_BOUND('',#158,.T.);
#86=FACE_OUTER_BOUND('',#159,.T.);
#87=FACE_OUTER_BOUND('',#160,.T.);
#88=FACE_OUTER_BOUND('',#162,.T.);
#89=FACE_OUTER_BOUND('',#163,.T.);
#90=FACE_OUTER_BOUND('',#164,.T.);
#91=FACE_OUTER_BOUND('',#165,.T.);
#92=FACE_OUTER_BOUND('',#166,.T.);
#93=FACE_OUTER_BOUND('',#167,.T.);
#94=FACE_OUTER_BOUND('',#168,.T.);
#95=FACE_OUTER_BOUND('',#169,.T.);
#96=FACE_OUTER_BOUND('',#170,.T.);
#97=FACE_OUTER_BOUND('',#171,.T.);
#98=FACE_OUTER_BOUND('',#173,.T.);
#99=FACE_OUTER_BOUND('',#174,.T.);
#100=FACE_OUTER_BOUND('',#175,.T.);
#101=FACE_OUTER_BOUND('',#176,.T.);
#102=FACE_OUTER_BOUND('',#177,.T.);
#103=EDGE_LOOP('',(#745,#746,#747,#748));
#104=EDGE_LOOP('',(#749,#750,#751,#752));
#105=EDGE_LOOP('',(#753,#754,#755,#756));
#106=EDGE_LOOP('',(#757,#758,#759,#760));
#107=EDGE_LOOP('',(#761,#762,#763,#764));
#108=EDGE_LOOP('',(#765,#766,#767,#768));
#109=EDGE_LOOP('',(#769,#770,#771,#772));
#110=EDGE_LOOP('',(#773,#774,#775,#776));
#111=EDGE_LOOP('',(#777,#778,#779,#780));
#112=EDGE_LOOP('',(#781,#782,#783,#784));
#113=EDGE_LOOP('',(#785,#786,#787,#788));
#114=EDGE_LOOP('',(#789,#790,#791,#792));
#115=EDGE_LOOP('',(#793,#794,#795,#796));
#116=EDGE_LOOP('',(#797,#798,#799,#800));
#117=EDGE_LOOP('',(#801,#802,#803,#804));
#118=EDGE_LOOP('',(#805,#806,#807,#808));
#119=EDGE_LOOP('',(#809,#810,#811,#812));
#120=EDGE_LOOP('',(#813,#814,#815,#816));
#121=EDGE_LOOP('',(#817,#818,#819,#820));
#122=EDGE_LOOP('',(#821,#822,#823,#824));
#123=EDGE_LOOP('',(#825,#826,#827,#828));
#124=EDGE_LOOP('',(#829,#830,#831,#832));
#125=EDGE_LOOP('',(#833,#834,#835,#836));
#126=EDGE_LOOP('',(#837,#838,#839,#840,#841,#842,#843,#844));
#127=EDGE_LOOP('',(#845,#846,#847,#848,#849,#850,#851,#852,#853,#854,#855,
#856,#857,#858,#859,#860));
#128=EDGE_LOOP('',(#861));
#129=EDGE_LOOP('',(#862));
#130=EDGE_LOOP('',(#863,#864,#865,#866));
#131=EDGE_LOOP('',(#867,#868,#869,#870,#871));
#132=EDGE_LOOP('',(#872,#873,#874,#875));
#133=EDGE_LOOP('',(#876,#877,#878,#879));
#134=EDGE_LOOP('',(#880,#881,#882));
#135=EDGE_LOOP('',(#883,#884,#885));
#136=EDGE_LOOP('',(#886,#887,#888,#889));
#137=EDGE_LOOP('',(#890,#891,#892,#893));
#138=EDGE_LOOP('',(#894,#895,#896,#897,#898));
#139=EDGE_LOOP('',(#899,#900,#901,#902,#903));
#140=EDGE_LOOP('',(#904,#905,#906,#907));
#141=EDGE_LOOP('',(#908,#909,#910,#911));
#142=EDGE_LOOP('',(#912,#913,#914,#915));
#143=EDGE_LOOP('',(#916));
#144=EDGE_LOOP('',(#917));
#145=EDGE_LOOP('',(#918,#919,#920,#921));
#146=EDGE_LOOP('',(#922,#923,#924,#925,#926,#927));
#147=EDGE_LOOP('',(#928,#929,#930,#931));
#148=EDGE_LOOP('',(#932,#933,#934,#935));
#149=EDGE_LOOP('',(#936,#937,#938,#939));
#150=EDGE_LOOP('',(#940,#941,#942,#943));
#151=EDGE_LOOP('',(#944,#945,#946,#947));
#152=EDGE_LOOP('',(#948,#949,#950));
#153=EDGE_LOOP('',(#951,#952,#953,#954,#955,#956));
#154=EDGE_LOOP('',(#957,#958,#959,#960));
#155=EDGE_LOOP('',(#961,#962,#963,#964));
#156=EDGE_LOOP('',(#965));
#157=EDGE_LOOP('',(#966));
#158=EDGE_LOOP('',(#967,#968,#969,#970));
#159=EDGE_LOOP('',(#971,#972,#973,#974));
#160=EDGE_LOOP('',(#975));
#161=EDGE_LOOP('',(#976));
#162=EDGE_LOOP('',(#977,#978,#979,#980));
#163=EDGE_LOOP('',(#981,#982,#983,#984));
#164=EDGE_LOOP('',(#985,#986,#987,#988));
#165=EDGE_LOOP('',(#989,#990,#991,#992,#993));
#166=EDGE_LOOP('',(#994,#995,#996,#997));
#167=EDGE_LOOP('',(#998,#999,#1000,#1001));
#168=EDGE_LOOP('',(#1002,#1003,#1004,#1005));
#169=EDGE_LOOP('',(#1006,#1007,#1008,#1009,#1010));
#170=EDGE_LOOP('',(#1011,#1012,#1013,#1014));
#171=EDGE_LOOP('',(#1015,#1016,#1017,#1018,#1019,#1020,#1021,#1022));
#172=EDGE_LOOP('',(#1023,#1024,#1025,#1026));
#173=EDGE_LOOP('',(#1027,#1028,#1029,#1030,#1031,#1032,#1033,#1034,#1035,
#1036));
#174=EDGE_LOOP('',(#1037,#1038,#1039,#1040,#1041,#1042));
#175=EDGE_LOOP('',(#1043,#1044,#1045,#1046,#1047,#1048));
#176=EDGE_LOOP('',(#1049,#1050,#1051,#1052,#1053,#1054));
#177=EDGE_LOOP('',(#1055,#1056,#1057,#1058,#1059,#1060));
#178=EDGE_LOOP('',(#1061,#1062,#1063,#1064));
#179=LINE('',#1577,#331);
#180=LINE('',#1579,#332);
#181=LINE('',#1581,#333);
#182=LINE('',#1582,#334);
#183=LINE('',#1585,#335);
#184=LINE('',#1587,#336);
#185=LINE('',#1588,#337);
#186=LINE('',#1591,#338);
#187=LINE('',#1593,#339);
#188=LINE('',#1594,#340);
#189=LINE('',#1596,#341);
#190=LINE('',#1597,#342);
#191=LINE('',#1600,#343);
#192=LINE('',#1602,#344);
#193=LINE('',#1603,#345);
#194=LINE('',#1606,#346);
#195=LINE('',#1607,#347);
#196=LINE('',#1611,#348);
#197=LINE('',#1613,#349);
#198=LINE('',#1615,#350);
#199=LINE('',#1616,#351);
#200=LINE('',#1619,#352);
#201=LINE('',#1620,#353);
#202=LINE('',#1622,#354);
#203=LINE('',#1626,#355);
#204=LINE('',#1628,#356);
#205=LINE('',#1630,#357);
#206=LINE('',#1631,#358);
#207=LINE('',#1634,#359);
#208=LINE('',#1636,#360);
#209=LINE('',#1637,#361);
#210=LINE('',#1640,#362);
#211=LINE('',#1642,#363);
#212=LINE('',#1643,#364);
#213=LINE('',#1645,#365);
#214=LINE('',#1646,#366);
#215=LINE('',#1651,#367);
#216=LINE('',#1653,#368);
#217=LINE('',#1655,#369);
#218=LINE('',#1656,#370);
#219=LINE('',#1659,#371);
#220=LINE('',#1661,#372);
#221=LINE('',#1662,#373);
#222=LINE('',#1665,#374);
#223=LINE('',#1667,#375);
#224=LINE('',#1668,#376);
#225=LINE('',#1670,#377);
#226=LINE('',#1671,#378);
#227=LINE('',#1676,#379);
#228=LINE('',#1678,#380);
#229=LINE('',#1680,#381);
#230=LINE('',#1681,#382);
#231=LINE('',#1684,#383);
#232=LINE('',#1686,#384);
#233=LINE('',#1688,#385);
#234=LINE('',#1690,#386);
#235=LINE('',#1692,#387);
#236=LINE('',#1694,#388);
#237=LINE('',#1695,#389);
#238=LINE('',#1698,#390);
#239=LINE('',#1700,#391);
#240=LINE('',#1702,#392);
#241=LINE('',#1703,#393);
#242=LINE('',#1705,#394);
#243=LINE('',#1707,#395);
#244=LINE('',#1709,#396);
#245=LINE('',#1711,#397);
#246=LINE('',#1713,#398);
#247=LINE('',#1715,#399);
#248=LINE('',#1717,#400);
#249=LINE('',#1719,#401);
#250=LINE('',#1720,#402);
#251=LINE('',#1727,#403);
#252=LINE('',#1729,#404);
#253=LINE('',#1730,#405);
#254=LINE('',#1733,#406);
#255=LINE('',#1735,#407);
#256=LINE('',#1736,#408);
#257=LINE('',#1740,#409);
#258=LINE('',#1742,#410);
#259=LINE('',#1744,#411);
#260=LINE('',#1745,#412);
#261=LINE('',#1748,#413);
#262=LINE('',#1749,#414);
#263=LINE('',#1753,#415);
#264=LINE('',#1755,#416);
#265=LINE('',#1756,#417);
#266=LINE('',#1760,#418);
#267=LINE('',#1762,#419);
#268=LINE('',#1763,#420);
#269=LINE('',#1765,#421);
#270=LINE('',#1766,#422);
#271=LINE('',#1768,#423);
#272=LINE('',#1769,#424);
#273=LINE('',#1771,#425);
#274=LINE('',#1773,#426);
#275=LINE('',#1774,#427);
#276=LINE('',#1777,#428);
#277=LINE('',#1778,#429);
#278=LINE('',#1779,#430);
#279=LINE('',#1781,#431);
#280=LINE('',#1783,#432);
#281=LINE('',#1784,#433);
#282=LINE('',#1786,#434);
#283=LINE('',#1796,#435);
#284=LINE('',#1798,#436);
#285=LINE('',#1800,#437);
#286=LINE('',#1802,#438);
#287=LINE('',#1804,#439);
#288=LINE('',#1805,#440);
#289=LINE('',#1807,#441);
#290=LINE('',#1808,#442);
#291=LINE('',#1812,#443);
#292=LINE('',#1814,#444);
#293=LINE('',#1816,#445);
#294=LINE('',#1817,#446);
#295=LINE('',#1820,#447);
#296=LINE('',#1822,#448);
#297=LINE('',#1823,#449);
#298=LINE('',#1825,#450);
#299=LINE('',#1827,#451);
#300=LINE('',#1828,#452);
#301=LINE('',#1831,#453);
#302=LINE('',#1832,#454);
#303=LINE('',#1835,#455);
#304=LINE('',#1836,#456);
#305=LINE('',#1839,#457);
#306=LINE('',#1840,#458);
#307=LINE('',#1842,#459);
#308=LINE('',#1849,#460);
#309=LINE('',#1851,#461);
#310=LINE('',#1858,#462);
#311=LINE('',#1860,#463);
#312=LINE('',#1863,#464);
#313=LINE('',#1864,#465);
#314=LINE('',#1866,#466);
#315=LINE('',#1869,#467);
#316=LINE('',#1870,#468);
#317=LINE('',#1873,#469);
#318=LINE('',#1875,#470);
#319=LINE('',#1876,#471);
#320=LINE('',#1878,#472);
#321=LINE('',#1879,#473);
#322=LINE('',#1881,#474);
#323=LINE('',#1884,#475);
#324=LINE('',#1885,#476);
#325=LINE('',#1887,#477);
#326=LINE('',#1891,#478);
#327=LINE('',#1892,#479);
#328=LINE('',#1895,#480);
#329=LINE('',#1896,#481);
#330=LINE('',#1898,#482);
#331=VECTOR('',#1279,10.);
#332=VECTOR('',#1280,10.);
#333=VECTOR('',#1281,10.);
#334=VECTOR('',#1282,10.);
#335=VECTOR('',#1285,10.);
#336=VECTOR('',#1286,10.);
#337=VECTOR('',#1287,10.);
#338=VECTOR('',#1290,10.);
#339=VECTOR('',#1291,10.);
#340=VECTOR('',#1292,10.);
#341=VECTOR('',#1295,10.);
#342=VECTOR('',#1296,10.);
#343=VECTOR('',#1299,10.);
#344=VECTOR('',#1300,10.);
#345=VECTOR('',#1301,10.);
#346=VECTOR('',#1304,10.);
#347=VECTOR('',#1305,10.);
#348=VECTOR('',#1308,10.);
#349=VECTOR('',#1309,10.);
#350=VECTOR('',#1310,10.);
#351=VECTOR('',#1311,10.);
#352=VECTOR('',#1314,10.);
#353=VECTOR('',#1315,10.);
#354=VECTOR('',#1318,10.);
#355=VECTOR('',#1321,10.);
#356=VECTOR('',#1322,10.);
#357=VECTOR('',#1323,10.);
#358=VECTOR('',#1324,10.);
#359=VECTOR('',#1327,10.);
#360=VECTOR('',#1328,10.);
#361=VECTOR('',#1329,10.);
#362=VECTOR('',#1332,10.);
#363=VECTOR('',#1333,10.);
#364=VECTOR('',#1334,10.);
#365=VECTOR('',#1337,10.);
#366=VECTOR('',#1338,10.);
#367=VECTOR('',#1343,10.);
#368=VECTOR('',#1344,10.);
#369=VECTOR('',#1345,10.);
#370=VECTOR('',#1346,10.);
#371=VECTOR('',#1349,10.);
#372=VECTOR('',#1350,10.);
#373=VECTOR('',#1351,10.);
#374=VECTOR('',#1354,10.);
#375=VECTOR('',#1355,10.);
#376=VECTOR('',#1356,10.);
#377=VECTOR('',#1359,10.);
#378=VECTOR('',#1360,10.);
#379=VECTOR('',#1365,10.);
#380=VECTOR('',#1366,10.);
#381=VECTOR('',#1367,10.);
#382=VECTOR('',#1368,10.);
#383=VECTOR('',#1371,10.);
#384=VECTOR('',#1372,10.);
#385=VECTOR('',#1373,10.);
#386=VECTOR('',#1374,10.);
#387=VECTOR('',#1375,10.);
#388=VECTOR('',#1376,10.);
#389=VECTOR('',#1377,10.);
#390=VECTOR('',#1380,10.);
#391=VECTOR('',#1381,10.);
#392=VECTOR('',#1382,10.);
#393=VECTOR('',#1383,10.);
#394=VECTOR('',#1384,10.);
#395=VECTOR('',#1385,10.);
#396=VECTOR('',#1386,10.);
#397=VECTOR('',#1387,10.);
#398=VECTOR('',#1388,10.);
#399=VECTOR('',#1389,10.);
#400=VECTOR('',#1390,10.);
#401=VECTOR('',#1391,10.);
#402=VECTOR('',#1392,10.);
#403=VECTOR('',#1399,10.);
#404=VECTOR('',#1400,10.);
#405=VECTOR('',#1401,10.);
#406=VECTOR('',#1404,10.);
#407=VECTOR('',#1405,10.);
#408=VECTOR('',#1406,10.);
#409=VECTOR('',#1409,10.);
#410=VECTOR('',#1410,10.);
#411=VECTOR('',#1411,10.);
#412=VECTOR('',#1412,10.);
#413=VECTOR('',#1415,10.);
#414=VECTOR('',#1416,10.);
#415=VECTOR('',#1419,10.);
#416=VECTOR('',#1420,10.);
#417=VECTOR('',#1421,10.);
#418=VECTOR('',#1424,10.);
#419=VECTOR('',#1425,10.);
#420=VECTOR('',#1426,10.);
#421=VECTOR('',#1429,10.);
#422=VECTOR('',#1430,10.);
#423=VECTOR('',#1433,10.);
#424=VECTOR('',#1434,10.);
#425=VECTOR('',#1437,10.);
#426=VECTOR('',#1438,10.);
#427=VECTOR('',#1439,10.);
#428=VECTOR('',#1442,10.);
#429=VECTOR('',#1443,10.);
#430=VECTOR('',#1444,10.);
#431=VECTOR('',#1447,10.);
#432=VECTOR('',#1448,10.);
#433=VECTOR('',#1449,10.);
#434=VECTOR('',#1452,10.);
#435=VECTOR('',#1463,10.);
#436=VECTOR('',#1464,10.);
#437=VECTOR('',#1465,10.);
#438=VECTOR('',#1466,10.);
#439=VECTOR('',#1467,10.);
#440=VECTOR('',#1468,10.);
#441=VECTOR('',#1471,10.);
#442=VECTOR('',#1472,10.);
#443=VECTOR('',#1475,10.);
#444=VECTOR('',#1476,10.);
#445=VECTOR('',#1477,10.);
#446=VECTOR('',#1478,10.);
#447=VECTOR('',#1481,10.);
#448=VECTOR('',#1482,10.);
#449=VECTOR('',#1483,10.);
#450=VECTOR('',#1486,10.);
#451=VECTOR('',#1487,10.);
#452=VECTOR('',#1488,10.);
#453=VECTOR('',#1491,10.);
#454=VECTOR('',#1492,10.);
#455=VECTOR('',#1495,10.);
#456=VECTOR('',#1496,10.);
#457=VECTOR('',#1499,10.);
#458=VECTOR('',#1500,10.);
#459=VECTOR('',#1503,10.);
#460=VECTOR('',#1512,3.3);
#461=VECTOR('',#1515,2.1);
#462=VECTOR('',#1524,3.3);
#463=VECTOR('',#1527,2.1);
#464=VECTOR('',#1530,10.);
#465=VECTOR('',#1531,10.);
#466=VECTOR('',#1534,10.);
#467=VECTOR('',#1537,10.);
#468=VECTOR('',#1538,10.);
#469=VECTOR('',#1541,10.);
#470=VECTOR('',#1542,10.);
#471=VECTOR('',#1543,10.);
#472=VECTOR('',#1546,10.);
#473=VECTOR('',#1547,10.);
#474=VECTOR('',#1550,10.);
#475=VECTOR('',#1553,10.);
#476=VECTOR('',#1554,10.);
#477=VECTOR('',#1557,10.);
#478=VECTOR('',#1562,10.);
#479=VECTOR('',#1563,10.);
#480=VECTOR('',#1566,10.);
#481=VECTOR('',#1567,10.);
#482=VECTOR('',#1570,10.);
#483=VERTEX_POINT('',#1575);
#484=VERTEX_POINT('',#1576);
#485=VERTEX_POINT('',#1578);
#486=VERTEX_POINT('',#1580);
#487=VERTEX_POINT('',#1584);
#488=VERTEX_POINT('',#1586);
#489=VERTEX_POINT('',#1590);
#490=VERTEX_POINT('',#1592);
#491=VERTEX_POINT('',#1599);
#492=VERTEX_POINT('',#1601);
#493=VERTEX_POINT('',#1605);
#494=VERTEX_POINT('',#1609);
#495=VERTEX_POINT('',#1610);
#496=VERTEX_POINT('',#1612);
#497=VERTEX_POINT('',#1614);
#498=VERTEX_POINT('',#1618);
#499=VERTEX_POINT('',#1624);
#500=VERTEX_POINT('',#1625);
#501=VERTEX_POINT('',#1627);
#502=VERTEX_POINT('',#1629);
#503=VERTEX_POINT('',#1633);
#504=VERTEX_POINT('',#1635);
#505=VERTEX_POINT('',#1639);
#506=VERTEX_POINT('',#1641);
#507=VERTEX_POINT('',#1649);
#508=VERTEX_POINT('',#1650);
#509=VERTEX_POINT('',#1652);
#510=VERTEX_POINT('',#1654);
#511=VERTEX_POINT('',#1658);
#512=VERTEX_POINT('',#1660);
#513=VERTEX_POINT('',#1664);
#514=VERTEX_POINT('',#1666);
#515=VERTEX_POINT('',#1674);
#516=VERTEX_POINT('',#1675);
#517=VERTEX_POINT('',#1677);
#518=VERTEX_POINT('',#1679);
#519=VERTEX_POINT('',#1683);
#520=VERTEX_POINT('',#1685);
#521=VERTEX_POINT('',#1687);
#522=VERTEX_POINT('',#1689);
#523=VERTEX_POINT('',#1691);
#524=VERTEX_POINT('',#1693);
#525=VERTEX_POINT('',#1697);
#526=VERTEX_POINT('',#1699);
#527=VERTEX_POINT('',#1701);
#528=VERTEX_POINT('',#1704);
#529=VERTEX_POINT('',#1706);
#530=VERTEX_POINT('',#1708);
#531=VERTEX_POINT('',#1710);
#532=VERTEX_POINT('',#1712);
#533=VERTEX_POINT('',#1714);
#534=VERTEX_POINT('',#1716);
#535=VERTEX_POINT('',#1718);
#536=VERTEX_POINT('',#1721);
#537=VERTEX_POINT('',#1723);
#538=VERTEX_POINT('',#1726);
#539=VERTEX_POINT('',#1728);
#540=VERTEX_POINT('',#1732);
#541=VERTEX_POINT('',#1734);
#542=VERTEX_POINT('',#1738);
#543=VERTEX_POINT('',#1739);
#544=VERTEX_POINT('',#1741);
#545=VERTEX_POINT('',#1743);
#546=VERTEX_POINT('',#1747);
#547=VERTEX_POINT('',#1751);
#548=VERTEX_POINT('',#1752);
#549=VERTEX_POINT('',#1754);
#550=VERTEX_POINT('',#1758);
#551=VERTEX_POINT('',#1759);
#552=VERTEX_POINT('',#1761);
#553=VERTEX_POINT('',#1772);
#554=VERTEX_POINT('',#1776);
#555=VERTEX_POINT('',#1782);
#556=VERTEX_POINT('',#1788);
#557=VERTEX_POINT('',#1790);
#558=VERTEX_POINT('',#1794);
#559=VERTEX_POINT('',#1795);
#560=VERTEX_POINT('',#1797);
#561=VERTEX_POINT('',#1799);
#562=VERTEX_POINT('',#1801);
#563=VERTEX_POINT('',#1803);
#564=VERTEX_POINT('',#1810);
#565=VERTEX_POINT('',#1811);
#566=VERTEX_POINT('',#1813);
#567=VERTEX_POINT('',#1815);
#568=VERTEX_POINT('',#1819);
#569=VERTEX_POINT('',#1821);
#570=VERTEX_POINT('',#1826);
#571=VERTEX_POINT('',#1830);
#572=VERTEX_POINT('',#1834);
#573=VERTEX_POINT('',#1838);
#574=VERTEX_POINT('',#1844);
#575=VERTEX_POINT('',#1846);
#576=VERTEX_POINT('',#1853);
#577=VERTEX_POINT('',#1855);
#578=VERTEX_POINT('',#1862);
#579=VERTEX_POINT('',#1868);
#580=VERTEX_POINT('',#1872);
#581=VERTEX_POINT('',#1874);
#582=VERTEX_POINT('',#1883);
#583=VERTEX_POINT('',#1890);
#584=VERTEX_POINT('',#1894);
#585=EDGE_CURVE('',#483,#484,#179,.T.);
#586=EDGE_CURVE('',#484,#485,#180,.T.);
#587=EDGE_CURVE('',#485,#486,#181,.T.);
#588=EDGE_CURVE('',#486,#483,#182,.T.);
#589=EDGE_CURVE('',#487,#485,#183,.T.);
#590=EDGE_CURVE('',#484,#488,#184,.T.);
#591=EDGE_CURVE('',#488,#487,#185,.T.);
#592=EDGE_CURVE('',#489,#483,#186,.T.);
#593=EDGE_CURVE('',#486,#490,#187,.T.);
#594=EDGE_CURVE('',#490,#489,#188,.T.);
#595=EDGE_CURVE('',#488,#489,#189,.T.);
#596=EDGE_CURVE('',#490,#487,#190,.T.);
#597=EDGE_CURVE('',#491,#486,#191,.T.);
#598=EDGE_CURVE('',#491,#492,#192,.T.);
#599=EDGE_CURVE('',#490,#492,#193,.T.);
#600=EDGE_CURVE('',#485,#493,#194,.T.);
#601=EDGE_CURVE('',#493,#491,#195,.T.);
#602=EDGE_CURVE('',#494,#495,#196,.T.);
#603=EDGE_CURVE('',#496,#494,#197,.T.);
#604=EDGE_CURVE('',#497,#496,#198,.T.);
#605=EDGE_CURVE('',#497,#495,#199,.T.);
#606=EDGE_CURVE('',#492,#498,#200,.T.);
#607=EDGE_CURVE('',#498,#487,#201,.T.);
#608=EDGE_CURVE('',#498,#493,#202,.T.);
#609=EDGE_CURVE('',#499,#500,#203,.T.);
#610=EDGE_CURVE('',#501,#499,#204,.T.);
#611=EDGE_CURVE('',#502,#501,#205,.T.);
#612=EDGE_CURVE('',#500,#502,#206,.T.);
#613=EDGE_CURVE('',#500,#503,#207,.T.);
#614=EDGE_CURVE('',#502,#504,#208,.T.);
#615=EDGE_CURVE('',#504,#503,#209,.T.);
#616=EDGE_CURVE('',#503,#505,#210,.T.);
#617=EDGE_CURVE('',#506,#504,#211,.T.);
#618=EDGE_CURVE('',#505,#506,#212,.T.);
#619=EDGE_CURVE('',#505,#499,#213,.T.);
#620=EDGE_CURVE('',#501,#506,#214,.T.);
#621=EDGE_CURVE('',#507,#508,#215,.T.);
#622=EDGE_CURVE('',#509,#508,#216,.T.);
#623=EDGE_CURVE('',#510,#509,#217,.T.);
#624=EDGE_CURVE('',#510,#507,#218,.T.);
#625=EDGE_CURVE('',#508,#511,#219,.T.);
#626=EDGE_CURVE('',#512,#511,#220,.T.);
#627=EDGE_CURVE('',#509,#512,#221,.T.);
#628=EDGE_CURVE('',#511,#513,#222,.T.);
#629=EDGE_CURVE('',#514,#513,#223,.T.);
#630=EDGE_CURVE('',#512,#514,#224,.T.);
#631=EDGE_CURVE('',#513,#507,#225,.T.);
#632=EDGE_CURVE('',#514,#510,#226,.T.);
#633=EDGE_CURVE('',#515,#516,#227,.T.);
#634=EDGE_CURVE('',#516,#517,#228,.T.);
#635=EDGE_CURVE('',#517,#518,#229,.F.);
#636=EDGE_CURVE('',#518,#515,#230,.T.);
#637=EDGE_CURVE('',#516,#519,#231,.T.);
#638=EDGE_CURVE('',#520,#519,#232,.T.);
#639=EDGE_CURVE('',#521,#520,#233,.T.);
#640=EDGE_CURVE('',#521,#522,#234,.T.);
#641=EDGE_CURVE('',#522,#523,#235,.T.);
#642=EDGE_CURVE('',#524,#523,#236,.T.);
#643=EDGE_CURVE('',#517,#524,#237,.T.);
#644=EDGE_CURVE('',#515,#525,#238,.T.);
#645=EDGE_CURVE('',#525,#526,#239,.T.);
#646=EDGE_CURVE('',#527,#526,#240,.T.);
#647=EDGE_CURVE('',#495,#527,#241,.T.);
#648=EDGE_CURVE('',#528,#497,#242,.T.);
#649=EDGE_CURVE('',#529,#528,#243,.T.);
#650=EDGE_CURVE('',#529,#530,#244,.T.);
#651=EDGE_CURVE('',#531,#530,#245,.T.);
#652=EDGE_CURVE('',#532,#531,#246,.T.);
#653=EDGE_CURVE('',#532,#533,#247,.T.);
#654=EDGE_CURVE('',#533,#534,#248,.T.);
#655=EDGE_CURVE('',#534,#535,#249,.T.);
#656=EDGE_CURVE('',#535,#519,#250,.T.);
#657=EDGE_CURVE('',#536,#536,#19,.T.);
#658=EDGE_CURVE('',#537,#537,#20,.T.);
#659=EDGE_CURVE('',#531,#538,#251,.T.);
#660=EDGE_CURVE('',#538,#539,#252,.F.);
#661=EDGE_CURVE('',#539,#532,#253,.T.);
#662=EDGE_CURVE('',#540,#530,#254,.T.);
#663=EDGE_CURVE('',#541,#540,#255,.T.);
#664=EDGE_CURVE('',#538,#541,#256,.T.);
#665=EDGE_CURVE('',#542,#543,#257,.T.);
#666=EDGE_CURVE('',#543,#544,#258,.T.);
#667=EDGE_CURVE('',#544,#545,#259,.T.);
#668=EDGE_CURVE('',#545,#542,#260,.T.);
#669=EDGE_CURVE('',#527,#546,#261,.T.);
#670=EDGE_CURVE('',#546,#494,#262,.T.);
#671=EDGE_CURVE('',#547,#548,#263,.T.);
#672=EDGE_CURVE('',#549,#547,#264,.T.);
#673=EDGE_CURVE('',#548,#549,#265,.T.);
#674=EDGE_CURVE('',#550,#551,#266,.T.);
#675=EDGE_CURVE('',#552,#550,#267,.T.);
#676=EDGE_CURVE('',#551,#552,#268,.T.);
#677=EDGE_CURVE('',#547,#552,#269,.T.);
#678=EDGE_CURVE('',#550,#549,#270,.T.);
#679=EDGE_CURVE('',#546,#551,#271,.T.);
#680=EDGE_CURVE('',#552,#494,#272,.T.);
#681=EDGE_CURVE('',#545,#550,#273,.T.);
#682=EDGE_CURVE('',#551,#553,#274,.T.);
#683=EDGE_CURVE('',#553,#542,#275,.T.);
#684=EDGE_CURVE('',#554,#548,#276,.T.);
#685=EDGE_CURVE('',#549,#544,#277,.T.);
#686=EDGE_CURVE('',#543,#554,#278,.T.);
#687=EDGE_CURVE('',#496,#547,#279,.T.);
#688=EDGE_CURVE('',#548,#555,#280,.T.);
#689=EDGE_CURVE('',#555,#496,#281,.T.);
#690=EDGE_CURVE('',#555,#528,#282,.T.);
#691=EDGE_CURVE('',#556,#556,#21,.T.);
#692=EDGE_CURVE('',#557,#557,#22,.T.);
#693=EDGE_CURVE('',#558,#559,#283,.T.);
#694=EDGE_CURVE('',#558,#560,#284,.T.);
#695=EDGE_CURVE('',#561,#560,#285,.T.);
#696=EDGE_CURVE('',#561,#562,#286,.T.);
#697=EDGE_CURVE('',#562,#563,#287,.T.);
#698=EDGE_CURVE('',#559,#563,#288,.T.);
#699=EDGE_CURVE('',#563,#520,#289,.T.);
#700=EDGE_CURVE('',#562,#521,#290,.T.);
#701=EDGE_CURVE('',#564,#565,#291,.T.);
#702=EDGE_CURVE('',#564,#566,#292,.T.);
#703=EDGE_CURVE('',#567,#566,#293,.T.);
#704=EDGE_CURVE('',#565,#567,#294,.T.);
#705=EDGE_CURVE('',#565,#568,#295,.T.);
#706=EDGE_CURVE('',#569,#567,#296,.T.);
#707=EDGE_CURVE('',#568,#569,#297,.T.);
#708=EDGE_CURVE('',#522,#561,#298,.T.);
#709=EDGE_CURVE('',#566,#570,#299,.T.);
#710=EDGE_CURVE('',#570,#569,#300,.T.);
#711=EDGE_CURVE('',#571,#558,#301,.T.);
#712=EDGE_CURVE('',#560,#571,#302,.T.);
#713=EDGE_CURVE('',#572,#571,#303,.T.);
#714=EDGE_CURVE('',#523,#572,#304,.T.);
#715=EDGE_CURVE('',#568,#573,#305,.T.);
#716=EDGE_CURVE('',#573,#570,#306,.T.);
#717=EDGE_CURVE('',#573,#564,#307,.T.);
#718=EDGE_CURVE('',#574,#574,#23,.T.);
#719=EDGE_CURVE('',#575,#575,#24,.T.);
#720=EDGE_CURVE('',#574,#557,#308,.T.);
#721=EDGE_CURVE('',#537,#575,#309,.T.);
#722=EDGE_CURVE('',#576,#576,#25,.T.);
#723=EDGE_CURVE('',#577,#577,#26,.T.);
#724=EDGE_CURVE('',#576,#556,#310,.T.);
#725=EDGE_CURVE('',#536,#577,#311,.T.);
#726=EDGE_CURVE('',#578,#572,#312,.T.);
#727=EDGE_CURVE('',#524,#578,#313,.T.);
#728=EDGE_CURVE('',#559,#535,#314,.T.);
#729=EDGE_CURVE('',#579,#539,#315,.T.);
#730=EDGE_CURVE('',#533,#579,#316,.T.);
#731=EDGE_CURVE('',#540,#580,#317,.T.);
#732=EDGE_CURVE('',#580,#581,#318,.T.);
#733=EDGE_CURVE('',#541,#581,#319,.T.);
#734=EDGE_CURVE('',#530,#525,#320,.T.);
#735=EDGE_CURVE('',#525,#580,#321,.T.);
#736=EDGE_CURVE('',#581,#518,#322,.T.);
#737=EDGE_CURVE('',#582,#579,#323,.T.);
#738=EDGE_CURVE('',#534,#582,#324,.T.);
#739=EDGE_CURVE('',#582,#578,#325,.T.);
#740=EDGE_CURVE('',#554,#583,#326,.T.);
#741=EDGE_CURVE('',#583,#529,#327,.T.);
#742=EDGE_CURVE('',#584,#553,#328,.T.);
#743=EDGE_CURVE('',#583,#584,#329,.T.);
#744=EDGE_CURVE('',#526,#584,#330,.T.);
#745=ORIENTED_EDGE('',*,*,#585,.T.);
#746=ORIENTED_EDGE('',*,*,#586,.T.);
#747=ORIENTED_EDGE('',*,*,#587,.T.);
#748=ORIENTED_EDGE('',*,*,#588,.T.);
#749=ORIENTED_EDGE('',*,*,#589,.T.);
#750=ORIENTED_EDGE('',*,*,#586,.F.);
#751=ORIENTED_EDGE('',*,*,#590,.T.);
#752=ORIENTED_EDGE('',*,*,#591,.T.);
#753=ORIENTED_EDGE('',*,*,#592,.T.);
#754=ORIENTED_EDGE('',*,*,#588,.F.);
#755=ORIENTED_EDGE('',*,*,#593,.T.);
#756=ORIENTED_EDGE('',*,*,#594,.T.);
#757=ORIENTED_EDGE('',*,*,#595,.T.);
#758=ORIENTED_EDGE('',*,*,#594,.F.);
#759=ORIENTED_EDGE('',*,*,#596,.T.);
#760=ORIENTED_EDGE('',*,*,#591,.F.);
#761=ORIENTED_EDGE('',*,*,#593,.F.);
#762=ORIENTED_EDGE('',*,*,#597,.F.);
#763=ORIENTED_EDGE('',*,*,#598,.T.);
#764=ORIENTED_EDGE('',*,*,#599,.F.);
#765=ORIENTED_EDGE('',*,*,#587,.F.);
#766=ORIENTED_EDGE('',*,*,#600,.T.);
#767=ORIENTED_EDGE('',*,*,#601,.T.);
#768=ORIENTED_EDGE('',*,*,#597,.T.);
#769=ORIENTED_EDGE('',*,*,#602,.F.);
#770=ORIENTED_EDGE('',*,*,#603,.F.);
#771=ORIENTED_EDGE('',*,*,#604,.F.);
#772=ORIENTED_EDGE('',*,*,#605,.T.);
#773=ORIENTED_EDGE('',*,*,#585,.F.);
#774=ORIENTED_EDGE('',*,*,#592,.F.);
#775=ORIENTED_EDGE('',*,*,#595,.F.);
#776=ORIENTED_EDGE('',*,*,#590,.F.);
#777=ORIENTED_EDGE('',*,*,#596,.F.);
#778=ORIENTED_EDGE('',*,*,#599,.T.);
#779=ORIENTED_EDGE('',*,*,#606,.T.);
#780=ORIENTED_EDGE('',*,*,#607,.T.);
#781=ORIENTED_EDGE('',*,*,#589,.F.);
#782=ORIENTED_EDGE('',*,*,#607,.F.);
#783=ORIENTED_EDGE('',*,*,#608,.T.);
#784=ORIENTED_EDGE('',*,*,#600,.F.);
#785=ORIENTED_EDGE('',*,*,#609,.F.);
#786=ORIENTED_EDGE('',*,*,#610,.F.);
#787=ORIENTED_EDGE('',*,*,#611,.F.);
#788=ORIENTED_EDGE('',*,*,#612,.F.);
#789=ORIENTED_EDGE('',*,*,#613,.F.);
#790=ORIENTED_EDGE('',*,*,#612,.T.);
#791=ORIENTED_EDGE('',*,*,#614,.T.);
#792=ORIENTED_EDGE('',*,*,#615,.T.);
#793=ORIENTED_EDGE('',*,*,#616,.F.);
#794=ORIENTED_EDGE('',*,*,#615,.F.);
#795=ORIENTED_EDGE('',*,*,#617,.F.);
#796=ORIENTED_EDGE('',*,*,#618,.F.);
#797=ORIENTED_EDGE('',*,*,#619,.F.);
#798=ORIENTED_EDGE('',*,*,#618,.T.);
#799=ORIENTED_EDGE('',*,*,#620,.F.);
#800=ORIENTED_EDGE('',*,*,#610,.T.);
#801=ORIENTED_EDGE('',*,*,#614,.F.);
#802=ORIENTED_EDGE('',*,*,#611,.T.);
#803=ORIENTED_EDGE('',*,*,#620,.T.);
#804=ORIENTED_EDGE('',*,*,#617,.T.);
#805=ORIENTED_EDGE('',*,*,#608,.F.);
#806=ORIENTED_EDGE('',*,*,#606,.F.);
#807=ORIENTED_EDGE('',*,*,#598,.F.);
#808=ORIENTED_EDGE('',*,*,#601,.F.);
#809=ORIENTED_EDGE('',*,*,#621,.T.);
#810=ORIENTED_EDGE('',*,*,#622,.F.);
#811=ORIENTED_EDGE('',*,*,#623,.F.);
#812=ORIENTED_EDGE('',*,*,#624,.T.);
#813=ORIENTED_EDGE('',*,*,#625,.T.);
#814=ORIENTED_EDGE('',*,*,#626,.F.);
#815=ORIENTED_EDGE('',*,*,#627,.F.);
#816=ORIENTED_EDGE('',*,*,#622,.T.);
#817=ORIENTED_EDGE('',*,*,#628,.T.);
#818=ORIENTED_EDGE('',*,*,#629,.F.);
#819=ORIENTED_EDGE('',*,*,#630,.F.);
#820=ORIENTED_EDGE('',*,*,#626,.T.);
#821=ORIENTED_EDGE('',*,*,#631,.T.);
#822=ORIENTED_EDGE('',*,*,#624,.F.);
#823=ORIENTED_EDGE('',*,*,#632,.F.);
#824=ORIENTED_EDGE('',*,*,#629,.T.);
#825=ORIENTED_EDGE('',*,*,#621,.F.);
#826=ORIENTED_EDGE('',*,*,#631,.F.);
#827=ORIENTED_EDGE('',*,*,#628,.F.);
#828=ORIENTED_EDGE('',*,*,#625,.F.);
#829=ORIENTED_EDGE('',*,*,#616,.T.);
#830=ORIENTED_EDGE('',*,*,#619,.T.);
#831=ORIENTED_EDGE('',*,*,#609,.T.);
#832=ORIENTED_EDGE('',*,*,#613,.T.);
#833=ORIENTED_EDGE('',*,*,#633,.T.);
#834=ORIENTED_EDGE('',*,*,#634,.T.);
#835=ORIENTED_EDGE('',*,*,#635,.T.);
#836=ORIENTED_EDGE('',*,*,#636,.T.);
#837=ORIENTED_EDGE('',*,*,#634,.F.);
#838=ORIENTED_EDGE('',*,*,#637,.T.);
#839=ORIENTED_EDGE('',*,*,#638,.F.);
#840=ORIENTED_EDGE('',*,*,#639,.F.);
#841=ORIENTED_EDGE('',*,*,#640,.T.);
#842=ORIENTED_EDGE('',*,*,#641,.T.);
#843=ORIENTED_EDGE('',*,*,#642,.F.);
#844=ORIENTED_EDGE('',*,*,#643,.F.);
#845=ORIENTED_EDGE('',*,*,#633,.F.);
#846=ORIENTED_EDGE('',*,*,#644,.T.);
#847=ORIENTED_EDGE('',*,*,#645,.T.);
#848=ORIENTED_EDGE('',*,*,#646,.F.);
#849=ORIENTED_EDGE('',*,*,#647,.F.);
#850=ORIENTED_EDGE('',*,*,#605,.F.);
#851=ORIENTED_EDGE('',*,*,#648,.F.);
#852=ORIENTED_EDGE('',*,*,#649,.F.);
#853=ORIENTED_EDGE('',*,*,#650,.T.);
#854=ORIENTED_EDGE('',*,*,#651,.F.);
#855=ORIENTED_EDGE('',*,*,#652,.F.);
#856=ORIENTED_EDGE('',*,*,#653,.T.);
#857=ORIENTED_EDGE('',*,*,#654,.T.);
#858=ORIENTED_EDGE('',*,*,#655,.T.);
#859=ORIENTED_EDGE('',*,*,#656,.T.);
#860=ORIENTED_EDGE('',*,*,#637,.F.);
#861=ORIENTED_EDGE('',*,*,#657,.T.);
#862=ORIENTED_EDGE('',*,*,#658,.T.);
#863=ORIENTED_EDGE('',*,*,#652,.T.);
#864=ORIENTED_EDGE('',*,*,#659,.T.);
#865=ORIENTED_EDGE('',*,*,#660,.T.);
#866=ORIENTED_EDGE('',*,*,#661,.T.);
#867=ORIENTED_EDGE('',*,*,#659,.F.);
#868=ORIENTED_EDGE('',*,*,#651,.T.);
#869=ORIENTED_EDGE('',*,*,#662,.F.);
#870=ORIENTED_EDGE('',*,*,#663,.F.);
#871=ORIENTED_EDGE('',*,*,#664,.F.);
#872=ORIENTED_EDGE('',*,*,#665,.T.);
#873=ORIENTED_EDGE('',*,*,#666,.T.);
#874=ORIENTED_EDGE('',*,*,#667,.T.);
#875=ORIENTED_EDGE('',*,*,#668,.T.);
#876=ORIENTED_EDGE('',*,*,#602,.T.);
#877=ORIENTED_EDGE('',*,*,#647,.T.);
#878=ORIENTED_EDGE('',*,*,#669,.T.);
#879=ORIENTED_EDGE('',*,*,#670,.T.);
#880=ORIENTED_EDGE('',*,*,#671,.F.);
#881=ORIENTED_EDGE('',*,*,#672,.F.);
#882=ORIENTED_EDGE('',*,*,#673,.F.);
#883=ORIENTED_EDGE('',*,*,#674,.F.);
#884=ORIENTED_EDGE('',*,*,#675,.F.);
#885=ORIENTED_EDGE('',*,*,#676,.F.);
#886=ORIENTED_EDGE('',*,*,#672,.T.);
#887=ORIENTED_EDGE('',*,*,#677,.T.);
#888=ORIENTED_EDGE('',*,*,#675,.T.);
#889=ORIENTED_EDGE('',*,*,#678,.T.);
#890=ORIENTED_EDGE('',*,*,#679,.T.);
#891=ORIENTED_EDGE('',*,*,#676,.T.);
#892=ORIENTED_EDGE('',*,*,#680,.T.);
#893=ORIENTED_EDGE('',*,*,#670,.F.);
#894=ORIENTED_EDGE('',*,*,#681,.T.);
#895=ORIENTED_EDGE('',*,*,#674,.T.);
#896=ORIENTED_EDGE('',*,*,#682,.T.);
#897=ORIENTED_EDGE('',*,*,#683,.T.);
#898=ORIENTED_EDGE('',*,*,#668,.F.);
#899=ORIENTED_EDGE('',*,*,#684,.T.);
#900=ORIENTED_EDGE('',*,*,#673,.T.);
#901=ORIENTED_EDGE('',*,*,#685,.T.);
#902=ORIENTED_EDGE('',*,*,#666,.F.);
#903=ORIENTED_EDGE('',*,*,#686,.T.);
#904=ORIENTED_EDGE('',*,*,#687,.T.);
#905=ORIENTED_EDGE('',*,*,#671,.T.);
#906=ORIENTED_EDGE('',*,*,#688,.T.);
#907=ORIENTED_EDGE('',*,*,#689,.T.);
#908=ORIENTED_EDGE('',*,*,#690,.T.);
#909=ORIENTED_EDGE('',*,*,#648,.T.);
#910=ORIENTED_EDGE('',*,*,#604,.T.);
#911=ORIENTED_EDGE('',*,*,#689,.F.);
#912=ORIENTED_EDGE('',*,*,#680,.F.);
#913=ORIENTED_EDGE('',*,*,#677,.F.);
#914=ORIENTED_EDGE('',*,*,#687,.F.);
#915=ORIENTED_EDGE('',*,*,#603,.T.);
#916=ORIENTED_EDGE('',*,*,#691,.T.);
#917=ORIENTED_EDGE('',*,*,#692,.T.);
#918=ORIENTED_EDGE('',*,*,#678,.F.);
#919=ORIENTED_EDGE('',*,*,#681,.F.);
#920=ORIENTED_EDGE('',*,*,#667,.F.);
#921=ORIENTED_EDGE('',*,*,#685,.F.);
#922=ORIENTED_EDGE('',*,*,#693,.F.);
#923=ORIENTED_EDGE('',*,*,#694,.T.);
#924=ORIENTED_EDGE('',*,*,#695,.F.);
#925=ORIENTED_EDGE('',*,*,#696,.T.);
#926=ORIENTED_EDGE('',*,*,#697,.T.);
#927=ORIENTED_EDGE('',*,*,#698,.F.);
#928=ORIENTED_EDGE('',*,*,#699,.F.);
#929=ORIENTED_EDGE('',*,*,#697,.F.);
#930=ORIENTED_EDGE('',*,*,#700,.T.);
#931=ORIENTED_EDGE('',*,*,#639,.T.);
#932=ORIENTED_EDGE('',*,*,#701,.F.);
#933=ORIENTED_EDGE('',*,*,#702,.T.);
#934=ORIENTED_EDGE('',*,*,#703,.F.);
#935=ORIENTED_EDGE('',*,*,#704,.F.);
#936=ORIENTED_EDGE('',*,*,#705,.F.);
#937=ORIENTED_EDGE('',*,*,#704,.T.);
#938=ORIENTED_EDGE('',*,*,#706,.F.);
#939=ORIENTED_EDGE('',*,*,#707,.F.);
#940=ORIENTED_EDGE('',*,*,#708,.F.);
#941=ORIENTED_EDGE('',*,*,#640,.F.);
#942=ORIENTED_EDGE('',*,*,#700,.F.);
#943=ORIENTED_EDGE('',*,*,#696,.F.);
#944=ORIENTED_EDGE('',*,*,#703,.T.);
#945=ORIENTED_EDGE('',*,*,#709,.T.);
#946=ORIENTED_EDGE('',*,*,#710,.T.);
#947=ORIENTED_EDGE('',*,*,#706,.T.);
#948=ORIENTED_EDGE('',*,*,#711,.F.);
#949=ORIENTED_EDGE('',*,*,#712,.F.);
#950=ORIENTED_EDGE('',*,*,#694,.F.);
#951=ORIENTED_EDGE('',*,*,#713,.F.);
#952=ORIENTED_EDGE('',*,*,#714,.F.);
#953=ORIENTED_EDGE('',*,*,#641,.F.);
#954=ORIENTED_EDGE('',*,*,#708,.T.);
#955=ORIENTED_EDGE('',*,*,#695,.T.);
#956=ORIENTED_EDGE('',*,*,#712,.T.);
#957=ORIENTED_EDGE('',*,*,#715,.F.);
#958=ORIENTED_EDGE('',*,*,#707,.T.);
#959=ORIENTED_EDGE('',*,*,#710,.F.);
#960=ORIENTED_EDGE('',*,*,#716,.F.);
#961=ORIENTED_EDGE('',*,*,#717,.F.);
#962=ORIENTED_EDGE('',*,*,#716,.T.);
#963=ORIENTED_EDGE('',*,*,#709,.F.);
#964=ORIENTED_EDGE('',*,*,#702,.F.);
#965=ORIENTED_EDGE('',*,*,#718,.F.);
#966=ORIENTED_EDGE('',*,*,#719,.T.);
#967=ORIENTED_EDGE('',*,*,#718,.T.);
#968=ORIENTED_EDGE('',*,*,#720,.T.);
#969=ORIENTED_EDGE('',*,*,#692,.F.);
#970=ORIENTED_EDGE('',*,*,#720,.F.);
#971=ORIENTED_EDGE('',*,*,#658,.F.);
#972=ORIENTED_EDGE('',*,*,#721,.T.);
#973=ORIENTED_EDGE('',*,*,#719,.F.);
#974=ORIENTED_EDGE('',*,*,#721,.F.);
#975=ORIENTED_EDGE('',*,*,#722,.F.);
#976=ORIENTED_EDGE('',*,*,#723,.T.);
#977=ORIENTED_EDGE('',*,*,#722,.T.);
#978=ORIENTED_EDGE('',*,*,#724,.T.);
#979=ORIENTED_EDGE('',*,*,#691,.F.);
#980=ORIENTED_EDGE('',*,*,#724,.F.);
#981=ORIENTED_EDGE('',*,*,#657,.F.);
#982=ORIENTED_EDGE('',*,*,#725,.T.);
#983=ORIENTED_EDGE('',*,*,#723,.F.);
#984=ORIENTED_EDGE('',*,*,#725,.F.);
#985=ORIENTED_EDGE('',*,*,#714,.T.);
#986=ORIENTED_EDGE('',*,*,#726,.F.);
#987=ORIENTED_EDGE('',*,*,#727,.F.);
#988=ORIENTED_EDGE('',*,*,#642,.T.);
#989=ORIENTED_EDGE('',*,*,#698,.T.);
#990=ORIENTED_EDGE('',*,*,#699,.T.);
#991=ORIENTED_EDGE('',*,*,#638,.T.);
#992=ORIENTED_EDGE('',*,*,#656,.F.);
#993=ORIENTED_EDGE('',*,*,#728,.F.);
#994=ORIENTED_EDGE('',*,*,#661,.F.);
#995=ORIENTED_EDGE('',*,*,#729,.F.);
#996=ORIENTED_EDGE('',*,*,#730,.F.);
#997=ORIENTED_EDGE('',*,*,#653,.F.);
#998=ORIENTED_EDGE('',*,*,#663,.T.);
#999=ORIENTED_EDGE('',*,*,#731,.T.);
#1000=ORIENTED_EDGE('',*,*,#732,.T.);
#1001=ORIENTED_EDGE('',*,*,#733,.F.);
#1002=ORIENTED_EDGE('',*,*,#662,.T.);
#1003=ORIENTED_EDGE('',*,*,#734,.T.);
#1004=ORIENTED_EDGE('',*,*,#735,.T.);
#1005=ORIENTED_EDGE('',*,*,#731,.F.);
#1006=ORIENTED_EDGE('',*,*,#636,.F.);
#1007=ORIENTED_EDGE('',*,*,#736,.F.);
#1008=ORIENTED_EDGE('',*,*,#732,.F.);
#1009=ORIENTED_EDGE('',*,*,#735,.F.);
#1010=ORIENTED_EDGE('',*,*,#644,.F.);
#1011=ORIENTED_EDGE('',*,*,#730,.T.);
#1012=ORIENTED_EDGE('',*,*,#737,.F.);
#1013=ORIENTED_EDGE('',*,*,#738,.F.);
#1014=ORIENTED_EDGE('',*,*,#654,.F.);
#1015=ORIENTED_EDGE('',*,*,#693,.T.);
#1016=ORIENTED_EDGE('',*,*,#728,.T.);
#1017=ORIENTED_EDGE('',*,*,#655,.F.);
#1018=ORIENTED_EDGE('',*,*,#738,.T.);
#1019=ORIENTED_EDGE('',*,*,#739,.T.);
#1020=ORIENTED_EDGE('',*,*,#726,.T.);
#1021=ORIENTED_EDGE('',*,*,#713,.T.);
#1022=ORIENTED_EDGE('',*,*,#711,.T.);
#1023=ORIENTED_EDGE('',*,*,#623,.T.);
#1024=ORIENTED_EDGE('',*,*,#627,.T.);
#1025=ORIENTED_EDGE('',*,*,#630,.T.);
#1026=ORIENTED_EDGE('',*,*,#632,.T.);
#1027=ORIENTED_EDGE('',*,*,#664,.T.);
#1028=ORIENTED_EDGE('',*,*,#733,.T.);
#1029=ORIENTED_EDGE('',*,*,#736,.T.);
#1030=ORIENTED_EDGE('',*,*,#635,.F.);
#1031=ORIENTED_EDGE('',*,*,#643,.T.);
#1032=ORIENTED_EDGE('',*,*,#727,.T.);
#1033=ORIENTED_EDGE('',*,*,#739,.F.);
#1034=ORIENTED_EDGE('',*,*,#737,.T.);
#1035=ORIENTED_EDGE('',*,*,#729,.T.);
#1036=ORIENTED_EDGE('',*,*,#660,.F.);
#1037=ORIENTED_EDGE('',*,*,#684,.F.);
#1038=ORIENTED_EDGE('',*,*,#740,.T.);
#1039=ORIENTED_EDGE('',*,*,#741,.T.);
#1040=ORIENTED_EDGE('',*,*,#649,.T.);
#1041=ORIENTED_EDGE('',*,*,#690,.F.);
#1042=ORIENTED_EDGE('',*,*,#688,.F.);
#1043=ORIENTED_EDGE('',*,*,#683,.F.);
#1044=ORIENTED_EDGE('',*,*,#742,.F.);
#1045=ORIENTED_EDGE('',*,*,#743,.F.);
#1046=ORIENTED_EDGE('',*,*,#740,.F.);
#1047=ORIENTED_EDGE('',*,*,#686,.F.);
#1048=ORIENTED_EDGE('',*,*,#665,.F.);
#1049=ORIENTED_EDGE('',*,*,#743,.T.);
#1050=ORIENTED_EDGE('',*,*,#744,.F.);
#1051=ORIENTED_EDGE('',*,*,#645,.F.);
#1052=ORIENTED_EDGE('',*,*,#734,.F.);
#1053=ORIENTED_EDGE('',*,*,#650,.F.);
#1054=ORIENTED_EDGE('',*,*,#741,.F.);
#1055=ORIENTED_EDGE('',*,*,#669,.F.);
#1056=ORIENTED_EDGE('',*,*,#646,.T.);
#1057=ORIENTED_EDGE('',*,*,#744,.T.);
#1058=ORIENTED_EDGE('',*,*,#742,.T.);
#1059=ORIENTED_EDGE('',*,*,#682,.F.);
#1060=ORIENTED_EDGE('',*,*,#679,.F.);
#1061=ORIENTED_EDGE('',*,*,#715,.T.);
#1062=ORIENTED_EDGE('',*,*,#717,.T.);
#1063=ORIENTED_EDGE('',*,*,#701,.T.);
#1064=ORIENTED_EDGE('',*,*,#705,.T.);
#1065=PLANE('',#1203);
#1066=PLANE('',#1204);
#1067=PLANE('',#1205);
#1068=PLANE('',#1206);
#1069=PLANE('',#1207);
#1070=PLANE('',#1208);
#1071=PLANE('',#1209);
#1072=PLANE('',#1210);
#1073=PLANE('',#1211);
#1074=PLANE('',#1212);
#1075=PLANE('',#1213);
#1076=PLANE('',#1214);
#1077=PLANE('',#1215);
#1078=PLANE('',#1216);
#1079=PLANE('',#1217);
#1080=PLANE('',#1218);
#1081=PLANE('',#1219);
#1082=PLANE('',#1220);
#1083=PLANE('',#1221);
#1084=PLANE('',#1222);
#1085=PLANE('',#1223);
#1086=PLANE('',#1224);
#1087=PLANE('',#1227);
#1088=PLANE('',#1228);
#1089=PLANE('',#1229);
#1090=PLANE('',#1230);
#1091=PLANE('',#1231);
#1092=PLANE('',#1232);
#1093=PLANE('',#1233);
#1094=PLANE('',#1234);
#1095=PLANE('',#1235);
#1096=PLANE('',#1236);
#1097=PLANE('',#1237);
#1098=PLANE('',#1238);
#1099=PLANE('',#1239);
#1100=PLANE('',#1242);
#1101=PLANE('',#1243);
#1102=PLANE('',#1244);
#1103=PLANE('',#1245);
#1104=PLANE('',#1246);
#1105=PLANE('',#1247);
#1106=PLANE('',#1248);
#1107=PLANE('',#1249);
#1108=PLANE('',#1250);
#1109=PLANE('',#1251);
#1110=PLANE('',#1252);
#1111=PLANE('',#1257);
#1112=PLANE('',#1262);
#1113=PLANE('',#1263);
#1114=PLANE('',#1264);
#1115=PLANE('',#1265);
#1116=PLANE('',#1266);
#1117=PLANE('',#1267);
#1118=PLANE('',#1268);
#1119=PLANE('',#1269);
#1120=PLANE('',#1270);
#1121=PLANE('',#1271);
#1122=PLANE('',#1272);
#1123=PLANE('',#1273);
#1124=PLANE('',#1274);
#1125=ADVANCED_FACE('',(#39),#1065,.T.);
#1126=ADVANCED_FACE('',(#40),#1066,.T.);
#1127=ADVANCED_FACE('',(#41),#1067,.T.);
#1128=ADVANCED_FACE('',(#42),#1068,.T.);
#1129=ADVANCED_FACE('',(#43),#1069,.F.);
#1130=ADVANCED_FACE('',(#44),#1070,.T.);
#1131=ADVANCED_FACE('',(#45,#27),#1071,.T.);
#1132=ADVANCED_FACE('',(#46),#1072,.T.);
#1133=ADVANCED_FACE('',(#47),#1073,.T.);
#1134=ADVANCED_FACE('',(#48),#1074,.F.);
#1135=ADVANCED_FACE('',(#49),#1075,.T.);
#1136=ADVANCED_FACE('',(#50),#1076,.T.);
#1137=ADVANCED_FACE('',(#51),#1077,.T.);
#1138=ADVANCED_FACE('',(#52,#28),#1078,.T.);
#1139=ADVANCED_FACE('',(#53),#1079,.T.);
#1140=ADVANCED_FACE('',(#54),#1080,.T.);
#1141=ADVANCED_FACE('',(#55),#1081,.T.);
#1142=ADVANCED_FACE('',(#56),#1082,.T.);
#1143=ADVANCED_FACE('',(#57,#29),#1083,.T.);
#1144=ADVANCED_FACE('',(#58),#1084,.T.);
#1145=ADVANCED_FACE('',(#59),#1085,.T.);
#1146=ADVANCED_FACE('',(#60,#30,#31),#1086,.T.);
#1147=ADVANCED_FACE('',(#61),#1087,.T.);
#1148=ADVANCED_FACE('',(#62),#1088,.T.);
#1149=ADVANCED_FACE('',(#63),#1089,.T.);
#1150=ADVANCED_FACE('',(#64),#1090,.T.);
#1151=ADVANCED_FACE('',(#65),#1091,.T.);
#1152=ADVANCED_FACE('',(#66),#1092,.T.);
#1153=ADVANCED_FACE('',(#67),#1093,.T.);
#1154=ADVANCED_FACE('',(#68),#1094,.T.);
#1155=ADVANCED_FACE('',(#69),#1095,.T.);
#1156=ADVANCED_FACE('',(#70),#1096,.T.);
#1157=ADVANCED_FACE('',(#71),#1097,.T.);
#1158=ADVANCED_FACE('',(#72),#1098,.T.);
#1159=ADVANCED_FACE('',(#73,#32,#33),#1099,.T.);
#1160=ADVANCED_FACE('',(#74),#1100,.T.);
#1161=ADVANCED_FACE('',(#75),#1101,.T.);
#1162=ADVANCED_FACE('',(#76),#1102,.T.);
#1163=ADVANCED_FACE('',(#77),#1103,.T.);
#1164=ADVANCED_FACE('',(#78),#1104,.T.);
#1165=ADVANCED_FACE('',(#79,#34),#1105,.F.);
#1166=ADVANCED_FACE('',(#80),#1106,.T.);
#1167=ADVANCED_FACE('',(#81),#1107,.T.);
#1168=ADVANCED_FACE('',(#82),#1108,.T.);
#1169=ADVANCED_FACE('',(#83),#1109,.T.);
#1170=ADVANCED_FACE('',(#84,#35),#1110,.F.);
#1171=ADVANCED_FACE('',(#85),#15,.F.);
#1172=ADVANCED_FACE('',(#86),#16,.F.);
#1173=ADVANCED_FACE('',(#87,#36),#1111,.F.);
#1174=ADVANCED_FACE('',(#88),#17,.F.);
#1175=ADVANCED_FACE('',(#89),#18,.F.);
#1176=ADVANCED_FACE('',(#90),#1112,.F.);
#1177=ADVANCED_FACE('',(#91),#1113,.F.);
#1178=ADVANCED_FACE('',(#92),#1114,.T.);
#1179=ADVANCED_FACE('',(#93),#1115,.F.);
#1180=ADVANCED_FACE('',(#94),#1116,.F.);
#1181=ADVANCED_FACE('',(#95),#1117,.F.);
#1182=ADVANCED_FACE('',(#96),#1118,.F.);
#1183=ADVANCED_FACE('',(#97,#37),#1119,.F.);
#1184=ADVANCED_FACE('',(#98),#1120,.F.);
#1185=ADVANCED_FACE('',(#99),#1121,.T.);
#1186=ADVANCED_FACE('',(#100),#1122,.T.);
#1187=ADVANCED_FACE('',(#101),#1123,.T.);
#1188=ADVANCED_FACE('',(#102,#38),#1124,.T.);
#1189=CLOSED_SHELL('',(#1125,#1126,#1127,#1128,#1129,#1130,#1131,#1132,
#1133,#1134,#1135,#1136,#1137,#1138,#1139,#1140,#1141,#1142,#1143,#1144,
#1145,#1146,#1147,#1148,#1149,#1150,#1151,#1152,#1153,#1154,#1155,#1156,
#1157,#1158,#1159,#1160,#1161,#1162,#1163,#1164,#1165,#1166,#1167,#1168,
#1169,#1170,#1171,#1172,#1173,#1174,#1175,#1176,#1177,#1178,#1179,#1180,
#1181,#1182,#1183,#1184,#1185,#1186,#1187,#1188));
#1190=DERIVED_UNIT_ELEMENT(#1192,1.);
#1191=DERIVED_UNIT_ELEMENT(#1905,-3.);
#1192=(
MASS_UNIT()
NAMED_UNIT(*)
SI_UNIT(.KILO.,.GRAM.)
);
#1193=DERIVED_UNIT((#1190,#1191));
#1194=MEASURE_REPRESENTATION_ITEM('density measure',
POSITIVE_RATIO_MEASURE(7850.),#1193);
#1195=PROPERTY_DEFINITION_REPRESENTATION(#1200,#1197);
#1196=PROPERTY_DEFINITION_REPRESENTATION(#1201,#1198);
#1197=REPRESENTATION('material name',(#1199),#1902);
#1198=REPRESENTATION('density',(#1194),#1902);
#1199=DESCRIPTIVE_REPRESENTATION_ITEM('Steel','Steel');
#1200=PROPERTY_DEFINITION('material property','material name',#1912);
#1201=PROPERTY_DEFINITION('material property','density of part',#1912);
#1202=AXIS2_PLACEMENT_3D('',#1573,#1275,#1276);
#1203=AXIS2_PLACEMENT_3D('',#1574,#1277,#1278);
#1204=AXIS2_PLACEMENT_3D('',#1583,#1283,#1284);
#1205=AXIS2_PLACEMENT_3D('',#1589,#1288,#1289);
#1206=AXIS2_PLACEMENT_3D('',#1595,#1293,#1294);
#1207=AXIS2_PLACEMENT_3D('',#1598,#1297,#1298);
#1208=AXIS2_PLACEMENT_3D('',#1604,#1302,#1303);
#1209=AXIS2_PLACEMENT_3D('',#1608,#1306,#1307);
#1210=AXIS2_PLACEMENT_3D('',#1617,#1312,#1313);
#1211=AXIS2_PLACEMENT_3D('',#1621,#1316,#1317);
#1212=AXIS2_PLACEMENT_3D('',#1623,#1319,#1320);
#1213=AXIS2_PLACEMENT_3D('',#1632,#1325,#1326);
#1214=AXIS2_PLACEMENT_3D('',#1638,#1330,#1331);
#1215=AXIS2_PLACEMENT_3D('',#1644,#1335,#1336);
#1216=AXIS2_PLACEMENT_3D('',#1647,#1339,#1340);
#1217=AXIS2_PLACEMENT_3D('',#1648,#1341,#1342);
#1218=AXIS2_PLACEMENT_3D('',#1657,#1347,#1348);
#1219=AXIS2_PLACEMENT_3D('',#1663,#1352,#1353);
#1220=AXIS2_PLACEMENT_3D('',#1669,#1357,#1358);
#1221=AXIS2_PLACEMENT_3D('',#1672,#1361,#1362);
#1222=AXIS2_PLACEMENT_3D('',#1673,#1363,#1364);
#1223=AXIS2_PLACEMENT_3D('',#1682,#1369,#1370);
#1224=AXIS2_PLACEMENT_3D('',#1696,#1378,#1379);
#1225=AXIS2_PLACEMENT_3D('',#1722,#1393,#1394);
#1226=AXIS2_PLACEMENT_3D('',#1724,#1395,#1396);
#1227=AXIS2_PLACEMENT_3D('',#1725,#1397,#1398);
#1228=AXIS2_PLACEMENT_3D('',#1731,#1402,#1403);
#1229=AXIS2_PLACEMENT_3D('',#1737,#1407,#1408);
#1230=AXIS2_PLACEMENT_3D('',#1746,#1413,#1414);
#1231=AXIS2_PLACEMENT_3D('',#1750,#1417,#1418);
#1232=AXIS2_PLACEMENT_3D('',#1757,#1422,#1423);
#1233=AXIS2_PLACEMENT_3D('',#1764,#1427,#1428);
#1234=AXIS2_PLACEMENT_3D('',#1767,#1431,#1432);
#1235=AXIS2_PLACEMENT_3D('',#1770,#1435,#1436);
#1236=AXIS2_PLACEMENT_3D('',#1775,#1440,#1441);
#1237=AXIS2_PLACEMENT_3D('',#1780,#1445,#1446);
#1238=AXIS2_PLACEMENT_3D('',#1785,#1450,#1451);
#1239=AXIS2_PLACEMENT_3D('',#1787,#1453,#1454);
#1240=AXIS2_PLACEMENT_3D('',#1789,#1455,#1456);
#1241=AXIS2_PLACEMENT_3D('',#1791,#1457,#1458);
#1242=AXIS2_PLACEMENT_3D('',#1792,#1459,#1460);
#1243=AXIS2_PLACEMENT_3D('',#1793,#1461,#1462);
#1244=AXIS2_PLACEMENT_3D('',#1806,#1469,#1470);
#1245=AXIS2_PLACEMENT_3D('',#1809,#1473,#1474);
#1246=AXIS2_PLACEMENT_3D('',#1818,#1479,#1480);
#1247=AXIS2_PLACEMENT_3D('',#1824,#1484,#1485);
#1248=AXIS2_PLACEMENT_3D('',#1829,#1489,#1490);
#1249=AXIS2_PLACEMENT_3D('',#1833,#1493,#1494);
#1250=AXIS2_PLACEMENT_3D('',#1837,#1497,#1498);
#1251=AXIS2_PLACEMENT_3D('',#1841,#1501,#1502);
#1252=AXIS2_PLACEMENT_3D('',#1843,#1504,#1505);
#1253=AXIS2_PLACEMENT_3D('',#1845,#1506,#1507);
#1254=AXIS2_PLACEMENT_3D('',#1847,#1508,#1509);
#1255=AXIS2_PLACEMENT_3D('',#1848,#1510,#1511);
#1256=AXIS2_PLACEMENT_3D('',#1850,#1513,#1514);
#1257=AXIS2_PLACEMENT_3D('',#1852,#1516,#1517);
#1258=AXIS2_PLACEMENT_3D('',#1854,#1518,#1519);
#1259=AXIS2_PLACEMENT_3D('',#1856,#1520,#1521);
#1260=AXIS2_PLACEMENT_3D('',#1857,#1522,#1523);
#1261=AXIS2_PLACEMENT_3D('',#1859,#1525,#1526);
#1262=AXIS2_PLACEMENT_3D('',#1861,#1528,#1529);
#1263=AXIS2_PLACEMENT_3D('',#1865,#1532,#1533);
#1264=AXIS2_PLACEMENT_3D('',#1867,#1535,#1536);
#1265=AXIS2_PLACEMENT_3D('',#1871,#1539,#1540);
#1266=AXIS2_PLACEMENT_3D('',#1877,#1544,#1545);
#1267=AXIS2_PLACEMENT_3D('',#1880,#1548,#1549);
#1268=AXIS2_PLACEMENT_3D('',#1882,#1551,#1552);
#1269=AXIS2_PLACEMENT_3D('',#1886,#1555,#1556);
#1270=AXIS2_PLACEMENT_3D('',#1888,#1558,#1559);
#1271=AXIS2_PLACEMENT_3D('',#1889,#1560,#1561);
#1272=AXIS2_PLACEMENT_3D('',#1893,#1564,#1565);
#1273=AXIS2_PLACEMENT_3D('',#1897,#1568,#1569);
#1274=AXIS2_PLACEMENT_3D('',#1899,#1571,#1572);
#1275=DIRECTION('axis',(0.,0.,1.));
#1276=DIRECTION('refdir',(1.,0.,0.));
#1277=DIRECTION('center_axis',(0.97466377624804,-0.223675039443186,0.));
#1278=DIRECTION('ref_axis',(0.,0.,-1.));
#1279=DIRECTION('',(0.,0.,1.));
#1280=DIRECTION('',(-0.182629904944235,-0.795809640860628,-0.57735026918963));
#1281=DIRECTION('',(0.,0.,-1.));
#1282=DIRECTION('',(0.182629904944235,0.795809640860628,-0.57735026918963));
#1283=DIRECTION('center_axis',(0.599169407845617,0.375494368402427,-0.707106781186544));
#1284=DIRECTION('ref_axis',(-0.762934781305872,0.,-0.646475459297382));
#1285=DIRECTION('',(-0.531029228389428,0.847353502734324,0.));
#1286=DIRECTION('',(0.531029228389428,-0.847353502734324,0.));
#1287=DIRECTION('',(-0.795809640860628,0.182629904944235,-0.57735026918963));
#1288=DIRECTION('center_axis',(0.599169407845617,0.375494368402427,0.707106781186544));
#1289=DIRECTION('ref_axis',(0.762934781305872,0.,-0.646475459297382));
#1290=DIRECTION('',(-0.531029228389428,0.847353502734324,0.));
#1291=DIRECTION('',(0.531029228389428,-0.847353502734324,0.));
#1292=DIRECTION('',(0.795809640860628,-0.182629904944235,-0.57735026918963));
#1293=DIRECTION('center_axis',(0.223675039443178,0.974663776248042,0.));
#1294=DIRECTION('ref_axis',(0.,0.,1.));
#1295=DIRECTION('',(0.,0.,-1.));
#1296=DIRECTION('',(0.,0.,1.));
#1297=DIRECTION('center_axis',(0.,0.,-1.));
#1298=DIRECTION('ref_axis',(-0.531029228389428,0.847353502734324,0.));
#1299=DIRECTION('',(0.847353502734324,0.531029228389428,0.));
#1300=DIRECTION('',(0.531029228389428,-0.847353502734324,0.));
#1301=DIRECTION('',(-0.847353502734324,-0.531029228389428,0.));
#1302=DIRECTION('center_axis',(0.531029228389428,-0.847353502734324,0.));
#1303=DIRECTION('ref_axis',(0.,0.,-1.));
#1304=DIRECTION('',(-0.847353502734324,-0.531029228389428,0.));
#1305=DIRECTION('',(0.,0.,-1.));
#1306=DIRECTION('center_axis',(0.847353502734324,0.531029228389428,0.));
#1307=DIRECTION('ref_axis',(-0.531029228389428,0.847353502734324,0.));
#1308=DIRECTION('',(-0.531029228389428,0.847353502734324,0.));
#1309=DIRECTION('',(0.,0.,1.));
#1310=DIRECTION('',(0.531029228389428,-0.847353502734324,0.));
#1311=DIRECTION('',(0.,0.,1.));
#1312=DIRECTION('center_axis',(-0.531029228389428,0.847353502734324,0.));
#1313=DIRECTION('ref_axis',(0.,0.,1.));
#1314=DIRECTION('',(0.,0.,1.));
#1315=DIRECTION('',(0.847353502734324,0.531029228389428,0.));
#1316=DIRECTION('center_axis',(0.,0.,-1.));
#1317=DIRECTION('ref_axis',(-0.531029228389428,0.847353502734324,0.));
#1318=DIRECTION('',(-0.531029228389428,0.847353502734324,0.));
#1319=DIRECTION('center_axis',(0.,0.,-1.));
#1320=DIRECTION('ref_axis',(-0.531029228389428,0.847353502734324,0.));
#1321=DIRECTION('',(-0.531029228389428,0.847353502734324,0.));
#1322=DIRECTION('',(-0.847353502734324,-0.531029228389428,0.));
#1323=DIRECTION('',(0.531029228389428,-0.847353502734324,0.));
#1324=DIRECTION('',(0.847353502734324,0.531029228389428,0.));
#1325=DIRECTION('center_axis',(0.531029228389428,-0.847353502734324,0.));
#1326=DIRECTION('ref_axis',(0.,0.,-1.));
#1327=DIRECTION('',(0.,0.,1.));
#1328=DIRECTION('',(0.,0.,1.));
#1329=DIRECTION('',(-0.847353502734324,-0.531029228389428,0.));
#1330=DIRECTION('center_axis',(0.,0.,-1.));
#1331=DIRECTION('ref_axis',(-0.531029228389428,0.847353502734324,0.));
#1332=DIRECTION('',(0.531029228389428,-0.847353502734324,0.));
#1333=DIRECTION('',(-0.531029228389428,0.847353502734324,0.));
#1334=DIRECTION('',(0.847353502734324,0.531029228389428,0.));
#1335=DIRECTION('center_axis',(-0.531029228389428,0.847353502734324,0.));
#1336=DIRECTION('ref_axis',(0.,0.,1.));
#1337=DIRECTION('',(0.,0.,-1.));
#1338=DIRECTION('',(0.,0.,1.));
#1339=DIRECTION('center_axis',(-0.847353502734324,-0.531029228389428,0.));
#1340=DIRECTION('ref_axis',(0.,0.,1.));
#1341=DIRECTION('center_axis',(-0.223675039443192,-0.974663776248039,0.));
#1342=DIRECTION('ref_axis',(0.,0.,1.));
#1343=DIRECTION('',(0.,0.,-1.));
#1344=DIRECTION('',(-0.795809640860631,0.182629904944241,0.577350269189623));
#1345=DIRECTION('',(0.,0.,-1.));
#1346=DIRECTION('',(-0.79580964086063,0.182629904944241,-0.577350269189625));
#1347=DIRECTION('center_axis',(-0.599169407845613,-0.375494368402424,-0.707106781186549));
#1348=DIRECTION('ref_axis',(0.531029228389428,-0.847353502734324,0.));
#1349=DIRECTION('',(-0.531029228389428,0.847353502734324,0.));
#1350=DIRECTION('',(-0.182629904944238,-0.795809640860632,0.577350269189624));
#1351=DIRECTION('',(-0.531029228389428,0.847353502734324,0.));
#1352=DIRECTION('center_axis',(-0.974663776248039,0.223675039443188,0.));
#1353=DIRECTION('ref_axis',(0.,0.,-1.));
#1354=DIRECTION('',(0.,0.,1.));
#1355=DIRECTION('',(-0.182629904944238,-0.795809640860631,-0.577350269189625));
#1356=DIRECTION('',(0.,0.,1.));
#1357=DIRECTION('center_axis',(-0.599169407845614,-0.375494368402425,0.707106781186548));
#1358=DIRECTION('ref_axis',(-0.531029228389428,0.847353502734324,0.));
#1359=DIRECTION('',(0.531029228389428,-0.847353502734324,0.));
#1360=DIRECTION('',(0.531029228389428,-0.847353502734324,0.));
#1361=DIRECTION('center_axis',(-0.847353502734324,-0.531029228389428,0.));
#1362=DIRECTION('ref_axis',(0.531029228389428,-0.847353502734324,0.));
#1363=DIRECTION('center_axis',(0.122787803968973,0.696364240320019,-0.707106781186548));
#1364=DIRECTION('ref_axis',(-0.985255774317392,0.,-0.171087869746035));
#1365=DIRECTION('',(0.122787803968973,0.696364240320019,0.707106781186547));
#1366=DIRECTION('',(0.984807753012208,-0.17364817766693,0.));
#1367=DIRECTION('',(0.122787803968973,0.696364240320019,0.707106781186547));
#1368=DIRECTION('',(-0.984807753012208,0.17364817766693,0.));
#1369=DIRECTION('center_axis',(0.17364817766693,0.984807753012208,0.));
#1370=DIRECTION('ref_axis',(-0.984807753012208,0.17364817766693,0.));
#1371=DIRECTION('',(0.,0.,1.));
#1372=DIRECTION('',(-0.984807753012208,0.17364817766693,0.));
#1373=DIRECTION('',(0.,0.,-1.));
#1374=DIRECTION('',(0.984807753012208,-0.17364817766693,0.));
#1375=DIRECTION('',(0.,0.,-1.));
#1376=DIRECTION('',(-0.984807753012208,0.17364817766693,0.));
#1377=DIRECTION('',(0.,0.,1.));
#1378=DIRECTION('center_axis',(-0.984807753012208,0.17364817766693,0.));
#1379=DIRECTION('ref_axis',(-0.17364817766693,-0.984807753012208,0.));
#1380=DIRECTION('',(-0.17364817766693,-0.984807753012208,0.));
#1381=DIRECTION('',(0.,0.,1.));
#1382=DIRECTION('',(-0.17364817766693,-0.984807753012208,0.));
#1383=DIRECTION('',(-0.144254815434028,-0.818109712163311,0.556674992332293));
#1384=DIRECTION('',(0.144254815434028,0.818109712163311,0.556674992332293));
#1385=DIRECTION('',(0.17364817766693,0.984807753012208,0.));
#1386=DIRECTION('',(0.,0.,1.));
#1387=DIRECTION('',(-0.17364817766693,-0.984807753012208,0.));
#1388=DIRECTION('',(-0.122787803968973,-0.696364240320018,0.707106781186548));
#1389=DIRECTION('',(0.,0.,-1.));
#1390=DIRECTION('',(0.17364817766693,0.984807753012208,0.));
#1391=DIRECTION('',(0.,0.,1.));
#1392=DIRECTION('',(-0.17364817766693,-0.984807753012208,0.));
#1393=DIRECTION('center_axis',(0.984807753012208,-0.17364817766693,0.));
#1394=DIRECTION('ref_axis',(0.17364817766693,0.984807753012208,0.));
#1395=DIRECTION('center_axis',(0.984807753012208,-0.17364817766693,0.));
#1396=DIRECTION('ref_axis',(0.17364817766693,0.984807753012208,0.));
#1397=DIRECTION('center_axis',(0.122787803968973,0.69636424032002,0.707106781186547));
#1398=DIRECTION('ref_axis',(0.985255774317392,0.,-0.171087869746036));
#1399=DIRECTION('',(0.984807753012208,-0.17364817766693,0.));
#1400=DIRECTION('',(-0.122787803968972,-0.696364240320018,0.707106781186548));
#1401=DIRECTION('',(-0.984807753012208,0.17364817766693,0.));
#1402=DIRECTION('center_axis',(0.,0.,1.));
#1403=DIRECTION('ref_axis',(1.,0.,0.));
#1404=DIRECTION('',(-0.948683298050514,0.316227766016838,0.));
#1405=DIRECTION('',(-1.,0.,0.));
#1406=DIRECTION('',(-0.17364817766693,-0.984807753012208,0.));
#1407=DIRECTION('center_axis',(-0.766044443118978,-0.64278760968654,0.));
#1408=DIRECTION('ref_axis',(0.,0.,1.));
#1409=DIRECTION('',(0.,0.,-1.));
#1410=DIRECTION('',(0.510273605374741,-0.608120402411347,0.608120402411336));
#1411=DIRECTION('',(0.,0.,1.));
#1412=DIRECTION('',(-0.510273605374741,0.608120402411347,0.608120402411336));
#1413=DIRECTION('center_axis',(0.599169407845612,0.375494368402423,0.70710678118655));
#1414=DIRECTION('ref_axis',(0.762934781305877,0.,-0.646475459297376));
#1415=DIRECTION('',(0.531029228389428,-0.847353502734324,0.));
#1416=DIRECTION('',(0.717527853411148,0.139960856267677,-0.68232304540592));
#1417=DIRECTION('center_axis',(0.535830358272183,-0.638577754491922,-0.552362452219517));
#1418=DIRECTION('ref_axis',(-0.717766495010695,0.,-0.696283892273879));
#1419=DIRECTION('',(-0.711530460178606,0.0106736804522989,-0.702574178847773));
#1420=DIRECTION('',(0.76604444311898,0.642787609686537,0.));
#1421=DIRECTION('',(-0.11304444450193,-0.702574178847776,0.702574178847773));
#1422=DIRECTION('center_axis',(0.535830358272184,-0.638577754491922,0.552362452219516));
#1423=DIRECTION('ref_axis',(0.717766495010694,0.,-0.69628389227388));
#1424=DIRECTION('',(0.11304444450193,0.702574178847776,0.702574178847773));
#1425=DIRECTION('',(-0.76604444311898,-0.642787609686537,0.));
#1426=DIRECTION('',(0.711530460178606,-0.0106736804523005,-0.702574178847773));
#1427=DIRECTION('center_axis',(0.642787609686537,-0.76604444311898,0.));
#1428=DIRECTION('ref_axis',(0.,0.,-1.));
#1429=DIRECTION('',(0.,0.,1.));
#1430=DIRECTION('',(0.,0.,-1.));
#1431=DIRECTION('center_axis',(0.696364240320017,-0.122787803968973,0.707106781186549));
#1432=DIRECTION('ref_axis',(0.712498293208671,0.,-0.701673843159862));
#1433=DIRECTION('',(-0.173648177666931,-0.984807753012208,0.));
#1434=DIRECTION('',(0.173648177666931,0.984807753012208,0.));
#1435=DIRECTION('center_axis',(0.,-0.707106781186546,0.707106781186549));
#1436=DIRECTION('ref_axis',(1.,0.,0.));
#1437=DIRECTION('',(1.,0.,0.));
#1438=DIRECTION('',(-1.,0.,0.));
#1439=DIRECTION('',(-0.123724030206484,-0.701673843159865,-0.701673843159862));
#1440=DIRECTION('center_axis',(0.,-0.707106781186546,-0.707106781186549));
#1441=DIRECTION('ref_axis',(-1.,0.,0.));
#1442=DIRECTION('',(1.,0.,0.));
#1443=DIRECTION('',(-1.,0.,0.));
#1444=DIRECTION('',(0.123724030206484,0.701673843159865,-0.701673843159862));
#1445=DIRECTION('center_axis',(0.696364240320017,-0.122787803968973,-0.707106781186549));
#1446=DIRECTION('ref_axis',(-0.712498293208671,0.,-0.701673843159862));
#1447=DIRECTION('',(-0.173648177666931,-0.984807753012208,0.));
#1448=DIRECTION('',(0.173648177666931,0.984807753012208,0.));
#1449=DIRECTION('',(0.717527853411148,0.139960856267677,0.68232304540592));
#1450=DIRECTION('center_axis',(0.599169407845612,0.375494368402423,-0.70710678118655));
#1451=DIRECTION('ref_axis',(-0.762934781305877,0.,-0.646475459297376));
#1452=DIRECTION('',(-0.531029228389428,0.847353502734324,0.));
#1453=DIRECTION('center_axis',(0.984807753012208,-0.173648177666931,0.));
#1454=DIRECTION('ref_axis',(0.173648177666931,0.984807753012208,0.));
#1455=DIRECTION('center_axis',(-0.984807753012208,0.173648177666931,0.));
#1456=DIRECTION('ref_axis',(0.173648177666931,0.984807753012208,0.));
#1457=DIRECTION('center_axis',(-0.984807753012208,0.173648177666931,0.));
#1458=DIRECTION('ref_axis',(0.173648177666931,0.984807753012208,0.));
#1459=DIRECTION('center_axis',(0.,-1.,0.));
#1460=DIRECTION('ref_axis',(1.,0.,0.));
#1461=DIRECTION('center_axis',(-0.17364817766693,-0.984807753012208,0.));
#1462=DIRECTION('ref_axis',(0.,0.,-1.));
#1463=DIRECTION('',(0.,0.,1.));
#1464=DIRECTION('',(0.984807753012208,-0.17364817766693,0.));
#1465=DIRECTION('',(0.,0.,-1.));
#1466=DIRECTION('',(-0.984807753012208,0.17364817766693,0.));
#1467=DIRECTION('',(0.,0.,-1.));
#1468=DIRECTION('',(-0.984807753012208,0.17364817766693,0.));
#1469=DIRECTION('center_axis',(0.984807753012208,-0.17364817766693,0.));
#1470=DIRECTION('ref_axis',(0.,0.,-1.));
#1471=DIRECTION('',(-0.17364817766693,-0.984807753012208,0.));
#1472=DIRECTION('',(-0.17364817766693,-0.984807753012208,0.));
#1473=DIRECTION('center_axis',(0.17364817766693,0.984807753012208,0.));
#1474=DIRECTION('ref_axis',(0.,0.,1.));
#1475=DIRECTION('',(-0.984807753012208,0.17364817766693,0.));
#1476=DIRECTION('',(0.,0.,-1.));
#1477=DIRECTION('',(0.984807753012208,-0.17364817766693,0.));
#1478=DIRECTION('',(0.,0.,-1.));
#1479=DIRECTION('center_axis',(0.984807753012208,-0.17364817766693,0.));
#1480=DIRECTION('ref_axis',(0.,0.,-1.));
#1481=DIRECTION('',(0.17364817766693,0.984807753012208,0.));
#1482=DIRECTION('',(-0.17364817766693,-0.984807753012208,0.));
#1483=DIRECTION('',(0.,0.,-1.));
#1484=DIRECTION('center_axis',(0.,0.,1.));
#1485=DIRECTION('ref_axis',(0.984807753012208,-0.17364817766693,0.));
#1486=DIRECTION('',(0.17364817766693,0.984807753012208,0.));
#1487=DIRECTION('',(0.17364817766693,0.984807753012208,0.));
#1488=DIRECTION('',(-0.984807753012208,0.17364817766693,0.));
#1489=DIRECTION('center_axis',(0.,0.,1.));
#1490=DIRECTION('ref_axis',(0.984807753012208,-0.17364817766693,0.));
#1491=DIRECTION('',(-0.531029228389428,0.847353502734324,0.));
#1492=DIRECTION('',(-0.17364817766693,-0.984807753012208,0.));
#1493=DIRECTION('center_axis',(-0.984807753012208,0.17364817766693,0.));
#1494=DIRECTION('ref_axis',(0.,0.,1.));
#1495=DIRECTION('',(0.,0.,-1.));
#1496=DIRECTION('',(0.17364817766693,0.984807753012208,0.));
#1497=DIRECTION('center_axis',(-0.17364817766693,-0.984807753012208,0.));
#1498=DIRECTION('ref_axis',(0.,0.,-1.));
#1499=DIRECTION('',(0.984807753012208,-0.17364817766693,0.));
#1500=DIRECTION('',(0.,0.,-1.));
#1501=DIRECTION('center_axis',(-0.984807753012208,0.17364817766693,0.));
#1502=DIRECTION('ref_axis',(0.,0.,1.));
#1503=DIRECTION('',(-0.17364817766693,-0.984807753012208,0.));
#1504=DIRECTION('center_axis',(-0.984807753012208,0.173648177666931,0.));
#1505=DIRECTION('ref_axis',(-0.173648177666931,-0.984807753012208,0.));
#1506=DIRECTION('center_axis',(-0.984807753012208,0.173648177666931,0.));
#1507=DIRECTION('ref_axis',(0.173648177666931,0.984807753012208,0.));
#1508=DIRECTION('center_axis',(-0.984807753012208,0.173648177666931,0.));
#1509=DIRECTION('ref_axis',(0.17364817766693,0.984807753012208,0.));
#1510=DIRECTION('center_axis',(0.984807753012208,-0.173648177666931,0.));
#1511=DIRECTION('ref_axis',(0.173648177666931,0.984807753012208,0.));
#1512=DIRECTION('',(0.984807753012208,-0.173648177666931,0.));
#1513=DIRECTION('center_axis',(0.984807753012208,-0.17364817766693,0.));
#1514=DIRECTION('ref_axis',(0.17364817766693,0.984807753012208,0.));
#1515=DIRECTION('',(0.984807753012208,-0.17364817766693,0.));
#1516=DIRECTION('center_axis',(-0.984807753012208,0.173648177666931,0.));
#1517=DIRECTION('ref_axis',(-0.173648177666931,-0.984807753012208,0.));
#1518=DIRECTION('center_axis',(-0.984807753012208,0.173648177666931,0.));
#1519=DIRECTION('ref_axis',(0.173648177666931,0.984807753012208,0.));
#1520=DIRECTION('center_axis',(-0.984807753012208,0.173648177666931,0.));
#1521=DIRECTION('ref_axis',(0.17364817766693,0.984807753012208,0.));
#1522=DIRECTION('center_axis',(0.984807753012208,-0.173648177666931,0.));
#1523=DIRECTION('ref_axis',(0.173648177666931,0.984807753012208,0.));
#1524=DIRECTION('',(0.984807753012208,-0.173648177666931,0.));
#1525=DIRECTION('center_axis',(0.984807753012208,-0.17364817766693,0.));
#1526=DIRECTION('ref_axis',(0.17364817766693,0.984807753012208,0.));
#1527=DIRECTION('',(0.984807753012208,-0.17364817766693,0.));
#1528=DIRECTION('center_axis',(0.,0.,1.));
#1529=DIRECTION('ref_axis',(1.,0.,0.));
#1530=DIRECTION('',(-0.531029228389428,0.847353502734324,0.));
#1531=DIRECTION('',(0.17364817766693,0.984807753012208,0.));
#1532=DIRECTION('center_axis',(0.,0.,1.));
#1533=DIRECTION('ref_axis',(1.,0.,0.));
#1534=DIRECTION('',(-0.531029228389428,0.847353502734324,0.));
#1535=DIRECTION('center_axis',(0.17364817766693,0.984807753012208,0.));
#1536=DIRECTION('ref_axis',(0.984807753012208,-0.17364817766693,0.));
#1537=DIRECTION('',(0.,0.,1.));
#1538=DIRECTION('',(0.984807753012208,-0.17364817766693,0.));
#1539=DIRECTION('center_axis',(0.,-1.,0.));
#1540=DIRECTION('ref_axis',(1.,0.,0.));
#1541=DIRECTION('',(0.,0.,1.));
#1542=DIRECTION('',(1.,0.,0.));
#1543=DIRECTION('',(0.,0.,1.));
#1544=DIRECTION('center_axis',(-0.316227766016838,-0.948683298050514,0.));
#1545=DIRECTION('ref_axis',(0.948683298050514,-0.316227766016838,0.));
#1546=DIRECTION('',(0.,0.,1.));
#1547=DIRECTION('',(0.948683298050514,-0.316227766016838,0.));
#1548=DIRECTION('center_axis',(0.,0.,1.));
#1549=DIRECTION('ref_axis',(1.,0.,0.));
#1550=DIRECTION('',(0.17364817766693,0.984807753012208,0.));
#1551=DIRECTION('center_axis',(0.,0.,-1.));
#1552=DIRECTION('ref_axis',(-1.,0.,0.));
#1553=DIRECTION('',(-0.17364817766693,-0.984807753012208,0.));
#1554=DIRECTION('',(0.531029228389428,-0.847353502734324,0.));
#1555=DIRECTION('center_axis',(0.847353502734324,0.531029228389428,0.));
#1556=DIRECTION('ref_axis',(-0.531029228389428,0.847353502734324,0.));
#1557=DIRECTION('',(0.,0.,1.));
#1558=DIRECTION('center_axis',(0.984807753012208,-0.17364817766693,0.));
#1559=DIRECTION('ref_axis',(0.17364817766693,0.984807753012208,0.));
#1560=DIRECTION('center_axis',(0.,0.,-1.));
#1561=DIRECTION('ref_axis',(-1.,0.,0.));
#1562=DIRECTION('',(0.17364817766693,0.984807753012208,0.));
#1563=DIRECTION('',(0.984807753012208,-0.17364817766693,0.));
#1564=DIRECTION('center_axis',(-0.984807753012208,0.17364817766693,0.));
#1565=DIRECTION('ref_axis',(-0.17364817766693,-0.984807753012208,0.));
#1566=DIRECTION('',(-0.17364817766693,-0.984807753012208,0.));
#1567=DIRECTION('',(0.,0.,1.));
#1568=DIRECTION('center_axis',(0.17364817766693,0.984807753012208,0.));
#1569=DIRECTION('ref_axis',(-0.984807753012208,0.17364817766693,0.));
#1570=DIRECTION('',(-0.984807753012208,0.17364817766693,0.));
#1571=DIRECTION('center_axis',(0.,0.,1.));
#1572=DIRECTION('ref_axis',(1.,0.,0.));
#1573=CARTESIAN_POINT('',(0.,0.,0.));
#1574=CARTESIAN_POINT('Origin',(39.5575775639034,42.7835730124094,0.));
#1575=CARTESIAN_POINT('',(39.6366586324896,43.1281686951903,-12.5));
#1576=CARTESIAN_POINT('',(39.6366586324896,43.1281686951903,12.5));
#1577=CARTESIAN_POINT('',(39.6366586324896,43.1281686951903,0.));
#1578=CARTESIAN_POINT('',(39.4784964953171,42.4389773296284,12.));
#1579=CARTESIAN_POINT('',(39.6366586324896,43.1281686951903,12.5));
#1580=CARTESIAN_POINT('',(39.4784964953171,42.4389773296284,-12.));
#1581=CARTESIAN_POINT('',(39.4784964953171,42.4389773296284,0.));
#1582=CARTESIAN_POINT('',(39.4784964953171,42.4389773296284,-12.));
#1583=CARTESIAN_POINT('Origin',(49.4245091114008,27.0390931212189,12.25));
#1584=CARTESIAN_POINT('',(43.8329361681105,35.490678607207,12.));
#1585=CARTESIAN_POINT('',(49.2126707357172,26.9063358141215,12.));
#1586=CARTESIAN_POINT('',(44.5221275336723,35.3325164700345,12.5));
#1587=CARTESIAN_POINT('',(49.6363474870844,27.1718504283162,12.5));
#1588=CARTESIAN_POINT('',(44.5221275336723,35.3325164700345,12.5));
#1589=CARTESIAN_POINT('Origin',(49.4245091114008,27.0390931212189,-12.25));
#1590=CARTESIAN_POINT('',(44.5221275336723,35.3325164700345,-12.5));
#1591=CARTESIAN_POINT('',(49.6363474870844,27.1718504283162,-12.5));
#1592=CARTESIAN_POINT('',(43.8329361681105,35.4906786072069,-12.));
#1593=CARTESIAN_POINT('',(49.2126707357172,26.9063358141215,-12.));
#1594=CARTESIAN_POINT('',(43.8329361681105,35.490678607207,-12.));
#1595=CARTESIAN_POINT('Origin',(44.1775318508914,35.4115975386207,0.));
#1596=CARTESIAN_POINT('',(44.5221275336723,35.3325164700345,0.));
#1597=CARTESIAN_POINT('',(43.8329361681105,35.4906786072069,0.));
#1598=CARTESIAN_POINT('Origin',(42.5454375095848,39.5224086582266,-12.));
#1599=CARTESIAN_POINT('',(39.2242904444968,42.2796685611116,-12.));
#1600=CARTESIAN_POINT('',(40.3682176731882,42.9965580194373,-12.));
#1601=CARTESIAN_POINT('',(43.5787301172902,35.3313698386901,-12.));
#1602=CARTESIAN_POINT('',(41.5342675879909,38.5936808242173,-12.));
#1603=CARTESIAN_POINT('',(44.7226573459815,36.0482592970158,-12.));
#1604=CARTESIAN_POINT('Origin',(40.3682176731882,42.9965580194373,0.));
#1605=CARTESIAN_POINT('',(39.2242904444968,42.2796685611116,12.));
#1606=CARTESIAN_POINT('',(40.3682176731882,42.9965580194373,12.));
#1607=CARTESIAN_POINT('',(39.2242904444968,42.2796685611116,0.));
#1608=CARTESIAN_POINT('Origin',(57.1933018910878,15.1133582740201,0.));
#1609=CARTESIAN_POINT('',(57.1933018910878,15.1133582740201,114.387548));
#1610=CARTESIAN_POINT('',(31.4383843142005,56.2100031566348,114.387548));
#1611=CARTESIAN_POINT('',(50.524708655796,25.7543089677755,114.387548));
#1612=CARTESIAN_POINT('',(57.1933018910878,15.1133582740201,-114.387548));
#1613=CARTESIAN_POINT('',(57.1933018910878,15.1133582740201,0.));
#1614=CARTESIAN_POINT('',(31.4383843142005,56.2100031566348,-114.387548));
#1615=CARTESIAN_POINT('',(50.524708655796,25.7543089677755,-114.387548));
#1616=CARTESIAN_POINT('',(31.4383843142005,56.2100031566348,0.));
#1617=CARTESIAN_POINT('Origin',(44.7226573459815,36.0482592970158,0.));
#1618=CARTESIAN_POINT('',(43.5787301172902,35.3313698386901,12.));
#1619=CARTESIAN_POINT('',(43.5787301172902,35.3313698386901,0.));
#1620=CARTESIAN_POINT('',(44.7226573459815,36.0482592970158,12.));
#1621=CARTESIAN_POINT('Origin',(42.5454375095848,39.5224086582266,12.));
#1622=CARTESIAN_POINT('',(41.5342675879909,38.5936808242173,12.));
#1623=CARTESIAN_POINT('Origin',(39.6757441636626,37.1339237618185,-19.5));
#1624=CARTESIAN_POINT('',(41.7710952281467,31.2481779368134,-19.5));
#1625=CARTESIAN_POINT('',(35.2925386417957,41.5858906701722,-19.5));
#1626=CARTESIAN_POINT('',(38.5318169349712,36.4170343034928,-19.5));
#1627=CARTESIAN_POINT('',(44.9063031882637,33.2129860818543,-19.5));
#1628=CARTESIAN_POINT('',(42.9150224568381,31.9650673951392,-19.5));
#1629=CARTESIAN_POINT('',(38.4277466019127,43.5506988152131,-19.5));
#1630=CARTESIAN_POINT('',(41.6670248950882,38.3818424485337,-19.5));
#1631=CARTESIAN_POINT('',(36.436465870487,42.3027801284979,-19.5));
#1632=CARTESIAN_POINT('Origin',(36.436465870487,42.3027801284979,0.));
#1633=CARTESIAN_POINT('',(35.2925386417957,41.5858906701722,19.5));
#1634=CARTESIAN_POINT('',(35.2925386417957,41.5858906701722,0.));
#1635=CARTESIAN_POINT('',(38.4277466019127,43.5506988152131,19.5));
#1636=CARTESIAN_POINT('',(38.4277466019127,43.5506988152131,0.));
#1637=CARTESIAN_POINT('',(36.436465870487,42.3027801284979,19.5));
#1638=CARTESIAN_POINT('Origin',(39.6757441636626,37.1339237618185,19.5));
#1639=CARTESIAN_POINT('',(41.7710952281467,31.2481779368134,19.5));
#1640=CARTESIAN_POINT('',(38.5318169349712,36.4170343034928,19.5));
#1641=CARTESIAN_POINT('',(44.9063031882637,33.2129860818543,19.5));
#1642=CARTESIAN_POINT('',(41.6670248950882,38.3818424485337,19.5));
#1643=CARTESIAN_POINT('',(42.9150224568381,31.9650673951392,19.5));
#1644=CARTESIAN_POINT('Origin',(42.9150224568381,31.9650673951392,0.));
#1645=CARTESIAN_POINT('',(41.7710952281467,31.2481779368134,0.));
#1646=CARTESIAN_POINT('',(44.9063031882637,33.2129860818543,0.));
#1647=CARTESIAN_POINT('Origin',(41.6670248950882,38.3818424485337,0.));
#1648=CARTESIAN_POINT('Origin',(45.3775074558173,29.2597637837487,23.1));
#1649=CARTESIAN_POINT('',(42.6207419935698,29.8924123324385,21.1));
#1650=CARTESIAN_POINT('',(42.6207419935698,29.8924123324385,-21.1));
#1651=CARTESIAN_POINT('',(42.6207419935698,29.8924123324385,23.1));
#1652=CARTESIAN_POINT('',(45.3775074558173,29.2597637837487,-23.1));
#1653=CARTESIAN_POINT('',(34.7639604261645,31.6954606962044,-15.4000000000001));
#1654=CARTESIAN_POINT('',(45.3775074558173,29.2597637837487,23.1));
#1655=CARTESIAN_POINT('',(45.3775074558173,29.2597637837487,11.55));
#1656=CARTESIAN_POINT('',(40.9207366251838,30.2825456041306,19.8666666666667));
#1657=CARTESIAN_POINT('Origin',(45.3775074558173,29.2597637837487,-23.1));
#1658=CARTESIAN_POINT('',(34.4428918763726,42.9416562745471,-21.1));
#1659=CARTESIAN_POINT('',(43.6828004503487,28.1977053269699,-21.1));
#1660=CARTESIAN_POINT('',(35.0755404250624,45.6984217367946,-23.1));
#1661=CARTESIAN_POINT('',(34.0527586046806,41.2416509061611,-19.8666666666667));
#1662=CARTESIAN_POINT('',(49.9709102813859,21.9301559850968,-23.1));
#1663=CARTESIAN_POINT('Origin',(35.0755404250624,45.6984217367946,-23.1));
#1664=CARTESIAN_POINT('',(34.4428918763726,42.9416562745471,21.1));
#1665=CARTESIAN_POINT('',(34.4428918763726,42.9416562745471,-23.1));
#1666=CARTESIAN_POINT('',(35.0755404250624,45.6984217367946,23.1));
#1667=CARTESIAN_POINT('',(32.6398435126067,35.0848747071417,15.4));
#1668=CARTESIAN_POINT('',(35.0755404250624,45.6984217367946,-11.55));
#1669=CARTESIAN_POINT('Origin',(35.0755404250624,45.6984217367946,23.1));
#1670=CARTESIAN_POINT('',(33.3808334195938,44.6363632800158,21.1));
#1671=CARTESIAN_POINT('',(44.8199267660084,30.1494849616198,23.1));
#1672=CARTESIAN_POINT('Origin',(38.5318169349712,36.4170343034928,0.));
#1673=CARTESIAN_POINT('Origin',(46.5134197813273,12.9348031932135,101.254448));
#1674=CARTESIAN_POINT('',(23.9715126745225,13.8632697771099,98.254448));
#1675=CARTESIAN_POINT('',(25.0134017405241,19.7721162951831,104.254448));
#1676=CARTESIAN_POINT('',(21.8332763902248,1.73672921192572,85.940836));
#1677=CARTESIAN_POINT('',(54.5576343308903,14.5626709651752,104.254448));
#1678=CARTESIAN_POINT('',(47.0343643143281,15.8892264522501,104.254448));
#1679=CARTESIAN_POINT('',(53.5157452648887,8.65382444710196,98.254448));
#1680=CARTESIAN_POINT('',(49.2615606221183,-15.4728555747389,73.7555750493706));
#1681=CARTESIAN_POINT('',(45.9924752483265,9.9803799341769,98.254448));
#1682=CARTESIAN_POINT('Origin',(54.5576343308903,14.5626709651752,98.254448));
#1683=CARTESIAN_POINT('',(25.0134017405241,19.7721162951831,112.387548));
#1684=CARTESIAN_POINT('',(25.0134017405241,19.7721162951831,98.254448));
#1685=CARTESIAN_POINT('',(29.9374405055851,18.9038754068485,112.387548));
#1686=CARTESIAN_POINT('',(45.6352488684045,16.1359282544924,112.387548));
#1687=CARTESIAN_POINT('',(29.9374405055851,18.9038754068485,113.887548));
#1688=CARTESIAN_POINT('',(29.9374405055851,18.9038754068485,113.087548));
#1689=CARTESIAN_POINT('',(49.6335955658293,15.4309118535099,113.887548));
#1690=CARTESIAN_POINT('',(39.7855180357072,17.1673936301792,113.887548));
#1691=CARTESIAN_POINT('',(49.6335955658293,15.4309118535099,112.387548));
#1692=CARTESIAN_POINT('',(49.6335955658293,15.4309118535099,113.087548));
#1693=CARTESIAN_POINT('',(54.5576343308903,14.5626709651752,112.387548));
#1694=CARTESIAN_POINT('',(45.6352488684045,16.1359282544924,112.387548));
#1695=CARTESIAN_POINT('',(54.5576343308903,14.5626709651752,49.127224));
#1696=CARTESIAN_POINT('Origin',(31.4383843142005,56.2100031566348,0.));
#1697=CARTESIAN_POINT('',(22.4086790755201,5.,98.254448));
#1698=CARTESIAN_POINT('',(25.0134017405241,19.7721162951831,98.254448));
#1699=CARTESIAN_POINT('',(22.4086790755201,5.,115.387548));
#1700=CARTESIAN_POINT('',(22.4086790755201,5.,0.));
#1701=CARTESIAN_POINT('',(31.1792478029129,54.7403669713704,115.387548));
#1702=CARTESIAN_POINT('',(22.4086790755201,5.,115.387548));
#1703=CARTESIAN_POINT('',(34.3925215114426,72.9637477360102,102.98762144174));
#1704=CARTESIAN_POINT('',(31.1792478029129,54.7403669713704,-115.387548));
#1705=CARTESIAN_POINT('',(34.3925215114426,72.9637477360102,-102.98762144174));
#1706=CARTESIAN_POINT('',(22.4086790755201,5.,-115.387548));
#1707=CARTESIAN_POINT('',(22.4086790755201,5.,-115.387548));
#1708=CARTESIAN_POINT('',(22.4086790755201,5.,-98.254448));
#1709=CARTESIAN_POINT('',(22.4086790755201,5.,0.));
#1710=CARTESIAN_POINT('',(23.9715126745225,13.8632697771099,-98.254448));
#1711=CARTESIAN_POINT('',(25.0134017405241,19.7721162951831,-98.254448));
#1712=CARTESIAN_POINT('',(25.0134017405241,19.7721162951831,-104.254448));
#1713=CARTESIAN_POINT('',(21.8332763902248,1.73672921192569,-85.9408359999999));
#1714=CARTESIAN_POINT('',(25.0134017405241,19.7721162951831,-112.387548));
#1715=CARTESIAN_POINT('',(25.0134017405241,19.7721162951831,-98.254448));
#1716=CARTESIAN_POINT('',(30.7905430359816,52.5359126934739,-112.387548));
#1717=CARTESIAN_POINT('',(29.1127093700216,43.0204451273726,-112.387548));
#1718=CARTESIAN_POINT('',(30.7905430359816,52.5359126934739,112.387548));
#1719=CARTESIAN_POINT('',(30.7905430359816,52.5359126934739,0.));
#1720=CARTESIAN_POINT('',(29.1127093700216,43.0204451273726,112.387548));
#1721=CARTESIAN_POINT('',(23.5420691835484,11.4277747141951,106.754448));
#1722=CARTESIAN_POINT('Origin',(23.9067303566489,13.4958709955207,106.754448));
#1723=CARTESIAN_POINT('',(23.5420691835484,11.4277747141951,-106.754448));
#1724=CARTESIAN_POINT('Origin',(23.9067303566489,13.4958709955207,-106.754448));
#1725=CARTESIAN_POINT('Origin',(31.7413034861442,15.5395258582175,-101.254448));
#1726=CARTESIAN_POINT('',(53.5157452648887,8.65382444710196,-98.254448));
#1727=CARTESIAN_POINT('',(31.2203589531434,12.5851025991809,-98.254448));
#1728=CARTESIAN_POINT('',(54.5576343308903,14.5626709651752,-104.254448));
#1729=CARTESIAN_POINT('',(49.2615606221183,-15.4728555747389,-73.7555750493706));
#1730=CARTESIAN_POINT('',(32.262248019145,18.4939491172541,-104.254448));
#1731=CARTESIAN_POINT('Origin',(38.4831567032052,11.3860581475916,-98.254448));
#1732=CARTESIAN_POINT('',(28.4086790755201,3.,-98.254448));
#1733=CARTESIAN_POINT('',(28.6842852858397,2.90813126322681,-98.254448));
#1734=CARTESIAN_POINT('',(52.5188234706755,3.,-98.254448));
#1735=CARTESIAN_POINT('',(33.4459178893627,3.,-98.254448));
#1736=CARTESIAN_POINT('',(53.0242601035026,5.86647358672084,-98.254448));
#1737=CARTESIAN_POINT('Origin',(4.64853053637645,0.492403876506105,0.));
#1738=CARTESIAN_POINT('',(4.23535462520991,0.984807753012209,115.372355753012));
#1739=CARTESIAN_POINT('',(4.23535462520991,0.984807753012209,-115.372355753012));
#1740=CARTESIAN_POINT('',(4.23535462520991,0.984807753012209,0.));
#1741=CARTESIAN_POINT('',(5.06170644754298,0.,-114.387548));
#1742=CARTESIAN_POINT('',(4.23535462520991,0.984807753012209,-115.372355753012));
#1743=CARTESIAN_POINT('',(5.06170644754298,0.,114.387548));
#1744=CARTESIAN_POINT('',(5.06170644754298,0.,0.));
#1745=CARTESIAN_POINT('',(5.06170644754298,0.,114.387548));
#1746=CARTESIAN_POINT('Origin',(50.1010319044288,25.4887943535808,114.887548));
#1747=CARTESIAN_POINT('',(56.1417063774344,14.90823423899,115.387548));
#1748=CARTESIAN_POINT('',(49.6773551530617,25.2232797393861,115.387548));
#1749=CARTESIAN_POINT('',(56.1417063774344,14.90823423899,115.387548));
#1750=CARTESIAN_POINT('Origin',(53.5284090582645,0.,-114.387548));
#1751=CARTESIAN_POINT('',(54.7020572359314,0.984807753012207,-114.387548));
#1752=CARTESIAN_POINT('',(53.6893094270872,1.,-115.387548));
#1753=CARTESIAN_POINT('',(54.7020572359314,0.984807753012211,-114.387548));
#1754=CARTESIAN_POINT('',(53.5284090582645,0.,-114.387548));
#1755=CARTESIAN_POINT('',(53.5284090582645,0.,-114.387548));
#1756=CARTESIAN_POINT('',(53.6893094270872,1.,-115.387548));
#1757=CARTESIAN_POINT('Origin',(54.7020572359314,0.984807753012207,114.387548));
#1758=CARTESIAN_POINT('',(53.5284090582645,0.,114.387548));
#1759=CARTESIAN_POINT('',(53.6893094270872,1.,115.387548));
#1760=CARTESIAN_POINT('',(53.5284090582645,0.,114.387548));
#1761=CARTESIAN_POINT('',(54.7020572359314,0.984807753012209,114.387548));
#1762=CARTESIAN_POINT('',(54.7020572359314,0.984807753012207,114.387548));
#1763=CARTESIAN_POINT('',(53.6893094270872,1.,115.387548));
#1764=CARTESIAN_POINT('Origin',(54.115233147098,0.492403876506103,0.));
#1765=CARTESIAN_POINT('',(54.7020572359314,0.984807753012207,0.));
#1766=CARTESIAN_POINT('',(53.5284090582645,0.,0.));
#1767=CARTESIAN_POINT('Origin',(56.07877411508,11.6719424020602,114.887548));
#1768=CARTESIAN_POINT('',(55.5863702385739,11.7587664908937,115.387548));
#1769=CARTESIAN_POINT('',(56.5711779915861,11.5851183132268,114.387548));
#1770=CARTESIAN_POINT('Origin',(17.3446053084292,0.5,114.887548));
#1771=CARTESIAN_POINT('',(17.3446053084292,0.,114.387548));
#1772=CARTESIAN_POINT('',(4.23803342825145,1.,115.387548));
#1773=CARTESIAN_POINT('',(17.3446053084292,1.,115.387548));
#1774=CARTESIAN_POINT('',(-0.400978009333686,-25.3091412269752,89.078406773025));
#1775=CARTESIAN_POINT('Origin',(17.3446053084292,0.5,-114.887548));
#1776=CARTESIAN_POINT('',(4.23803342825145,1.,-115.387548));
#1777=CARTESIAN_POINT('',(17.3446053084292,1.,-115.387548));
#1778=CARTESIAN_POINT('',(17.3446053084292,0.,-114.387548));
#1779=CARTESIAN_POINT('',(-0.400978009333686,-25.3091412269752,-89.078406773025));
#1780=CARTESIAN_POINT('Origin',(56.07877411508,11.6719424020602,-114.887548));
#1781=CARTESIAN_POINT('',(56.5711779915861,11.5851183132268,-114.387548));
#1782=CARTESIAN_POINT('',(56.1417063774344,14.90823423899,-115.387548));
#1783=CARTESIAN_POINT('',(55.5863702385739,11.7587664908937,-115.387548));
#1784=CARTESIAN_POINT('',(56.1417063774344,14.90823423899,-115.387548));
#1785=CARTESIAN_POINT('Origin',(50.1010319044288,25.4887943535808,-114.887548));
#1786=CARTESIAN_POINT('',(49.6773551530617,25.2232797393861,-115.387548));
#1787=CARTESIAN_POINT('Origin',(54.5284090582645,2.22044604925031E-15,0.));
#1788=CARTESIAN_POINT('',(55.3399433432448,4.60243963640522,106.754448));
#1789=CARTESIAN_POINT('Origin',(55.9129823295457,7.85230522134551,106.754448));
#1790=CARTESIAN_POINT('',(55.3399433432448,4.60243963640522,-106.754448));
#1791=CARTESIAN_POINT('Origin',(55.9129823295457,7.85230522134551,-106.754448));
#1792=CARTESIAN_POINT('Origin',(4.06170644754298,0.,0.));
#1793=CARTESIAN_POINT('Origin',(41.0010552793757,24.0610479012646,113.087548));
#1794=CARTESIAN_POINT('',(49.5839284045863,22.5476557972924,112.287548));
#1795=CARTESIAN_POINT('',(49.5839284045863,22.5476557972924,112.387548));
#1796=CARTESIAN_POINT('',(49.5839284045863,22.5476557972924,56.543774));
#1797=CARTESIAN_POINT('',(50.8491328094978,22.3245661245953,112.287548));
#1798=CARTESIAN_POINT('',(41.0010552793757,24.0610479012646,112.287548));
#1799=CARTESIAN_POINT('',(50.8491328094978,22.3245661245953,113.887548));
#1800=CARTESIAN_POINT('',(50.8491328094978,22.3245661245953,113.087548));
#1801=CARTESIAN_POINT('',(31.1529777492536,25.7975296779339,113.887548));
#1802=CARTESIAN_POINT('',(41.0010552793757,24.0610479012646,113.887548));
#1803=CARTESIAN_POINT('',(31.1529777492536,25.7975296779339,112.387548));
#1804=CARTESIAN_POINT('',(31.1529777492536,25.7975296779339,113.087548));
#1805=CARTESIAN_POINT('',(39.4647279644814,24.3319438580799,112.387548));
#1806=CARTESIAN_POINT('Origin',(30.5452091274194,22.3507025423912,113.087548));
#1807=CARTESIAN_POINT('',(31.1281411591616,25.6566743760835,112.387548));
#1808=CARTESIAN_POINT('',(30.5452091274194,22.3507025423912,113.887548));
#1809=CARTESIAN_POINT('Origin',(39.881024533424,17.7090378943359,113.887548));
#1810=CARTESIAN_POINT('',(46.7254384168589,16.5021830595507,115.387548));
#1811=CARTESIAN_POINT('',(33.0366106499892,18.915892729121,115.387548));
#1812=CARTESIAN_POINT('',(34.5048709944846,18.6569988156822,115.387548));
#1813=CARTESIAN_POINT('',(46.7254384168589,16.5021830595507,113.887548));
#1814=CARTESIAN_POINT('',(46.7254384168589,16.5021830595507,113.887548));
#1815=CARTESIAN_POINT('',(33.0366106499892,18.915892729121,113.887548));
#1816=CARTESIAN_POINT('',(39.881024533424,17.7090378943359,113.887548));
#1817=CARTESIAN_POINT('',(33.0366106499892,18.915892729121,113.887548));
#1818=CARTESIAN_POINT('Origin',(33.5488727741066,21.8210756005071,113.887548));
#1819=CARTESIAN_POINT('',(34.061134898224,24.7262584718931,115.387548));
#1820=CARTESIAN_POINT('',(34.0421350689329,24.6185050854585,115.387548));
#1821=CARTESIAN_POINT('',(34.061134898224,24.7262584718931,113.887548));
#1822=CARTESIAN_POINT('',(33.5488727741066,21.8210756005071,113.887548));
#1823=CARTESIAN_POINT('',(34.061134898224,24.7262584718931,113.887548));
#1824=CARTESIAN_POINT('Origin',(40.3932866575414,20.6142207657219,113.887548));
#1825=CARTESIAN_POINT('',(50.2413641876635,18.8777389890526,113.887548));
#1826=CARTESIAN_POINT('',(47.7499626650937,22.3125488023227,113.887548));
#1827=CARTESIAN_POINT('',(47.2377005409763,19.4073659309367,113.887548));
#1828=CARTESIAN_POINT('',(40.9055487816589,23.5194036371079,113.887548));
#1829=CARTESIAN_POINT('Origin',(40.3932866575414,20.6142207657219,112.287548));
#1830=CARTESIAN_POINT('',(50.6020180951256,20.9231089376164,112.287548));
#1831=CARTESIAN_POINT('',(51.2132702164636,19.9477452506863,112.287548));
#1832=CARTESIAN_POINT('',(50.2413641876635,18.8777389890526,112.287548));
#1833=CARTESIAN_POINT('Origin',(50.2413641876635,18.8777389890526,113.087548));
#1834=CARTESIAN_POINT('',(50.6020180951256,20.9231089376164,112.387548));
#1835=CARTESIAN_POINT('',(50.6020180951256,20.9231089376164,56.543774));
#1836=CARTESIAN_POINT('',(50.8242962194057,22.1837108227449,112.387548));
#1837=CARTESIAN_POINT('Origin',(40.9055487816589,23.5194036371079,113.887548));
#1838=CARTESIAN_POINT('',(47.7499626650937,22.3125488023227,115.387548));
#1839=CARTESIAN_POINT('',(35.5293952427195,24.4673645584542,115.387548));
#1840=CARTESIAN_POINT('',(47.7499626650937,22.3125488023227,113.887548));
#1841=CARTESIAN_POINT('Origin',(47.2377005409763,19.4073659309367,113.887548));
#1842=CARTESIAN_POINT('',(47.7309628358026,22.2047954158882,115.387548));
#1843=CARTESIAN_POINT('Origin',(53.4509629470152,8.28642566551283,-106.754448));
#1844=CARTESIAN_POINT('',(52.8779239607143,5.03656008057255,-106.754448));
#1845=CARTESIAN_POINT('Origin',(53.4509629470152,8.28642566551283,-106.754448));
#1846=CARTESIAN_POINT('',(53.0863017739146,6.21832938418719,-106.754448));
#1847=CARTESIAN_POINT('Origin',(53.4509629470152,8.28642566551283,-106.754448));
#1848=CARTESIAN_POINT('Origin',(55.6667803912926,7.89571726576224,-106.754448));
#1849=CARTESIAN_POINT('',(55.0937414049918,4.64585168082195,-106.754448));
#1850=CARTESIAN_POINT('Origin',(40.4022602196034,10.5872640195997,-106.754448));
#1851=CARTESIAN_POINT('',(40.0375990465028,8.51916773827402,-106.754448));
#1852=CARTESIAN_POINT('Origin',(53.4509629470152,8.28642566551283,106.754448));
#1853=CARTESIAN_POINT('',(52.8779239607143,5.03656008057255,106.754448));
#1854=CARTESIAN_POINT('Origin',(53.4509629470152,8.28642566551283,106.754448));
#1855=CARTESIAN_POINT('',(53.0863017739146,6.21832938418719,106.754448));
#1856=CARTESIAN_POINT('Origin',(53.4509629470152,8.28642566551283,106.754448));
#1857=CARTESIAN_POINT('Origin',(55.6667803912926,7.89571726576224,106.754448));
#1858=CARTESIAN_POINT('',(55.0937414049918,4.64585168082195,106.754448));
#1859=CARTESIAN_POINT('Origin',(40.4022602196034,10.5872640195997,106.754448));
#1860=CARTESIAN_POINT('',(40.0375990465028,8.51916773827402,106.754448));
#1861=CARTESIAN_POINT('Origin',(38.4864960912373,27.7679563467369,112.387548));
#1862=CARTESIAN_POINT('',(54.5643131069544,14.6005481864449,112.387548));
#1863=CARTESIAN_POINT('',(54.5643131069544,14.6005481864449,112.387548));
#1864=CARTESIAN_POINT('',(52.5188234706755,3.,112.387548));
#1865=CARTESIAN_POINT('Origin',(38.4864960912373,27.7679563467369,112.387548));
#1866=CARTESIAN_POINT('',(54.5643131069544,14.6005481864449,112.387548));
#1867=CARTESIAN_POINT('Origin',(25.0134017405241,19.7721162951831,-98.254448));
#1868=CARTESIAN_POINT('',(54.5576343308903,14.5626709651752,-112.387548));
#1869=CARTESIAN_POINT('',(54.5576343308903,14.5626709651752,-49.127224));
#1870=CARTESIAN_POINT('',(30.8631325732214,18.7406509194964,-112.387548));
#1871=CARTESIAN_POINT('Origin',(28.4086790755201,3.,0.));
#1872=CARTESIAN_POINT('',(28.4086790755201,3.,98.254448));
#1873=CARTESIAN_POINT('',(28.4086790755201,3.,0.));
#1874=CARTESIAN_POINT('',(52.5188234706755,3.,98.254448));
#1875=CARTESIAN_POINT('',(33.4459178893627,3.,98.254448));
#1876=CARTESIAN_POINT('',(52.5188234706755,3.,0.));
#1877=CARTESIAN_POINT('Origin',(22.4086790755201,5.,0.));
#1878=CARTESIAN_POINT('',(22.4086790755201,5.,0.));
#1879=CARTESIAN_POINT('',(28.6842852858397,2.90813126322681,98.254448));
#1880=CARTESIAN_POINT('Origin',(38.4831567032052,11.3860581475916,98.254448));
#1881=CARTESIAN_POINT('',(53.0242601035026,5.86647358672084,98.254448));
#1882=CARTESIAN_POINT('Origin',(38.4864960912373,27.7679563467369,-112.387548));
#1883=CARTESIAN_POINT('',(54.5643131069544,14.6005481864449,-112.387548));
#1884=CARTESIAN_POINT('',(52.5188234706755,3.,-112.387548));
#1885=CARTESIAN_POINT('',(54.5643131069544,14.6005481864449,-112.387548));
#1886=CARTESIAN_POINT('Origin',(54.5643131069544,14.6005481864449,0.));
#1887=CARTESIAN_POINT('',(54.5643131069544,14.6005481864449,0.));
#1888=CARTESIAN_POINT('Origin',(52.5188234706755,3.,0.));
#1889=CARTESIAN_POINT('Origin',(30.6275041693154,28.1050015783174,-115.387548));
#1890=CARTESIAN_POINT('',(5.46998572371014,7.9867486558712,-115.387548));
#1891=CARTESIAN_POINT('',(4.06170644754298,0.,-115.387548));
#1892=CARTESIAN_POINT('',(5.46998572371014,7.9867486558712,-115.387548));
#1893=CARTESIAN_POINT('Origin',(5.46998572371014,7.9867486558712,0.));
#1894=CARTESIAN_POINT('',(5.46998572371014,7.9867486558712,115.387548));
#1895=CARTESIAN_POINT('',(4.06170644754298,0.,115.387548));
#1896=CARTESIAN_POINT('',(5.46998572371014,7.9867486558712,0.));
#1897=CARTESIAN_POINT('Origin',(22.4086790755201,5.,0.));
#1898=CARTESIAN_POINT('',(5.46998572371014,7.9867486558712,115.387548));
#1899=CARTESIAN_POINT('Origin',(30.6275041693154,28.1050015783174,115.387548));
#1900=UNCERTAINTY_MEASURE_WITH_UNIT(LENGTH_MEASURE(0.01),#1904,
'DISTANCE_ACCURACY_VALUE',
'Maximum model space distance between geometric entities at asserted c
onnectivities');
#1901=UNCERTAINTY_MEASURE_WITH_UNIT(LENGTH_MEASURE(0.01),#1904,
'DISTANCE_ACCURACY_VALUE',
'Maximum model space distance between geometric entities at asserted c
onnectivities');
#1902=(
GEOMETRIC_REPRESENTATION_CONTEXT(3)
GLOBAL_UNCERTAINTY_ASSIGNED_CONTEXT((#1900))
GLOBAL_UNIT_ASSIGNED_CONTEXT((#1904,#1906,#1907))
REPRESENTATION_CONTEXT('','3D')
);
#1903=(
GEOMETRIC_REPRESENTATION_CONTEXT(3)
GLOBAL_UNCERTAINTY_ASSIGNED_CONTEXT((#1901))
GLOBAL_UNIT_ASSIGNED_CONTEXT((#1904,#1906,#1907))
REPRESENTATION_CONTEXT('','3D')
);
#1904=(
LENGTH_UNIT()
NAMED_UNIT(*)
SI_UNIT(.MILLI.,.METRE.)
);
#1905=(
LENGTH_UNIT()
NAMED_UNIT(*)
SI_UNIT($,.METRE.)
);
#1906=(
NAMED_UNIT(*)
PLANE_ANGLE_UNIT()
SI_UNIT($,.RADIAN.)
);
#1907=(
NAMED_UNIT(*)
SI_UNIT($,.STERADIAN.)
SOLID_ANGLE_UNIT()
);
#1908=SHAPE_DEFINITION_REPRESENTATION(#1909,#1910);
#1909=PRODUCT_DEFINITION_SHAPE('',$,#1912);
#1910=SHAPE_REPRESENTATION('',(#1202),#1902);
#1911=PRODUCT_DEFINITION_CONTEXT('part definition',#1916,'design');
#1912=PRODUCT_DEFINITION('2026-10-03-17-46-39-192','(Unsaved)',#1913,#1911);
#1913=PRODUCT_DEFINITION_FORMATION('',$,#1918);
#1914=PRODUCT_RELATED_PRODUCT_CATEGORY('(Unsaved)','(Unsaved)',(#1918));
#1915=APPLICATION_PROTOCOL_DEFINITION('international standard',
'automotive_design',2009,#1916);
#1916=APPLICATION_CONTEXT(
'Core Data for Automotive Mechanical Design Process');
#1917=PRODUCT_CONTEXT('part definition',#1916,'mechanical');
#1918=PRODUCT('2026-10-03-17-46-39-192','(Unsaved)',$,(#1917));
#1919=PRESENTATION_STYLE_ASSIGNMENT((#1920));
#1920=SURFACE_STYLE_USAGE(.BOTH.,#1921);
#1921=SURFACE_SIDE_STYLE('',(#1922));
#1922=SURFACE_STYLE_FILL_AREA(#1923);
#1923=FILL_AREA_STYLE('Steel - Satin',(#1924));
#1924=FILL_AREA_STYLE_COLOUR('Steel - Satin',#1925);
#1925=COLOUR_RGB('Steel - Satin',0.627450980392157,0.627450980392157,0.627450980392157);
ENDSEC;
END-ISO-10303-21;
