ISO-10303-21;
HEADER;
/* Generated by software containing ST-Developer
 * from STEP Tools, Inc. (www.steptools.com) 
 */

FILE_DESCRIPTION(
/* description */ (''),
/* implementation_level */ '2;1');

FILE_NAME(
/* name */ 'wortuhr-stand_v5.step',
/* time_stamp */ '2026-10-03T01:38:05+02:00',
/* author */ (''),
/* organization */ (''),
/* preprocessor_version */ 'ST-DEVELOPER v20.2',
/* originating_system */ 'Autodesk Translation Framework v15.15.0.0',
/* authorisation */ '');

FILE_SCHEMA (('AUTOMOTIVE_DESIGN { 1 0 10303 214 3 1 1 }'));
ENDSEC;

DATA;
#10=MECHANICAL_DESIGN_GEOMETRIC_PRESENTATION_REPRESENTATION('',(#13),#1765);
#11=SHAPE_REPRESENTATION_RELATIONSHIP('SRR','None',#1772,#12);
#12=ADVANCED_BREP_SHAPE_REPRESENTATION('',(#14),#1764);
#13=STYLED_ITEM('',(#1781),#14);
#14=MANIFOLD_SOLID_BREP('Stand_v5',#1095);
#15=CYLINDRICAL_SURFACE('',#1147,2.65);
#16=CYLINDRICAL_SURFACE('',#1156,2.65);
#17=CYLINDRICAL_SURFACE('',#1161,3.3);
#18=CYLINDRICAL_SURFACE('',#1162,2.1);
#19=CYLINDRICAL_SURFACE('',#1166,3.3);
#20=CYLINDRICAL_SURFACE('',#1167,2.1);
#21=CIRCLE('',#1126,2.1);
#22=CIRCLE('',#1127,2.1);
#23=CIRCLE('',#1141,3.3);
#24=CIRCLE('',#1142,3.3);
#25=CIRCLE('',#1148,2.65);
#26=CIRCLE('',#1149,2.65);
#27=CIRCLE('',#1151,2.65);
#28=CIRCLE('',#1157,2.65);
#29=CIRCLE('',#1159,3.3);
#30=CIRCLE('',#1160,2.1);
#31=CIRCLE('',#1164,3.3);
#32=CIRCLE('',#1165,2.1);
#33=FACE_BOUND('',#110,.T.);
#34=FACE_BOUND('',#118,.T.);
#35=FACE_BOUND('',#122,.T.);
#36=FACE_BOUND('',#123,.T.);
#37=FACE_BOUND('',#137,.T.);
#38=FACE_BOUND('',#138,.T.);
#39=FACE_BOUND('',#145,.T.);
#40=FACE_BOUND('',#152,.T.);
#41=FACE_BOUND('',#156,.T.);
#42=FACE_BOUND('',#166,.T.);
#43=FACE_BOUND('',#172,.T.);
#44=FACE_OUTER_BOUND('',#103,.T.);
#45=FACE_OUTER_BOUND('',#104,.T.);
#46=FACE_OUTER_BOUND('',#105,.T.);
#47=FACE_OUTER_BOUND('',#106,.T.);
#48=FACE_OUTER_BOUND('',#107,.T.);
#49=FACE_OUTER_BOUND('',#108,.T.);
#50=FACE_OUTER_BOUND('',#109,.T.);
#51=FACE_OUTER_BOUND('',#111,.T.);
#52=FACE_OUTER_BOUND('',#112,.T.);
#53=FACE_OUTER_BOUND('',#113,.T.);
#54=FACE_OUTER_BOUND('',#114,.T.);
#55=FACE_OUTER_BOUND('',#115,.T.);
#56=FACE_OUTER_BOUND('',#116,.T.);
#57=FACE_OUTER_BOUND('',#117,.T.);
#58=FACE_OUTER_BOUND('',#119,.T.);
#59=FACE_OUTER_BOUND('',#120,.T.);
#60=FACE_OUTER_BOUND('',#121,.T.);
#61=FACE_OUTER_BOUND('',#124,.T.);
#62=FACE_OUTER_BOUND('',#125,.T.);
#63=FACE_OUTER_BOUND('',#126,.T.);
#64=FACE_OUTER_BOUND('',#127,.T.);
#65=FACE_OUTER_BOUND('',#128,.T.);
#66=FACE_OUTER_BOUND('',#129,.T.);
#67=FACE_OUTER_BOUND('',#130,.T.);
#68=FACE_OUTER_BOUND('',#131,.T.);
#69=FACE_OUTER_BOUND('',#132,.T.);
#70=FACE_OUTER_BOUND('',#133,.T.);
#71=FACE_OUTER_BOUND('',#134,.T.);
#72=FACE_OUTER_BOUND('',#135,.T.);
#73=FACE_OUTER_BOUND('',#136,.T.);
#74=FACE_OUTER_BOUND('',#139,.T.);
#75=FACE_OUTER_BOUND('',#140,.T.);
#76=FACE_OUTER_BOUND('',#141,.T.);
#77=FACE_OUTER_BOUND('',#142,.T.);
#78=FACE_OUTER_BOUND('',#143,.T.);
#79=FACE_OUTER_BOUND('',#144,.T.);
#80=FACE_OUTER_BOUND('',#146,.T.);
#81=FACE_OUTER_BOUND('',#147,.T.);
#82=FACE_OUTER_BOUND('',#148,.T.);
#83=FACE_OUTER_BOUND('',#149,.T.);
#84=FACE_OUTER_BOUND('',#150,.T.);
#85=FACE_OUTER_BOUND('',#151,.T.);
#86=FACE_OUTER_BOUND('',#153,.T.);
#87=FACE_OUTER_BOUND('',#154,.T.);
#88=FACE_OUTER_BOUND('',#155,.T.);
#89=FACE_OUTER_BOUND('',#157,.T.);
#90=FACE_OUTER_BOUND('',#158,.T.);
#91=FACE_OUTER_BOUND('',#159,.T.);
#92=FACE_OUTER_BOUND('',#160,.T.);
#93=FACE_OUTER_BOUND('',#161,.T.);
#94=FACE_OUTER_BOUND('',#162,.T.);
#95=FACE_OUTER_BOUND('',#163,.T.);
#96=FACE_OUTER_BOUND('',#164,.T.);
#97=FACE_OUTER_BOUND('',#165,.T.);
#98=FACE_OUTER_BOUND('',#167,.T.);
#99=FACE_OUTER_BOUND('',#168,.T.);
#100=FACE_OUTER_BOUND('',#169,.T.);
#101=FACE_OUTER_BOUND('',#170,.T.);
#102=FACE_OUTER_BOUND('',#171,.T.);
#103=EDGE_LOOP('',(#687,#688,#689,#690));
#104=EDGE_LOOP('',(#691,#692,#693,#694));
#105=EDGE_LOOP('',(#695,#696,#697,#698));
#106=EDGE_LOOP('',(#699,#700,#701,#702));
#107=EDGE_LOOP('',(#703,#704,#705,#706));
#108=EDGE_LOOP('',(#707,#708,#709,#710));
#109=EDGE_LOOP('',(#711,#712,#713,#714));
#110=EDGE_LOOP('',(#715,#716,#717,#718));
#111=EDGE_LOOP('',(#719,#720,#721,#722));
#112=EDGE_LOOP('',(#723,#724,#725,#726));
#113=EDGE_LOOP('',(#727,#728,#729,#730));
#114=EDGE_LOOP('',(#731,#732,#733,#734));
#115=EDGE_LOOP('',(#735,#736,#737,#738));
#116=EDGE_LOOP('',(#739,#740,#741,#742));
#117=EDGE_LOOP('',(#743,#744,#745,#746));
#118=EDGE_LOOP('',(#747,#748,#749,#750));
#119=EDGE_LOOP('',(#751,#752,#753,#754));
#120=EDGE_LOOP('',(#755,#756,#757,#758));
#121=EDGE_LOOP('',(#759,#760,#761,#762,#763,#764,#765,#766,#767,#768,#769,
#770,#771,#772,#773,#774));
#122=EDGE_LOOP('',(#775));
#123=EDGE_LOOP('',(#776));
#124=EDGE_LOOP('',(#777,#778,#779,#780));
#125=EDGE_LOOP('',(#781,#782,#783,#784,#785));
#126=EDGE_LOOP('',(#786,#787,#788,#789));
#127=EDGE_LOOP('',(#790,#791,#792,#793));
#128=EDGE_LOOP('',(#794,#795,#796));
#129=EDGE_LOOP('',(#797,#798,#799));
#130=EDGE_LOOP('',(#800,#801,#802,#803));
#131=EDGE_LOOP('',(#804,#805,#806,#807));
#132=EDGE_LOOP('',(#808,#809,#810,#811,#812));
#133=EDGE_LOOP('',(#813,#814,#815,#816,#817));
#134=EDGE_LOOP('',(#818,#819,#820,#821));
#135=EDGE_LOOP('',(#822,#823,#824,#825));
#136=EDGE_LOOP('',(#826,#827,#828,#829));
#137=EDGE_LOOP('',(#830));
#138=EDGE_LOOP('',(#831));
#139=EDGE_LOOP('',(#832,#833,#834,#835));
#140=EDGE_LOOP('',(#836,#837,#838,#839,#840,#841));
#141=EDGE_LOOP('',(#842,#843,#844,#845));
#142=EDGE_LOOP('',(#846,#847,#848,#849));
#143=EDGE_LOOP('',(#850,#851,#852,#853));
#144=EDGE_LOOP('',(#854,#855,#856,#857));
#145=EDGE_LOOP('',(#858,#859,#860,#861));
#146=EDGE_LOOP('',(#862,#863,#864));
#147=EDGE_LOOP('',(#865,#866,#867,#868));
#148=EDGE_LOOP('',(#869,#870,#871,#872,#873,#874));
#149=EDGE_LOOP('',(#875,#876,#877,#878));
#150=EDGE_LOOP('',(#879,#880,#881,#882));
#151=EDGE_LOOP('',(#883));
#152=EDGE_LOOP('',(#884));
#153=EDGE_LOOP('',(#885,#886,#887,#888));
#154=EDGE_LOOP('',(#889,#890,#891,#892));
#155=EDGE_LOOP('',(#893));
#156=EDGE_LOOP('',(#894));
#157=EDGE_LOOP('',(#895,#896,#897,#898));
#158=EDGE_LOOP('',(#899,#900,#901,#902));
#159=EDGE_LOOP('',(#903,#904,#905,#906,#907,#908,#909,#910,#911));
#160=EDGE_LOOP('',(#912,#913,#914,#915));
#161=EDGE_LOOP('',(#916,#917,#918,#919));
#162=EDGE_LOOP('',(#920,#921,#922,#923));
#163=EDGE_LOOP('',(#924,#925,#926,#927,#928));
#164=EDGE_LOOP('',(#929,#930,#931,#932));
#165=EDGE_LOOP('',(#933,#934,#935,#936,#937,#938,#939,#940));
#166=EDGE_LOOP('',(#941,#942,#943,#944));
#167=EDGE_LOOP('',(#945,#946,#947,#948,#949,#950,#951,#952,#953,#954));
#168=EDGE_LOOP('',(#955,#956,#957,#958,#959,#960));
#169=EDGE_LOOP('',(#961,#962,#963,#964,#965,#966));
#170=EDGE_LOOP('',(#967,#968,#969,#970,#971,#972));
#171=EDGE_LOOP('',(#973,#974,#975,#976,#977,#978));
#172=EDGE_LOOP('',(#979,#980,#981,#982));
#173=LINE('',#1464,#309);
#174=LINE('',#1466,#310);
#175=LINE('',#1468,#311);
#176=LINE('',#1469,#312);
#177=LINE('',#1472,#313);
#178=LINE('',#1474,#314);
#179=LINE('',#1475,#315);
#180=LINE('',#1478,#316);
#181=LINE('',#1480,#317);
#182=LINE('',#1481,#318);
#183=LINE('',#1483,#319);
#184=LINE('',#1484,#320);
#185=LINE('',#1487,#321);
#186=LINE('',#1489,#322);
#187=LINE('',#1490,#323);
#188=LINE('',#1493,#324);
#189=LINE('',#1494,#325);
#190=LINE('',#1498,#326);
#191=LINE('',#1500,#327);
#192=LINE('',#1502,#328);
#193=LINE('',#1503,#329);
#194=LINE('',#1506,#330);
#195=LINE('',#1507,#331);
#196=LINE('',#1509,#332);
#197=LINE('',#1513,#333);
#198=LINE('',#1515,#334);
#199=LINE('',#1517,#335);
#200=LINE('',#1518,#336);
#201=LINE('',#1521,#337);
#202=LINE('',#1523,#338);
#203=LINE('',#1524,#339);
#204=LINE('',#1527,#340);
#205=LINE('',#1529,#341);
#206=LINE('',#1530,#342);
#207=LINE('',#1532,#343);
#208=LINE('',#1533,#344);
#209=LINE('',#1538,#345);
#210=LINE('',#1540,#346);
#211=LINE('',#1542,#347);
#212=LINE('',#1543,#348);
#213=LINE('',#1546,#349);
#214=LINE('',#1548,#350);
#215=LINE('',#1549,#351);
#216=LINE('',#1552,#352);
#217=LINE('',#1554,#353);
#218=LINE('',#1556,#354);
#219=LINE('',#1557,#355);
#220=LINE('',#1559,#356);
#221=LINE('',#1561,#357);
#222=LINE('',#1563,#358);
#223=LINE('',#1565,#359);
#224=LINE('',#1567,#360);
#225=LINE('',#1569,#361);
#226=LINE('',#1571,#362);
#227=LINE('',#1573,#363);
#228=LINE('',#1574,#364);
#229=LINE('',#1581,#365);
#230=LINE('',#1583,#366);
#231=LINE('',#1584,#367);
#232=LINE('',#1587,#368);
#233=LINE('',#1589,#369);
#234=LINE('',#1590,#370);
#235=LINE('',#1594,#371);
#236=LINE('',#1596,#372);
#237=LINE('',#1598,#373);
#238=LINE('',#1599,#374);
#239=LINE('',#1602,#375);
#240=LINE('',#1603,#376);
#241=LINE('',#1607,#377);
#242=LINE('',#1609,#378);
#243=LINE('',#1610,#379);
#244=LINE('',#1614,#380);
#245=LINE('',#1616,#381);
#246=LINE('',#1617,#382);
#247=LINE('',#1619,#383);
#248=LINE('',#1620,#384);
#249=LINE('',#1622,#385);
#250=LINE('',#1623,#386);
#251=LINE('',#1625,#387);
#252=LINE('',#1627,#388);
#253=LINE('',#1628,#389);
#254=LINE('',#1631,#390);
#255=LINE('',#1632,#391);
#256=LINE('',#1633,#392);
#257=LINE('',#1635,#393);
#258=LINE('',#1637,#394);
#259=LINE('',#1638,#395);
#260=LINE('',#1640,#396);
#261=LINE('',#1650,#397);
#262=LINE('',#1652,#398);
#263=LINE('',#1654,#399);
#264=LINE('',#1656,#400);
#265=LINE('',#1658,#401);
#266=LINE('',#1659,#402);
#267=LINE('',#1662,#403);
#268=LINE('',#1664,#404);
#269=LINE('',#1665,#405);
#270=LINE('',#1669,#406);
#271=LINE('',#1671,#407);
#272=LINE('',#1673,#408);
#273=LINE('',#1674,#409);
#274=LINE('',#1680,#410);
#275=LINE('',#1683,#411);
#276=LINE('',#1684,#412);
#277=LINE('',#1687,#413);
#278=LINE('',#1690,#414);
#279=LINE('',#1691,#415);
#280=LINE('',#1694,#416);
#281=LINE('',#1695,#417);
#282=LINE('',#1698,#418);
#283=LINE('',#1699,#419);
#284=LINE('',#1702,#420);
#285=LINE('',#1703,#421);
#286=LINE('',#1712,#422);
#287=LINE('',#1714,#423);
#288=LINE('',#1721,#424);
#289=LINE('',#1723,#425);
#290=LINE('',#1726,#426);
#291=LINE('',#1727,#427);
#292=LINE('',#1728,#428);
#293=LINE('',#1731,#429);
#294=LINE('',#1732,#430);
#295=LINE('',#1735,#431);
#296=LINE('',#1737,#432);
#297=LINE('',#1738,#433);
#298=LINE('',#1740,#434);
#299=LINE('',#1741,#435);
#300=LINE('',#1743,#436);
#301=LINE('',#1746,#437);
#302=LINE('',#1747,#438);
#303=LINE('',#1749,#439);
#304=LINE('',#1753,#440);
#305=LINE('',#1754,#441);
#306=LINE('',#1757,#442);
#307=LINE('',#1758,#443);
#308=LINE('',#1760,#444);
#309=VECTOR('',#1184,10.);
#310=VECTOR('',#1185,10.);
#311=VECTOR('',#1186,10.);
#312=VECTOR('',#1187,10.);
#313=VECTOR('',#1190,10.);
#314=VECTOR('',#1191,10.);
#315=VECTOR('',#1192,10.);
#316=VECTOR('',#1195,10.);
#317=VECTOR('',#1196,10.);
#318=VECTOR('',#1197,10.);
#319=VECTOR('',#1200,10.);
#320=VECTOR('',#1201,10.);
#321=VECTOR('',#1204,10.);
#322=VECTOR('',#1205,10.);
#323=VECTOR('',#1206,10.);
#324=VECTOR('',#1209,10.);
#325=VECTOR('',#1210,10.);
#326=VECTOR('',#1213,10.);
#327=VECTOR('',#1214,10.);
#328=VECTOR('',#1215,10.);
#329=VECTOR('',#1216,10.);
#330=VECTOR('',#1219,10.);
#331=VECTOR('',#1220,10.);
#332=VECTOR('',#1223,10.);
#333=VECTOR('',#1226,10.);
#334=VECTOR('',#1227,10.);
#335=VECTOR('',#1228,10.);
#336=VECTOR('',#1229,10.);
#337=VECTOR('',#1232,10.);
#338=VECTOR('',#1233,10.);
#339=VECTOR('',#1234,10.);
#340=VECTOR('',#1237,10.);
#341=VECTOR('',#1238,10.);
#342=VECTOR('',#1239,10.);
#343=VECTOR('',#1242,10.);
#344=VECTOR('',#1243,10.);
#345=VECTOR('',#1248,10.);
#346=VECTOR('',#1249,10.);
#347=VECTOR('',#1250,10.);
#348=VECTOR('',#1251,10.);
#349=VECTOR('',#1254,10.);
#350=VECTOR('',#1255,10.);
#351=VECTOR('',#1256,10.);
#352=VECTOR('',#1259,10.);
#353=VECTOR('',#1260,10.);
#354=VECTOR('',#1261,10.);
#355=VECTOR('',#1262,10.);
#356=VECTOR('',#1263,10.);
#357=VECTOR('',#1264,10.);
#358=VECTOR('',#1265,10.);
#359=VECTOR('',#1266,10.);
#360=VECTOR('',#1267,10.);
#361=VECTOR('',#1268,10.);
#362=VECTOR('',#1269,10.);
#363=VECTOR('',#1270,10.);
#364=VECTOR('',#1271,10.);
#365=VECTOR('',#1278,10.);
#366=VECTOR('',#1279,10.);
#367=VECTOR('',#1280,10.);
#368=VECTOR('',#1283,10.);
#369=VECTOR('',#1284,10.);
#370=VECTOR('',#1285,10.);
#371=VECTOR('',#1288,10.);
#372=VECTOR('',#1289,10.);
#373=VECTOR('',#1290,10.);
#374=VECTOR('',#1291,10.);
#375=VECTOR('',#1294,10.);
#376=VECTOR('',#1295,10.);
#377=VECTOR('',#1298,10.);
#378=VECTOR('',#1299,10.);
#379=VECTOR('',#1300,10.);
#380=VECTOR('',#1303,10.);
#381=VECTOR('',#1304,10.);
#382=VECTOR('',#1305,10.);
#383=VECTOR('',#1308,10.);
#384=VECTOR('',#1309,10.);
#385=VECTOR('',#1312,10.);
#386=VECTOR('',#1313,10.);
#387=VECTOR('',#1316,10.);
#388=VECTOR('',#1317,10.);
#389=VECTOR('',#1318,10.);
#390=VECTOR('',#1321,10.);
#391=VECTOR('',#1322,10.);
#392=VECTOR('',#1323,10.);
#393=VECTOR('',#1326,10.);
#394=VECTOR('',#1327,10.);
#395=VECTOR('',#1328,10.);
#396=VECTOR('',#1331,10.);
#397=VECTOR('',#1342,10.);
#398=VECTOR('',#1343,10.);
#399=VECTOR('',#1344,10.);
#400=VECTOR('',#1345,10.);
#401=VECTOR('',#1346,10.);
#402=VECTOR('',#1347,10.);
#403=VECTOR('',#1350,10.);
#404=VECTOR('',#1351,10.);
#405=VECTOR('',#1352,10.);
#406=VECTOR('',#1355,10.);
#407=VECTOR('',#1356,10.);
#408=VECTOR('',#1357,10.);
#409=VECTOR('',#1358,10.);
#410=VECTOR('',#1365,10.);
#411=VECTOR('',#1368,10.);
#412=VECTOR('',#1369,10.);
#413=VECTOR('',#1372,10.);
#414=VECTOR('',#1375,10.);
#415=VECTOR('',#1376,10.);
#416=VECTOR('',#1379,10.);
#417=VECTOR('',#1380,10.);
#418=VECTOR('',#1383,10.);
#419=VECTOR('',#1384,10.);
#420=VECTOR('',#1387,10.);
#421=VECTOR('',#1388,10.);
#422=VECTOR('',#1401,3.3);
#423=VECTOR('',#1404,2.1);
#424=VECTOR('',#1413,3.3);
#425=VECTOR('',#1416,2.1);
#426=VECTOR('',#1419,10.);
#427=VECTOR('',#1420,10.);
#428=VECTOR('',#1421,10.);
#429=VECTOR('',#1424,10.);
#430=VECTOR('',#1425,10.);
#431=VECTOR('',#1428,10.);
#432=VECTOR('',#1429,10.);
#433=VECTOR('',#1430,10.);
#434=VECTOR('',#1433,10.);
#435=VECTOR('',#1434,10.);
#436=VECTOR('',#1437,10.);
#437=VECTOR('',#1440,10.);
#438=VECTOR('',#1441,10.);
#439=VECTOR('',#1444,10.);
#440=VECTOR('',#1449,10.);
#441=VECTOR('',#1450,10.);
#442=VECTOR('',#1453,10.);
#443=VECTOR('',#1454,10.);
#444=VECTOR('',#1457,10.);
#445=VERTEX_POINT('',#1462);
#446=VERTEX_POINT('',#1463);
#447=VERTEX_POINT('',#1465);
#448=VERTEX_POINT('',#1467);
#449=VERTEX_POINT('',#1471);
#450=VERTEX_POINT('',#1473);
#451=VERTEX_POINT('',#1477);
#452=VERTEX_POINT('',#1479);
#453=VERTEX_POINT('',#1486);
#454=VERTEX_POINT('',#1488);
#455=VERTEX_POINT('',#1492);
#456=VERTEX_POINT('',#1496);
#457=VERTEX_POINT('',#1497);
#458=VERTEX_POINT('',#1499);
#459=VERTEX_POINT('',#1501);
#460=VERTEX_POINT('',#1505);
#461=VERTEX_POINT('',#1511);
#462=VERTEX_POINT('',#1512);
#463=VERTEX_POINT('',#1514);
#464=VERTEX_POINT('',#1516);
#465=VERTEX_POINT('',#1520);
#466=VERTEX_POINT('',#1522);
#467=VERTEX_POINT('',#1526);
#468=VERTEX_POINT('',#1528);
#469=VERTEX_POINT('',#1536);
#470=VERTEX_POINT('',#1537);
#471=VERTEX_POINT('',#1539);
#472=VERTEX_POINT('',#1541);
#473=VERTEX_POINT('',#1545);
#474=VERTEX_POINT('',#1547);
#475=VERTEX_POINT('',#1551);
#476=VERTEX_POINT('',#1553);
#477=VERTEX_POINT('',#1555);
#478=VERTEX_POINT('',#1558);
#479=VERTEX_POINT('',#1560);
#480=VERTEX_POINT('',#1562);
#481=VERTEX_POINT('',#1564);
#482=VERTEX_POINT('',#1566);
#483=VERTEX_POINT('',#1568);
#484=VERTEX_POINT('',#1570);
#485=VERTEX_POINT('',#1572);
#486=VERTEX_POINT('',#1575);
#487=VERTEX_POINT('',#1577);
#488=VERTEX_POINT('',#1580);
#489=VERTEX_POINT('',#1582);
#490=VERTEX_POINT('',#1586);
#491=VERTEX_POINT('',#1588);
#492=VERTEX_POINT('',#1592);
#493=VERTEX_POINT('',#1593);
#494=VERTEX_POINT('',#1595);
#495=VERTEX_POINT('',#1597);
#496=VERTEX_POINT('',#1601);
#497=VERTEX_POINT('',#1605);
#498=VERTEX_POINT('',#1606);
#499=VERTEX_POINT('',#1608);
#500=VERTEX_POINT('',#1612);
#501=VERTEX_POINT('',#1613);
#502=VERTEX_POINT('',#1615);
#503=VERTEX_POINT('',#1626);
#504=VERTEX_POINT('',#1630);
#505=VERTEX_POINT('',#1636);
#506=VERTEX_POINT('',#1642);
#507=VERTEX_POINT('',#1644);
#508=VERTEX_POINT('',#1648);
#509=VERTEX_POINT('',#1649);
#510=VERTEX_POINT('',#1651);
#511=VERTEX_POINT('',#1653);
#512=VERTEX_POINT('',#1655);
#513=VERTEX_POINT('',#1657);
#514=VERTEX_POINT('',#1661);
#515=VERTEX_POINT('',#1663);
#516=VERTEX_POINT('',#1667);
#517=VERTEX_POINT('',#1668);
#518=VERTEX_POINT('',#1670);
#519=VERTEX_POINT('',#1672);
#520=VERTEX_POINT('',#1676);
#521=VERTEX_POINT('',#1678);
#522=VERTEX_POINT('',#1682);
#523=VERTEX_POINT('',#1685);
#524=VERTEX_POINT('',#1689);
#525=VERTEX_POINT('',#1693);
#526=VERTEX_POINT('',#1697);
#527=VERTEX_POINT('',#1701);
#528=VERTEX_POINT('',#1707);
#529=VERTEX_POINT('',#1709);
#530=VERTEX_POINT('',#1716);
#531=VERTEX_POINT('',#1718);
#532=VERTEX_POINT('',#1725);
#533=VERTEX_POINT('',#1730);
#534=VERTEX_POINT('',#1734);
#535=VERTEX_POINT('',#1736);
#536=VERTEX_POINT('',#1745);
#537=VERTEX_POINT('',#1752);
#538=VERTEX_POINT('',#1756);
#539=EDGE_CURVE('',#445,#446,#173,.T.);
#540=EDGE_CURVE('',#446,#447,#174,.T.);
#541=EDGE_CURVE('',#447,#448,#175,.T.);
#542=EDGE_CURVE('',#448,#445,#176,.T.);
#543=EDGE_CURVE('',#449,#447,#177,.T.);
#544=EDGE_CURVE('',#446,#450,#178,.T.);
#545=EDGE_CURVE('',#450,#449,#179,.T.);
#546=EDGE_CURVE('',#451,#445,#180,.T.);
#547=EDGE_CURVE('',#448,#452,#181,.T.);
#548=EDGE_CURVE('',#452,#451,#182,.T.);
#549=EDGE_CURVE('',#450,#451,#183,.T.);
#550=EDGE_CURVE('',#452,#449,#184,.T.);
#551=EDGE_CURVE('',#453,#448,#185,.T.);
#552=EDGE_CURVE('',#453,#454,#186,.T.);
#553=EDGE_CURVE('',#452,#454,#187,.T.);
#554=EDGE_CURVE('',#447,#455,#188,.T.);
#555=EDGE_CURVE('',#455,#453,#189,.T.);
#556=EDGE_CURVE('',#456,#457,#190,.T.);
#557=EDGE_CURVE('',#458,#456,#191,.T.);
#558=EDGE_CURVE('',#459,#458,#192,.T.);
#559=EDGE_CURVE('',#459,#457,#193,.T.);
#560=EDGE_CURVE('',#454,#460,#194,.T.);
#561=EDGE_CURVE('',#460,#449,#195,.T.);
#562=EDGE_CURVE('',#460,#455,#196,.T.);
#563=EDGE_CURVE('',#461,#462,#197,.T.);
#564=EDGE_CURVE('',#463,#461,#198,.T.);
#565=EDGE_CURVE('',#464,#463,#199,.T.);
#566=EDGE_CURVE('',#462,#464,#200,.T.);
#567=EDGE_CURVE('',#462,#465,#201,.T.);
#568=EDGE_CURVE('',#464,#466,#202,.T.);
#569=EDGE_CURVE('',#466,#465,#203,.T.);
#570=EDGE_CURVE('',#465,#467,#204,.T.);
#571=EDGE_CURVE('',#468,#466,#205,.T.);
#572=EDGE_CURVE('',#467,#468,#206,.T.);
#573=EDGE_CURVE('',#467,#461,#207,.T.);
#574=EDGE_CURVE('',#463,#468,#208,.T.);
#575=EDGE_CURVE('',#469,#470,#209,.T.);
#576=EDGE_CURVE('',#470,#471,#210,.T.);
#577=EDGE_CURVE('',#471,#472,#211,.F.);
#578=EDGE_CURVE('',#472,#469,#212,.T.);
#579=EDGE_CURVE('',#470,#473,#213,.T.);
#580=EDGE_CURVE('',#474,#473,#214,.T.);
#581=EDGE_CURVE('',#471,#474,#215,.T.);
#582=EDGE_CURVE('',#469,#475,#216,.T.);
#583=EDGE_CURVE('',#475,#476,#217,.T.);
#584=EDGE_CURVE('',#477,#476,#218,.T.);
#585=EDGE_CURVE('',#457,#477,#219,.T.);
#586=EDGE_CURVE('',#478,#459,#220,.T.);
#587=EDGE_CURVE('',#479,#478,#221,.T.);
#588=EDGE_CURVE('',#479,#480,#222,.T.);
#589=EDGE_CURVE('',#481,#480,#223,.T.);
#590=EDGE_CURVE('',#482,#481,#224,.T.);
#591=EDGE_CURVE('',#482,#483,#225,.T.);
#592=EDGE_CURVE('',#483,#484,#226,.T.);
#593=EDGE_CURVE('',#484,#485,#227,.T.);
#594=EDGE_CURVE('',#485,#473,#228,.T.);
#595=EDGE_CURVE('',#486,#486,#21,.T.);
#596=EDGE_CURVE('',#487,#487,#22,.T.);
#597=EDGE_CURVE('',#481,#488,#229,.T.);
#598=EDGE_CURVE('',#488,#489,#230,.F.);
#599=EDGE_CURVE('',#489,#482,#231,.T.);
#600=EDGE_CURVE('',#490,#480,#232,.T.);
#601=EDGE_CURVE('',#491,#490,#233,.T.);
#602=EDGE_CURVE('',#488,#491,#234,.T.);
#603=EDGE_CURVE('',#492,#493,#235,.T.);
#604=EDGE_CURVE('',#493,#494,#236,.T.);
#605=EDGE_CURVE('',#494,#495,#237,.T.);
#606=EDGE_CURVE('',#495,#492,#238,.T.);
#607=EDGE_CURVE('',#477,#496,#239,.T.);
#608=EDGE_CURVE('',#496,#456,#240,.T.);
#609=EDGE_CURVE('',#497,#498,#241,.T.);
#610=EDGE_CURVE('',#499,#497,#242,.T.);
#611=EDGE_CURVE('',#498,#499,#243,.T.);
#612=EDGE_CURVE('',#500,#501,#244,.T.);
#613=EDGE_CURVE('',#502,#500,#245,.T.);
#614=EDGE_CURVE('',#501,#502,#246,.T.);
#615=EDGE_CURVE('',#497,#502,#247,.T.);
#616=EDGE_CURVE('',#500,#499,#248,.T.);
#617=EDGE_CURVE('',#496,#501,#249,.T.);
#618=EDGE_CURVE('',#502,#456,#250,.T.);
#619=EDGE_CURVE('',#495,#500,#251,.T.);
#620=EDGE_CURVE('',#501,#503,#252,.T.);
#621=EDGE_CURVE('',#503,#492,#253,.T.);
#622=EDGE_CURVE('',#504,#498,#254,.T.);
#623=EDGE_CURVE('',#499,#494,#255,.T.);
#624=EDGE_CURVE('',#493,#504,#256,.T.);
#625=EDGE_CURVE('',#458,#497,#257,.T.);
#626=EDGE_CURVE('',#498,#505,#258,.T.);
#627=EDGE_CURVE('',#505,#458,#259,.T.);
#628=EDGE_CURVE('',#505,#478,#260,.T.);
#629=EDGE_CURVE('',#506,#506,#23,.T.);
#630=EDGE_CURVE('',#507,#507,#24,.T.);
#631=EDGE_CURVE('',#508,#509,#261,.T.);
#632=EDGE_CURVE('',#508,#510,#262,.T.);
#633=EDGE_CURVE('',#511,#510,#263,.T.);
#634=EDGE_CURVE('',#511,#512,#264,.T.);
#635=EDGE_CURVE('',#512,#513,#265,.T.);
#636=EDGE_CURVE('',#509,#513,#266,.T.);
#637=EDGE_CURVE('',#513,#514,#267,.T.);
#638=EDGE_CURVE('',#512,#515,#268,.T.);
#639=EDGE_CURVE('',#515,#514,#269,.T.);
#640=EDGE_CURVE('',#516,#517,#270,.T.);
#641=EDGE_CURVE('',#516,#518,#271,.T.);
#642=EDGE_CURVE('',#519,#518,#272,.T.);
#643=EDGE_CURVE('',#517,#519,#273,.T.);
#644=EDGE_CURVE('',#517,#520,#25,.T.);
#645=EDGE_CURVE('',#521,#519,#26,.T.);
#646=EDGE_CURVE('',#520,#521,#274,.T.);
#647=EDGE_CURVE('',#522,#511,#275,.T.);
#648=EDGE_CURVE('',#515,#522,#276,.T.);
#649=EDGE_CURVE('',#518,#523,#27,.T.);
#650=EDGE_CURVE('',#523,#521,#277,.T.);
#651=EDGE_CURVE('',#524,#508,#278,.T.);
#652=EDGE_CURVE('',#510,#524,#279,.T.);
#653=EDGE_CURVE('',#514,#525,#280,.T.);
#654=EDGE_CURVE('',#522,#525,#281,.T.);
#655=EDGE_CURVE('',#526,#524,#282,.T.);
#656=EDGE_CURVE('',#525,#526,#283,.T.);
#657=EDGE_CURVE('',#520,#527,#284,.T.);
#658=EDGE_CURVE('',#527,#523,#285,.T.);
#659=EDGE_CURVE('',#527,#516,#28,.T.);
#660=EDGE_CURVE('',#528,#528,#29,.T.);
#661=EDGE_CURVE('',#529,#529,#30,.T.);
#662=EDGE_CURVE('',#528,#507,#286,.T.);
#663=EDGE_CURVE('',#487,#529,#287,.T.);
#664=EDGE_CURVE('',#530,#530,#31,.T.);
#665=EDGE_CURVE('',#531,#531,#32,.T.);
#666=EDGE_CURVE('',#530,#506,#288,.T.);
#667=EDGE_CURVE('',#486,#531,#289,.T.);
#668=EDGE_CURVE('',#532,#526,#290,.T.);
#669=EDGE_CURVE('',#474,#532,#291,.T.);
#670=EDGE_CURVE('',#509,#485,#292,.T.);
#671=EDGE_CURVE('',#533,#489,#293,.T.);
#672=EDGE_CURVE('',#483,#533,#294,.T.);
#673=EDGE_CURVE('',#490,#534,#295,.T.);
#674=EDGE_CURVE('',#534,#535,#296,.T.);
#675=EDGE_CURVE('',#491,#535,#297,.T.);
#676=EDGE_CURVE('',#480,#475,#298,.T.);
#677=EDGE_CURVE('',#475,#534,#299,.T.);
#678=EDGE_CURVE('',#535,#472,#300,.T.);
#679=EDGE_CURVE('',#536,#533,#301,.T.);
#680=EDGE_CURVE('',#484,#536,#302,.T.);
#681=EDGE_CURVE('',#536,#532,#303,.T.);
#682=EDGE_CURVE('',#504,#537,#304,.T.);
#683=EDGE_CURVE('',#537,#479,#305,.T.);
#684=EDGE_CURVE('',#538,#503,#306,.T.);
#685=EDGE_CURVE('',#537,#538,#307,.T.);
#686=EDGE_CURVE('',#476,#538,#308,.T.);
#687=ORIENTED_EDGE('',*,*,#539,.T.);
#688=ORIENTED_EDGE('',*,*,#540,.T.);
#689=ORIENTED_EDGE('',*,*,#541,.T.);
#690=ORIENTED_EDGE('',*,*,#542,.T.);
#691=ORIENTED_EDGE('',*,*,#543,.T.);
#692=ORIENTED_EDGE('',*,*,#540,.F.);
#693=ORIENTED_EDGE('',*,*,#544,.T.);
#694=ORIENTED_EDGE('',*,*,#545,.T.);
#695=ORIENTED_EDGE('',*,*,#546,.T.);
#696=ORIENTED_EDGE('',*,*,#542,.F.);
#697=ORIENTED_EDGE('',*,*,#547,.T.);
#698=ORIENTED_EDGE('',*,*,#548,.T.);
#699=ORIENTED_EDGE('',*,*,#549,.T.);
#700=ORIENTED_EDGE('',*,*,#548,.F.);
#701=ORIENTED_EDGE('',*,*,#550,.T.);
#702=ORIENTED_EDGE('',*,*,#545,.F.);
#703=ORIENTED_EDGE('',*,*,#547,.F.);
#704=ORIENTED_EDGE('',*,*,#551,.F.);
#705=ORIENTED_EDGE('',*,*,#552,.T.);
#706=ORIENTED_EDGE('',*,*,#553,.F.);
#707=ORIENTED_EDGE('',*,*,#541,.F.);
#708=ORIENTED_EDGE('',*,*,#554,.T.);
#709=ORIENTED_EDGE('',*,*,#555,.T.);
#710=ORIENTED_EDGE('',*,*,#551,.T.);
#711=ORIENTED_EDGE('',*,*,#556,.F.);
#712=ORIENTED_EDGE('',*,*,#557,.F.);
#713=ORIENTED_EDGE('',*,*,#558,.F.);
#714=ORIENTED_EDGE('',*,*,#559,.T.);
#715=ORIENTED_EDGE('',*,*,#539,.F.);
#716=ORIENTED_EDGE('',*,*,#546,.F.);
#717=ORIENTED_EDGE('',*,*,#549,.F.);
#718=ORIENTED_EDGE('',*,*,#544,.F.);
#719=ORIENTED_EDGE('',*,*,#550,.F.);
#720=ORIENTED_EDGE('',*,*,#553,.T.);
#721=ORIENTED_EDGE('',*,*,#560,.T.);
#722=ORIENTED_EDGE('',*,*,#561,.T.);
#723=ORIENTED_EDGE('',*,*,#543,.F.);
#724=ORIENTED_EDGE('',*,*,#561,.F.);
#725=ORIENTED_EDGE('',*,*,#562,.T.);
#726=ORIENTED_EDGE('',*,*,#554,.F.);
#727=ORIENTED_EDGE('',*,*,#563,.F.);
#728=ORIENTED_EDGE('',*,*,#564,.F.);
#729=ORIENTED_EDGE('',*,*,#565,.F.);
#730=ORIENTED_EDGE('',*,*,#566,.F.);
#731=ORIENTED_EDGE('',*,*,#567,.F.);
#732=ORIENTED_EDGE('',*,*,#566,.T.);
#733=ORIENTED_EDGE('',*,*,#568,.T.);
#734=ORIENTED_EDGE('',*,*,#569,.T.);
#735=ORIENTED_EDGE('',*,*,#570,.F.);
#736=ORIENTED_EDGE('',*,*,#569,.F.);
#737=ORIENTED_EDGE('',*,*,#571,.F.);
#738=ORIENTED_EDGE('',*,*,#572,.F.);
#739=ORIENTED_EDGE('',*,*,#573,.F.);
#740=ORIENTED_EDGE('',*,*,#572,.T.);
#741=ORIENTED_EDGE('',*,*,#574,.F.);
#742=ORIENTED_EDGE('',*,*,#564,.T.);
#743=ORIENTED_EDGE('',*,*,#568,.F.);
#744=ORIENTED_EDGE('',*,*,#565,.T.);
#745=ORIENTED_EDGE('',*,*,#574,.T.);
#746=ORIENTED_EDGE('',*,*,#571,.T.);
#747=ORIENTED_EDGE('',*,*,#562,.F.);
#748=ORIENTED_EDGE('',*,*,#560,.F.);
#749=ORIENTED_EDGE('',*,*,#552,.F.);
#750=ORIENTED_EDGE('',*,*,#555,.F.);
#751=ORIENTED_EDGE('',*,*,#575,.T.);
#752=ORIENTED_EDGE('',*,*,#576,.T.);
#753=ORIENTED_EDGE('',*,*,#577,.T.);
#754=ORIENTED_EDGE('',*,*,#578,.T.);
#755=ORIENTED_EDGE('',*,*,#576,.F.);
#756=ORIENTED_EDGE('',*,*,#579,.T.);
#757=ORIENTED_EDGE('',*,*,#580,.F.);
#758=ORIENTED_EDGE('',*,*,#581,.F.);
#759=ORIENTED_EDGE('',*,*,#575,.F.);
#760=ORIENTED_EDGE('',*,*,#582,.T.);
#761=ORIENTED_EDGE('',*,*,#583,.T.);
#762=ORIENTED_EDGE('',*,*,#584,.F.);
#763=ORIENTED_EDGE('',*,*,#585,.F.);
#764=ORIENTED_EDGE('',*,*,#559,.F.);
#765=ORIENTED_EDGE('',*,*,#586,.F.);
#766=ORIENTED_EDGE('',*,*,#587,.F.);
#767=ORIENTED_EDGE('',*,*,#588,.T.);
#768=ORIENTED_EDGE('',*,*,#589,.F.);
#769=ORIENTED_EDGE('',*,*,#590,.F.);
#770=ORIENTED_EDGE('',*,*,#591,.T.);
#771=ORIENTED_EDGE('',*,*,#592,.T.);
#772=ORIENTED_EDGE('',*,*,#593,.T.);
#773=ORIENTED_EDGE('',*,*,#594,.T.);
#774=ORIENTED_EDGE('',*,*,#579,.F.);
#775=ORIENTED_EDGE('',*,*,#595,.T.);
#776=ORIENTED_EDGE('',*,*,#596,.T.);
#777=ORIENTED_EDGE('',*,*,#590,.T.);
#778=ORIENTED_EDGE('',*,*,#597,.T.);
#779=ORIENTED_EDGE('',*,*,#598,.T.);
#780=ORIENTED_EDGE('',*,*,#599,.T.);
#781=ORIENTED_EDGE('',*,*,#597,.F.);
#782=ORIENTED_EDGE('',*,*,#589,.T.);
#783=ORIENTED_EDGE('',*,*,#600,.F.);
#784=ORIENTED_EDGE('',*,*,#601,.F.);
#785=ORIENTED_EDGE('',*,*,#602,.F.);
#786=ORIENTED_EDGE('',*,*,#603,.T.);
#787=ORIENTED_EDGE('',*,*,#604,.T.);
#788=ORIENTED_EDGE('',*,*,#605,.T.);
#789=ORIENTED_EDGE('',*,*,#606,.T.);
#790=ORIENTED_EDGE('',*,*,#556,.T.);
#791=ORIENTED_EDGE('',*,*,#585,.T.);
#792=ORIENTED_EDGE('',*,*,#607,.T.);
#793=ORIENTED_EDGE('',*,*,#608,.T.);
#794=ORIENTED_EDGE('',*,*,#609,.F.);
#795=ORIENTED_EDGE('',*,*,#610,.F.);
#796=ORIENTED_EDGE('',*,*,#611,.F.);
#797=ORIENTED_EDGE('',*,*,#612,.F.);
#798=ORIENTED_EDGE('',*,*,#613,.F.);
#799=ORIENTED_EDGE('',*,*,#614,.F.);
#800=ORIENTED_EDGE('',*,*,#610,.T.);
#801=ORIENTED_EDGE('',*,*,#615,.T.);
#802=ORIENTED_EDGE('',*,*,#613,.T.);
#803=ORIENTED_EDGE('',*,*,#616,.T.);
#804=ORIENTED_EDGE('',*,*,#617,.T.);
#805=ORIENTED_EDGE('',*,*,#614,.T.);
#806=ORIENTED_EDGE('',*,*,#618,.T.);
#807=ORIENTED_EDGE('',*,*,#608,.F.);
#808=ORIENTED_EDGE('',*,*,#619,.T.);
#809=ORIENTED_EDGE('',*,*,#612,.T.);
#810=ORIENTED_EDGE('',*,*,#620,.T.);
#811=ORIENTED_EDGE('',*,*,#621,.T.);
#812=ORIENTED_EDGE('',*,*,#606,.F.);
#813=ORIENTED_EDGE('',*,*,#622,.T.);
#814=ORIENTED_EDGE('',*,*,#611,.T.);
#815=ORIENTED_EDGE('',*,*,#623,.T.);
#816=ORIENTED_EDGE('',*,*,#604,.F.);
#817=ORIENTED_EDGE('',*,*,#624,.T.);
#818=ORIENTED_EDGE('',*,*,#625,.T.);
#819=ORIENTED_EDGE('',*,*,#609,.T.);
#820=ORIENTED_EDGE('',*,*,#626,.T.);
#821=ORIENTED_EDGE('',*,*,#627,.T.);
#822=ORIENTED_EDGE('',*,*,#628,.T.);
#823=ORIENTED_EDGE('',*,*,#586,.T.);
#824=ORIENTED_EDGE('',*,*,#558,.T.);
#825=ORIENTED_EDGE('',*,*,#627,.F.);
#826=ORIENTED_EDGE('',*,*,#618,.F.);
#827=ORIENTED_EDGE('',*,*,#615,.F.);
#828=ORIENTED_EDGE('',*,*,#625,.F.);
#829=ORIENTED_EDGE('',*,*,#557,.T.);
#830=ORIENTED_EDGE('',*,*,#629,.T.);
#831=ORIENTED_EDGE('',*,*,#630,.T.);
#832=ORIENTED_EDGE('',*,*,#616,.F.);
#833=ORIENTED_EDGE('',*,*,#619,.F.);
#834=ORIENTED_EDGE('',*,*,#605,.F.);
#835=ORIENTED_EDGE('',*,*,#623,.F.);
#836=ORIENTED_EDGE('',*,*,#631,.F.);
#837=ORIENTED_EDGE('',*,*,#632,.T.);
#838=ORIENTED_EDGE('',*,*,#633,.F.);
#839=ORIENTED_EDGE('',*,*,#634,.T.);
#840=ORIENTED_EDGE('',*,*,#635,.T.);
#841=ORIENTED_EDGE('',*,*,#636,.F.);
#842=ORIENTED_EDGE('',*,*,#637,.F.);
#843=ORIENTED_EDGE('',*,*,#635,.F.);
#844=ORIENTED_EDGE('',*,*,#638,.T.);
#845=ORIENTED_EDGE('',*,*,#639,.T.);
#846=ORIENTED_EDGE('',*,*,#640,.F.);
#847=ORIENTED_EDGE('',*,*,#641,.T.);
#848=ORIENTED_EDGE('',*,*,#642,.F.);
#849=ORIENTED_EDGE('',*,*,#643,.F.);
#850=ORIENTED_EDGE('',*,*,#644,.F.);
#851=ORIENTED_EDGE('',*,*,#643,.T.);
#852=ORIENTED_EDGE('',*,*,#645,.F.);
#853=ORIENTED_EDGE('',*,*,#646,.F.);
#854=ORIENTED_EDGE('',*,*,#647,.F.);
#855=ORIENTED_EDGE('',*,*,#648,.F.);
#856=ORIENTED_EDGE('',*,*,#638,.F.);
#857=ORIENTED_EDGE('',*,*,#634,.F.);
#858=ORIENTED_EDGE('',*,*,#645,.T.);
#859=ORIENTED_EDGE('',*,*,#642,.T.);
#860=ORIENTED_EDGE('',*,*,#649,.T.);
#861=ORIENTED_EDGE('',*,*,#650,.T.);
#862=ORIENTED_EDGE('',*,*,#651,.F.);
#863=ORIENTED_EDGE('',*,*,#652,.F.);
#864=ORIENTED_EDGE('',*,*,#632,.F.);
#865=ORIENTED_EDGE('',*,*,#653,.F.);
#866=ORIENTED_EDGE('',*,*,#639,.F.);
#867=ORIENTED_EDGE('',*,*,#648,.T.);
#868=ORIENTED_EDGE('',*,*,#654,.T.);
#869=ORIENTED_EDGE('',*,*,#655,.F.);
#870=ORIENTED_EDGE('',*,*,#656,.F.);
#871=ORIENTED_EDGE('',*,*,#654,.F.);
#872=ORIENTED_EDGE('',*,*,#647,.T.);
#873=ORIENTED_EDGE('',*,*,#633,.T.);
#874=ORIENTED_EDGE('',*,*,#652,.T.);
#875=ORIENTED_EDGE('',*,*,#657,.F.);
#876=ORIENTED_EDGE('',*,*,#646,.T.);
#877=ORIENTED_EDGE('',*,*,#650,.F.);
#878=ORIENTED_EDGE('',*,*,#658,.F.);
#879=ORIENTED_EDGE('',*,*,#659,.F.);
#880=ORIENTED_EDGE('',*,*,#658,.T.);
#881=ORIENTED_EDGE('',*,*,#649,.F.);
#882=ORIENTED_EDGE('',*,*,#641,.F.);
#883=ORIENTED_EDGE('',*,*,#660,.F.);
#884=ORIENTED_EDGE('',*,*,#661,.T.);
#885=ORIENTED_EDGE('',*,*,#660,.T.);
#886=ORIENTED_EDGE('',*,*,#662,.T.);
#887=ORIENTED_EDGE('',*,*,#630,.F.);
#888=ORIENTED_EDGE('',*,*,#662,.F.);
#889=ORIENTED_EDGE('',*,*,#596,.F.);
#890=ORIENTED_EDGE('',*,*,#663,.T.);
#891=ORIENTED_EDGE('',*,*,#661,.F.);
#892=ORIENTED_EDGE('',*,*,#663,.F.);
#893=ORIENTED_EDGE('',*,*,#664,.F.);
#894=ORIENTED_EDGE('',*,*,#665,.T.);
#895=ORIENTED_EDGE('',*,*,#664,.T.);
#896=ORIENTED_EDGE('',*,*,#666,.T.);
#897=ORIENTED_EDGE('',*,*,#629,.F.);
#898=ORIENTED_EDGE('',*,*,#666,.F.);
#899=ORIENTED_EDGE('',*,*,#595,.F.);
#900=ORIENTED_EDGE('',*,*,#667,.T.);
#901=ORIENTED_EDGE('',*,*,#665,.F.);
#902=ORIENTED_EDGE('',*,*,#667,.F.);
#903=ORIENTED_EDGE('',*,*,#636,.T.);
#904=ORIENTED_EDGE('',*,*,#637,.T.);
#905=ORIENTED_EDGE('',*,*,#653,.T.);
#906=ORIENTED_EDGE('',*,*,#656,.T.);
#907=ORIENTED_EDGE('',*,*,#668,.F.);
#908=ORIENTED_EDGE('',*,*,#669,.F.);
#909=ORIENTED_EDGE('',*,*,#580,.T.);
#910=ORIENTED_EDGE('',*,*,#594,.F.);
#911=ORIENTED_EDGE('',*,*,#670,.F.);
#912=ORIENTED_EDGE('',*,*,#599,.F.);
#913=ORIENTED_EDGE('',*,*,#671,.F.);
#914=ORIENTED_EDGE('',*,*,#672,.F.);
#915=ORIENTED_EDGE('',*,*,#591,.F.);
#916=ORIENTED_EDGE('',*,*,#601,.T.);
#917=ORIENTED_EDGE('',*,*,#673,.T.);
#918=ORIENTED_EDGE('',*,*,#674,.T.);
#919=ORIENTED_EDGE('',*,*,#675,.F.);
#920=ORIENTED_EDGE('',*,*,#600,.T.);
#921=ORIENTED_EDGE('',*,*,#676,.T.);
#922=ORIENTED_EDGE('',*,*,#677,.T.);
#923=ORIENTED_EDGE('',*,*,#673,.F.);
#924=ORIENTED_EDGE('',*,*,#578,.F.);
#925=ORIENTED_EDGE('',*,*,#678,.F.);
#926=ORIENTED_EDGE('',*,*,#674,.F.);
#927=ORIENTED_EDGE('',*,*,#677,.F.);
#928=ORIENTED_EDGE('',*,*,#582,.F.);
#929=ORIENTED_EDGE('',*,*,#672,.T.);
#930=ORIENTED_EDGE('',*,*,#679,.F.);
#931=ORIENTED_EDGE('',*,*,#680,.F.);
#932=ORIENTED_EDGE('',*,*,#592,.F.);
#933=ORIENTED_EDGE('',*,*,#631,.T.);
#934=ORIENTED_EDGE('',*,*,#670,.T.);
#935=ORIENTED_EDGE('',*,*,#593,.F.);
#936=ORIENTED_EDGE('',*,*,#680,.T.);
#937=ORIENTED_EDGE('',*,*,#681,.T.);
#938=ORIENTED_EDGE('',*,*,#668,.T.);
#939=ORIENTED_EDGE('',*,*,#655,.T.);
#940=ORIENTED_EDGE('',*,*,#651,.T.);
#941=ORIENTED_EDGE('',*,*,#570,.T.);
#942=ORIENTED_EDGE('',*,*,#573,.T.);
#943=ORIENTED_EDGE('',*,*,#563,.T.);
#944=ORIENTED_EDGE('',*,*,#567,.T.);
#945=ORIENTED_EDGE('',*,*,#602,.T.);
#946=ORIENTED_EDGE('',*,*,#675,.T.);
#947=ORIENTED_EDGE('',*,*,#678,.T.);
#948=ORIENTED_EDGE('',*,*,#577,.F.);
#949=ORIENTED_EDGE('',*,*,#581,.T.);
#950=ORIENTED_EDGE('',*,*,#669,.T.);
#951=ORIENTED_EDGE('',*,*,#681,.F.);
#952=ORIENTED_EDGE('',*,*,#679,.T.);
#953=ORIENTED_EDGE('',*,*,#671,.T.);
#954=ORIENTED_EDGE('',*,*,#598,.F.);
#955=ORIENTED_EDGE('',*,*,#622,.F.);
#956=ORIENTED_EDGE('',*,*,#682,.T.);
#957=ORIENTED_EDGE('',*,*,#683,.T.);
#958=ORIENTED_EDGE('',*,*,#587,.T.);
#959=ORIENTED_EDGE('',*,*,#628,.F.);
#960=ORIENTED_EDGE('',*,*,#626,.F.);
#961=ORIENTED_EDGE('',*,*,#621,.F.);
#962=ORIENTED_EDGE('',*,*,#684,.F.);
#963=ORIENTED_EDGE('',*,*,#685,.F.);
#964=ORIENTED_EDGE('',*,*,#682,.F.);
#965=ORIENTED_EDGE('',*,*,#624,.F.);
#966=ORIENTED_EDGE('',*,*,#603,.F.);
#967=ORIENTED_EDGE('',*,*,#685,.T.);
#968=ORIENTED_EDGE('',*,*,#686,.F.);
#969=ORIENTED_EDGE('',*,*,#583,.F.);
#970=ORIENTED_EDGE('',*,*,#676,.F.);
#971=ORIENTED_EDGE('',*,*,#588,.F.);
#972=ORIENTED_EDGE('',*,*,#683,.F.);
#973=ORIENTED_EDGE('',*,*,#607,.F.);
#974=ORIENTED_EDGE('',*,*,#584,.T.);
#975=ORIENTED_EDGE('',*,*,#686,.T.);
#976=ORIENTED_EDGE('',*,*,#684,.T.);
#977=ORIENTED_EDGE('',*,*,#620,.F.);
#978=ORIENTED_EDGE('',*,*,#617,.F.);
#979=ORIENTED_EDGE('',*,*,#657,.T.);
#980=ORIENTED_EDGE('',*,*,#659,.T.);
#981=ORIENTED_EDGE('',*,*,#640,.T.);
#982=ORIENTED_EDGE('',*,*,#644,.T.);
#983=PLANE('',#1109);
#984=PLANE('',#1110);
#985=PLANE('',#1111);
#986=PLANE('',#1112);
#987=PLANE('',#1113);
#988=PLANE('',#1114);
#989=PLANE('',#1115);
#990=PLANE('',#1116);
#991=PLANE('',#1117);
#992=PLANE('',#1118);
#993=PLANE('',#1119);
#994=PLANE('',#1120);
#995=PLANE('',#1121);
#996=PLANE('',#1122);
#997=PLANE('',#1123);
#998=PLANE('',#1124);
#999=PLANE('',#1125);
#1000=PLANE('',#1128);
#1001=PLANE('',#1129);
#1002=PLANE('',#1130);
#1003=PLANE('',#1131);
#1004=PLANE('',#1132);
#1005=PLANE('',#1133);
#1006=PLANE('',#1134);
#1007=PLANE('',#1135);
#1008=PLANE('',#1136);
#1009=PLANE('',#1137);
#1010=PLANE('',#1138);
#1011=PLANE('',#1139);
#1012=PLANE('',#1140);
#1013=PLANE('',#1143);
#1014=PLANE('',#1144);
#1015=PLANE('',#1145);
#1016=PLANE('',#1146);
#1017=PLANE('',#1150);
#1018=PLANE('',#1152);
#1019=PLANE('',#1153);
#1020=PLANE('',#1154);
#1021=PLANE('',#1155);
#1022=PLANE('',#1158);
#1023=PLANE('',#1163);
#1024=PLANE('',#1168);
#1025=PLANE('',#1169);
#1026=PLANE('',#1170);
#1027=PLANE('',#1171);
#1028=PLANE('',#1172);
#1029=PLANE('',#1173);
#1030=PLANE('',#1174);
#1031=PLANE('',#1175);
#1032=PLANE('',#1176);
#1033=PLANE('',#1177);
#1034=PLANE('',#1178);
#1035=PLANE('',#1179);
#1036=ADVANCED_FACE('',(#44),#983,.T.);
#1037=ADVANCED_FACE('',(#45),#984,.T.);
#1038=ADVANCED_FACE('',(#46),#985,.T.);
#1039=ADVANCED_FACE('',(#47),#986,.T.);
#1040=ADVANCED_FACE('',(#48),#987,.F.);
#1041=ADVANCED_FACE('',(#49),#988,.T.);
#1042=ADVANCED_FACE('',(#50,#33),#989,.T.);
#1043=ADVANCED_FACE('',(#51),#990,.T.);
#1044=ADVANCED_FACE('',(#52),#991,.T.);
#1045=ADVANCED_FACE('',(#53),#992,.F.);
#1046=ADVANCED_FACE('',(#54),#993,.T.);
#1047=ADVANCED_FACE('',(#55),#994,.T.);
#1048=ADVANCED_FACE('',(#56),#995,.T.);
#1049=ADVANCED_FACE('',(#57,#34),#996,.T.);
#1050=ADVANCED_FACE('',(#58),#997,.T.);
#1051=ADVANCED_FACE('',(#59),#998,.T.);
#1052=ADVANCED_FACE('',(#60,#35,#36),#999,.T.);
#1053=ADVANCED_FACE('',(#61),#1000,.T.);
#1054=ADVANCED_FACE('',(#62),#1001,.T.);
#1055=ADVANCED_FACE('',(#63),#1002,.T.);
#1056=ADVANCED_FACE('',(#64),#1003,.T.);
#1057=ADVANCED_FACE('',(#65),#1004,.T.);
#1058=ADVANCED_FACE('',(#66),#1005,.T.);
#1059=ADVANCED_FACE('',(#67),#1006,.T.);
#1060=ADVANCED_FACE('',(#68),#1007,.T.);
#1061=ADVANCED_FACE('',(#69),#1008,.T.);
#1062=ADVANCED_FACE('',(#70),#1009,.T.);
#1063=ADVANCED_FACE('',(#71),#1010,.T.);
#1064=ADVANCED_FACE('',(#72),#1011,.T.);
#1065=ADVANCED_FACE('',(#73,#37,#38),#1012,.T.);
#1066=ADVANCED_FACE('',(#74),#1013,.T.);
#1067=ADVANCED_FACE('',(#75),#1014,.T.);
#1068=ADVANCED_FACE('',(#76),#1015,.T.);
#1069=ADVANCED_FACE('',(#77),#1016,.T.);
#1070=ADVANCED_FACE('',(#78),#15,.F.);
#1071=ADVANCED_FACE('',(#79,#39),#1017,.F.);
#1072=ADVANCED_FACE('',(#80),#1018,.T.);
#1073=ADVANCED_FACE('',(#81),#1019,.T.);
#1074=ADVANCED_FACE('',(#82),#1020,.T.);
#1075=ADVANCED_FACE('',(#83),#1021,.T.);
#1076=ADVANCED_FACE('',(#84),#16,.F.);
#1077=ADVANCED_FACE('',(#85,#40),#1022,.F.);
#1078=ADVANCED_FACE('',(#86),#17,.F.);
#1079=ADVANCED_FACE('',(#87),#18,.F.);
#1080=ADVANCED_FACE('',(#88,#41),#1023,.F.);
#1081=ADVANCED_FACE('',(#89),#19,.F.);
#1082=ADVANCED_FACE('',(#90),#20,.F.);
#1083=ADVANCED_FACE('',(#91),#1024,.F.);
#1084=ADVANCED_FACE('',(#92),#1025,.T.);
#1085=ADVANCED_FACE('',(#93),#1026,.F.);
#1086=ADVANCED_FACE('',(#94),#1027,.F.);
#1087=ADVANCED_FACE('',(#95),#1028,.F.);
#1088=ADVANCED_FACE('',(#96),#1029,.F.);
#1089=ADVANCED_FACE('',(#97,#42),#1030,.F.);
#1090=ADVANCED_FACE('',(#98),#1031,.F.);
#1091=ADVANCED_FACE('',(#99),#1032,.T.);
#1092=ADVANCED_FACE('',(#100),#1033,.T.);
#1093=ADVANCED_FACE('',(#101),#1034,.T.);
#1094=ADVANCED_FACE('',(#102,#43),#1035,.T.);
#1095=CLOSED_SHELL('',(#1036,#1037,#1038,#1039,#1040,#1041,#1042,#1043,
#1044,#1045,#1046,#1047,#1048,#1049,#1050,#1051,#1052,#1053,#1054,#1055,
#1056,#1057,#1058,#1059,#1060,#1061,#1062,#1063,#1064,#1065,#1066,#1067,
#1068,#1069,#1070,#1071,#1072,#1073,#1074,#1075,#1076,#1077,#1078,#1079,
#1080,#1081,#1082,#1083,#1084,#1085,#1086,#1087,#1088,#1089,#1090,#1091,
#1092,#1093,#1094));
#1096=DERIVED_UNIT_ELEMENT(#1098,1.);
#1097=DERIVED_UNIT_ELEMENT(#1767,-3.);
#1098=(
MASS_UNIT()
NAMED_UNIT(*)
SI_UNIT(.KILO.,.GRAM.)
);
#1099=DERIVED_UNIT((#1096,#1097));
#1100=MEASURE_REPRESENTATION_ITEM('density measure',
POSITIVE_RATIO_MEASURE(7850.),#1099);
#1101=PROPERTY_DEFINITION_REPRESENTATION(#1106,#1103);
#1102=PROPERTY_DEFINITION_REPRESENTATION(#1107,#1104);
#1103=REPRESENTATION('material name',(#1105),#1764);
#1104=REPRESENTATION('density',(#1100),#1764);
#1105=DESCRIPTIVE_REPRESENTATION_ITEM('Steel','Steel');
#1106=PROPERTY_DEFINITION('material property','material name',#1774);
#1107=PROPERTY_DEFINITION('material property','density of part',#1774);
#1108=AXIS2_PLACEMENT_3D('',#1460,#1180,#1181);
#1109=AXIS2_PLACEMENT_3D('',#1461,#1182,#1183);
#1110=AXIS2_PLACEMENT_3D('',#1470,#1188,#1189);
#1111=AXIS2_PLACEMENT_3D('',#1476,#1193,#1194);
#1112=AXIS2_PLACEMENT_3D('',#1482,#1198,#1199);
#1113=AXIS2_PLACEMENT_3D('',#1485,#1202,#1203);
#1114=AXIS2_PLACEMENT_3D('',#1491,#1207,#1208);
#1115=AXIS2_PLACEMENT_3D('',#1495,#1211,#1212);
#1116=AXIS2_PLACEMENT_3D('',#1504,#1217,#1218);
#1117=AXIS2_PLACEMENT_3D('',#1508,#1221,#1222);
#1118=AXIS2_PLACEMENT_3D('',#1510,#1224,#1225);
#1119=AXIS2_PLACEMENT_3D('',#1519,#1230,#1231);
#1120=AXIS2_PLACEMENT_3D('',#1525,#1235,#1236);
#1121=AXIS2_PLACEMENT_3D('',#1531,#1240,#1241);
#1122=AXIS2_PLACEMENT_3D('',#1534,#1244,#1245);
#1123=AXIS2_PLACEMENT_3D('',#1535,#1246,#1247);
#1124=AXIS2_PLACEMENT_3D('',#1544,#1252,#1253);
#1125=AXIS2_PLACEMENT_3D('',#1550,#1257,#1258);
#1126=AXIS2_PLACEMENT_3D('',#1576,#1272,#1273);
#1127=AXIS2_PLACEMENT_3D('',#1578,#1274,#1275);
#1128=AXIS2_PLACEMENT_3D('',#1579,#1276,#1277);
#1129=AXIS2_PLACEMENT_3D('',#1585,#1281,#1282);
#1130=AXIS2_PLACEMENT_3D('',#1591,#1286,#1287);
#1131=AXIS2_PLACEMENT_3D('',#1600,#1292,#1293);
#1132=AXIS2_PLACEMENT_3D('',#1604,#1296,#1297);
#1133=AXIS2_PLACEMENT_3D('',#1611,#1301,#1302);
#1134=AXIS2_PLACEMENT_3D('',#1618,#1306,#1307);
#1135=AXIS2_PLACEMENT_3D('',#1621,#1310,#1311);
#1136=AXIS2_PLACEMENT_3D('',#1624,#1314,#1315);
#1137=AXIS2_PLACEMENT_3D('',#1629,#1319,#1320);
#1138=AXIS2_PLACEMENT_3D('',#1634,#1324,#1325);
#1139=AXIS2_PLACEMENT_3D('',#1639,#1329,#1330);
#1140=AXIS2_PLACEMENT_3D('',#1641,#1332,#1333);
#1141=AXIS2_PLACEMENT_3D('',#1643,#1334,#1335);
#1142=AXIS2_PLACEMENT_3D('',#1645,#1336,#1337);
#1143=AXIS2_PLACEMENT_3D('',#1646,#1338,#1339);
#1144=AXIS2_PLACEMENT_3D('',#1647,#1340,#1341);
#1145=AXIS2_PLACEMENT_3D('',#1660,#1348,#1349);
#1146=AXIS2_PLACEMENT_3D('',#1666,#1353,#1354);
#1147=AXIS2_PLACEMENT_3D('',#1675,#1359,#1360);
#1148=AXIS2_PLACEMENT_3D('',#1677,#1361,#1362);
#1149=AXIS2_PLACEMENT_3D('',#1679,#1363,#1364);
#1150=AXIS2_PLACEMENT_3D('',#1681,#1366,#1367);
#1151=AXIS2_PLACEMENT_3D('',#1686,#1370,#1371);
#1152=AXIS2_PLACEMENT_3D('',#1688,#1373,#1374);
#1153=AXIS2_PLACEMENT_3D('',#1692,#1377,#1378);
#1154=AXIS2_PLACEMENT_3D('',#1696,#1381,#1382);
#1155=AXIS2_PLACEMENT_3D('',#1700,#1385,#1386);
#1156=AXIS2_PLACEMENT_3D('',#1704,#1389,#1390);
#1157=AXIS2_PLACEMENT_3D('',#1705,#1391,#1392);
#1158=AXIS2_PLACEMENT_3D('',#1706,#1393,#1394);
#1159=AXIS2_PLACEMENT_3D('',#1708,#1395,#1396);
#1160=AXIS2_PLACEMENT_3D('',#1710,#1397,#1398);
#1161=AXIS2_PLACEMENT_3D('',#1711,#1399,#1400);
#1162=AXIS2_PLACEMENT_3D('',#1713,#1402,#1403);
#1163=AXIS2_PLACEMENT_3D('',#1715,#1405,#1406);
#1164=AXIS2_PLACEMENT_3D('',#1717,#1407,#1408);
#1165=AXIS2_PLACEMENT_3D('',#1719,#1409,#1410);
#1166=AXIS2_PLACEMENT_3D('',#1720,#1411,#1412);
#1167=AXIS2_PLACEMENT_3D('',#1722,#1414,#1415);
#1168=AXIS2_PLACEMENT_3D('',#1724,#1417,#1418);
#1169=AXIS2_PLACEMENT_3D('',#1729,#1422,#1423);
#1170=AXIS2_PLACEMENT_3D('',#1733,#1426,#1427);
#1171=AXIS2_PLACEMENT_3D('',#1739,#1431,#1432);
#1172=AXIS2_PLACEMENT_3D('',#1742,#1435,#1436);
#1173=AXIS2_PLACEMENT_3D('',#1744,#1438,#1439);
#1174=AXIS2_PLACEMENT_3D('',#1748,#1442,#1443);
#1175=AXIS2_PLACEMENT_3D('',#1750,#1445,#1446);
#1176=AXIS2_PLACEMENT_3D('',#1751,#1447,#1448);
#1177=AXIS2_PLACEMENT_3D('',#1755,#1451,#1452);
#1178=AXIS2_PLACEMENT_3D('',#1759,#1455,#1456);
#1179=AXIS2_PLACEMENT_3D('',#1761,#1458,#1459);
#1180=DIRECTION('axis',(0.,0.,1.));
#1181=DIRECTION('refdir',(1.,0.,0.));
#1182=DIRECTION('center_axis',(0.968318505699689,-0.249718384424379,0.));
#1183=DIRECTION('ref_axis',(0.,0.,-1.));
#1184=DIRECTION('',(0.,0.,1.));
#1185=DIRECTION('',(-0.203894207077301,-0.79062874915284,-0.577350269189627));
#1186=DIRECTION('',(0.,0.,-1.));
#1187=DIRECTION('',(0.203894207077301,0.79062874915284,-0.577350269189627));
#1188=DIRECTION('center_axis',(0.609018445062017,0.359300060637657,-0.707106781186561));
#1189=DIRECTION('ref_axis',(-0.757704719933021,0.,-0.652597546265095));
#1190=DIRECTION('',(-0.508127018715259,0.861282144742095,0.));
#1191=DIRECTION('',(0.508127018715259,-0.861282144742095,0.));
#1192=DIRECTION('',(-0.790628749152837,0.203894207077297,-0.577350269189633));
#1193=DIRECTION('center_axis',(0.609018445062017,0.359300060637657,0.707106781186561));
#1194=DIRECTION('ref_axis',(0.757704719933021,0.,-0.652597546265095));
#1195=DIRECTION('',(-0.508127018715259,0.861282144742095,0.));
#1196=DIRECTION('',(0.508127018715259,-0.861282144742095,0.));
#1197=DIRECTION('',(0.790628749152837,-0.203894207077297,-0.577350269189633));
#1198=DIRECTION('center_axis',(0.249718384424376,0.968318505699689,0.));
#1199=DIRECTION('ref_axis',(0.,0.,1.));
#1200=DIRECTION('',(0.,0.,-1.));
#1201=DIRECTION('',(0.,0.,1.));
#1202=DIRECTION('center_axis',(0.,0.,-1.));
#1203=DIRECTION('ref_axis',(-0.508127018715259,0.861282144742095,0.));
#1204=DIRECTION('',(0.861282144742095,0.508127018715259,0.));
#1205=DIRECTION('',(0.50812701871526,-0.861282144742095,0.));
#1206=DIRECTION('',(-0.861282144742095,-0.508127018715259,0.));
#1207=DIRECTION('center_axis',(0.508127018715259,-0.861282144742095,0.));
#1208=DIRECTION('ref_axis',(0.,0.,-1.));
#1209=DIRECTION('',(-0.861282144742095,-0.508127018715259,0.));
#1210=DIRECTION('',(0.,0.,-1.));
#1211=DIRECTION('center_axis',(0.861282144742095,0.508127018715259,0.));
#1212=DIRECTION('ref_axis',(-0.508127018715259,0.861282144742095,0.));
#1213=DIRECTION('',(-0.508127018715259,0.861282144742095,0.));
#1214=DIRECTION('',(0.,0.,1.));
#1215=DIRECTION('',(0.508127018715259,-0.861282144742095,0.));
#1216=DIRECTION('',(0.,0.,1.));
#1217=DIRECTION('center_axis',(-0.508127018715259,0.861282144742095,0.));
#1218=DIRECTION('ref_axis',(0.,0.,1.));
#1219=DIRECTION('',(0.,0.,1.));
#1220=DIRECTION('',(0.861282144742095,0.508127018715259,0.));
#1221=DIRECTION('center_axis',(0.,0.,-1.));
#1222=DIRECTION('ref_axis',(-0.508127018715259,0.861282144742095,0.));
#1223=DIRECTION('',(-0.50812701871526,0.861282144742095,0.));
#1224=DIRECTION('center_axis',(0.,0.,-1.));
#1225=DIRECTION('ref_axis',(-0.508127018715259,0.861282144742095,0.));
#1226=DIRECTION('',(-0.50812701871526,0.861282144742095,0.));
#1227=DIRECTION('',(-0.861282144742095,-0.508127018715259,0.));
#1228=DIRECTION('',(0.508127018715259,-0.861282144742095,0.));
#1229=DIRECTION('',(0.861282144742095,0.508127018715259,0.));
#1230=DIRECTION('center_axis',(0.508127018715259,-0.861282144742095,0.));
#1231=DIRECTION('ref_axis',(0.,0.,-1.));
#1232=DIRECTION('',(0.,0.,1.));
#1233=DIRECTION('',(0.,0.,1.));
#1234=DIRECTION('',(-0.861282144742095,-0.508127018715259,0.));
#1235=DIRECTION('center_axis',(0.,0.,-1.));
#1236=DIRECTION('ref_axis',(-0.508127018715259,0.861282144742095,0.));
#1237=DIRECTION('',(0.50812701871526,-0.861282144742095,0.));
#1238=DIRECTION('',(-0.508127018715259,0.861282144742095,0.));
#1239=DIRECTION('',(0.861282144742095,0.508127018715259,0.));
#1240=DIRECTION('center_axis',(-0.508127018715259,0.861282144742095,0.));
#1241=DIRECTION('ref_axis',(0.,0.,1.));
#1242=DIRECTION('',(0.,0.,-1.));
#1243=DIRECTION('',(0.,0.,1.));
#1244=DIRECTION('center_axis',(-0.861282144742095,-0.508127018715259,0.));
#1245=DIRECTION('ref_axis',(0.,0.,1.));
#1246=DIRECTION('center_axis',(0.122787803968973,0.696364240320019,-0.707106781186548));
#1247=DIRECTION('ref_axis',(-0.985255774317392,0.,-0.171087869746035));
#1248=DIRECTION('',(0.122787803968973,0.696364240320019,0.707106781186547));
#1249=DIRECTION('',(0.984807753012208,-0.17364817766693,0.));
#1250=DIRECTION('',(0.122787803968973,0.696364240320019,0.707106781186547));
#1251=DIRECTION('',(-0.984807753012208,0.17364817766693,0.));
#1252=DIRECTION('center_axis',(0.17364817766693,0.984807753012208,0.));
#1253=DIRECTION('ref_axis',(-0.984807753012208,0.17364817766693,0.));
#1254=DIRECTION('',(0.,0.,1.));
#1255=DIRECTION('',(-0.984807753012208,0.17364817766693,0.));
#1256=DIRECTION('',(0.,0.,1.));
#1257=DIRECTION('center_axis',(-0.984807753012208,0.17364817766693,0.));
#1258=DIRECTION('ref_axis',(-0.17364817766693,-0.984807753012208,0.));
#1259=DIRECTION('',(-0.17364817766693,-0.984807753012208,0.));
#1260=DIRECTION('',(0.,0.,1.));
#1261=DIRECTION('',(-0.17364817766693,-0.984807753012208,0.));
#1262=DIRECTION('',(-0.145596368042555,-0.82571803508211,0.544969195600042));
#1263=DIRECTION('',(0.145596368042555,0.82571803508211,0.544969195600042));
#1264=DIRECTION('',(0.17364817766693,0.984807753012208,0.));
#1265=DIRECTION('',(0.,0.,1.));
#1266=DIRECTION('',(-0.17364817766693,-0.984807753012208,0.));
#1267=DIRECTION('',(-0.122787803968973,-0.696364240320018,0.707106781186548));
#1268=DIRECTION('',(0.,0.,-1.));
#1269=DIRECTION('',(0.17364817766693,0.984807753012208,0.));
#1270=DIRECTION('',(0.,0.,1.));
#1271=DIRECTION('',(-0.17364817766693,-0.984807753012208,0.));
#1272=DIRECTION('center_axis',(0.984807753012208,-0.17364817766693,0.));
#1273=DIRECTION('ref_axis',(0.17364817766693,0.984807753012208,0.));
#1274=DIRECTION('center_axis',(0.984807753012208,-0.17364817766693,0.));
#1275=DIRECTION('ref_axis',(0.17364817766693,0.984807753012208,0.));
#1276=DIRECTION('center_axis',(0.122787803968973,0.69636424032002,0.707106781186547));
#1277=DIRECTION('ref_axis',(0.985255774317392,0.,-0.171087869746036));
#1278=DIRECTION('',(0.984807753012208,-0.17364817766693,0.));
#1279=DIRECTION('',(-0.122787803968973,-0.696364240320018,0.707106781186548));
#1280=DIRECTION('',(-0.984807753012208,0.17364817766693,0.));
#1281=DIRECTION('center_axis',(0.,0.,1.));
#1282=DIRECTION('ref_axis',(1.,0.,0.));
#1283=DIRECTION('',(0.,1.,0.));
#1284=DIRECTION('',(-1.,0.,0.));
#1285=DIRECTION('',(-0.17364817766693,-0.984807753012208,0.));
#1286=DIRECTION('center_axis',(-0.766044443118977,-0.64278760968654,0.));
#1287=DIRECTION('ref_axis',(0.,0.,1.));
#1288=DIRECTION('',(0.,0.,-1.));
#1289=DIRECTION('',(0.510273605374738,-0.608120402411343,0.608120402411342));
#1290=DIRECTION('',(0.,0.,1.));
#1291=DIRECTION('',(-0.510273605374738,0.608120402411343,0.608120402411342));
#1292=DIRECTION('center_axis',(0.609018445062027,0.359300060637663,0.70710678118655));
#1293=DIRECTION('ref_axis',(0.75770471993301,0.,-0.652597546265107));
#1294=DIRECTION('',(0.508127018715259,-0.861282144742095,0.));
#1295=DIRECTION('',(0.717644683602765,0.130024524996293,-0.684163526502382));
#1296=DIRECTION('center_axis',(0.535830358272188,-0.638577754491916,-0.55236245221952));
#1297=DIRECTION('ref_axis',(-0.717766495010693,0.,-0.69628389227388));
#1298=DIRECTION('',(-0.711530460178606,0.0106736804522989,-0.702574178847773));
#1299=DIRECTION('',(0.766044443118974,0.642787609686544,0.));
#1300=DIRECTION('',(-0.113044444501918,-0.702574178847777,0.702574178847774));
#1301=DIRECTION('center_axis',(0.535830358272188,-0.638577754491916,0.552362452219519));
#1302=DIRECTION('ref_axis',(0.717766495010693,0.,-0.696283892273881));
#1303=DIRECTION('',(0.113044444501918,0.702574178847777,0.702574178847774));
#1304=DIRECTION('',(-0.766044443118974,-0.642787609686544,0.));
#1305=DIRECTION('',(0.711530460178606,-0.0106736804522989,-0.702574178847773));
#1306=DIRECTION('center_axis',(0.642787609686544,-0.766044443118974,0.));
#1307=DIRECTION('ref_axis',(0.,0.,-1.));
#1308=DIRECTION('',(0.,0.,1.));
#1309=DIRECTION('',(0.,0.,-1.));
#1310=DIRECTION('center_axis',(0.696364240320017,-0.122787803968973,0.707106781186549));
#1311=DIRECTION('ref_axis',(0.712498293208671,0.,-0.701673843159862));
#1312=DIRECTION('',(-0.17364817766693,-0.984807753012208,0.));
#1313=DIRECTION('',(0.17364817766693,0.984807753012208,0.));
#1314=DIRECTION('center_axis',(0.,-0.707106781186546,0.707106781186549));
#1315=DIRECTION('ref_axis',(1.,0.,0.));
#1316=DIRECTION('',(1.,0.,0.));
#1317=DIRECTION('',(-1.,0.,0.));
#1318=DIRECTION('',(-0.123724030206484,-0.701673843159865,-0.701673843159862));
#1319=DIRECTION('center_axis',(0.,-0.707106781186546,-0.707106781186549));
#1320=DIRECTION('ref_axis',(-1.,0.,0.));
#1321=DIRECTION('',(1.,0.,0.));
#1322=DIRECTION('',(-1.,0.,0.));
#1323=DIRECTION('',(0.123724030206484,0.701673843159865,-0.701673843159862));
#1324=DIRECTION('center_axis',(0.696364240320017,-0.122787803968973,-0.707106781186549));
#1325=DIRECTION('ref_axis',(-0.712498293208671,0.,-0.701673843159862));
#1326=DIRECTION('',(-0.17364817766693,-0.984807753012208,0.));
#1327=DIRECTION('',(0.17364817766693,0.984807753012208,0.));
#1328=DIRECTION('',(0.717644683602765,0.130024524996295,0.684163526502382));
#1329=DIRECTION('center_axis',(0.609018445062027,0.359300060637663,-0.70710678118655));
#1330=DIRECTION('ref_axis',(-0.75770471993301,0.,-0.652597546265107));
#1331=DIRECTION('',(-0.508127018715259,0.861282144742095,0.));
#1332=DIRECTION('center_axis',(0.984807753012208,-0.17364817766693,0.));
#1333=DIRECTION('ref_axis',(0.17364817766693,0.984807753012208,0.));
#1334=DIRECTION('center_axis',(-0.984807753012208,0.17364817766693,0.));
#1335=DIRECTION('ref_axis',(0.173648177666931,0.984807753012208,0.));
#1336=DIRECTION('center_axis',(-0.984807753012208,0.17364817766693,0.));
#1337=DIRECTION('ref_axis',(0.173648177666931,0.984807753012208,0.));
#1338=DIRECTION('center_axis',(0.,-1.,0.));
#1339=DIRECTION('ref_axis',(1.,0.,0.));
#1340=DIRECTION('center_axis',(-0.17364817766693,-0.984807753012208,0.));
#1341=DIRECTION('ref_axis',(0.,0.,-1.));
#1342=DIRECTION('',(0.,0.,1.));
#1343=DIRECTION('',(0.984807753012208,-0.17364817766693,0.));
#1344=DIRECTION('',(0.,0.,-1.));
#1345=DIRECTION('',(-0.984807753012208,0.17364817766693,0.));
#1346=DIRECTION('',(0.,0.,-1.));
#1347=DIRECTION('',(-0.984807753012208,0.17364817766693,0.));
#1348=DIRECTION('center_axis',(0.984807753012208,-0.17364817766693,0.));
#1349=DIRECTION('ref_axis',(0.,0.,-1.));
#1350=DIRECTION('',(-0.17364817766693,-0.984807753012208,0.));
#1351=DIRECTION('',(-0.17364817766693,-0.984807753012208,0.));
#1352=DIRECTION('',(0.,0.,-1.));
#1353=DIRECTION('center_axis',(0.17364817766693,0.984807753012208,0.));
#1354=DIRECTION('ref_axis',(0.,0.,1.));
#1355=DIRECTION('',(-0.984807753012208,0.17364817766693,0.));
#1356=DIRECTION('',(0.,0.,-1.));
#1357=DIRECTION('',(0.984807753012208,-0.17364817766693,0.));
#1358=DIRECTION('',(0.,0.,-1.));
#1359=DIRECTION('center_axis',(0.,0.,1.));
#1360=DIRECTION('ref_axis',(-0.984807753012208,0.17364817766693,0.));
#1361=DIRECTION('center_axis',(0.,0.,-1.));
#1362=DIRECTION('ref_axis',(1.,0.,0.));
#1363=DIRECTION('center_axis',(0.,0.,1.));
#1364=DIRECTION('ref_axis',(1.,0.,0.));
#1365=DIRECTION('',(0.,0.,-1.));
#1366=DIRECTION('center_axis',(0.,0.,1.));
#1367=DIRECTION('ref_axis',(0.984807753012208,-0.17364817766693,0.));
#1368=DIRECTION('',(0.17364817766693,0.984807753012208,0.));
#1369=DIRECTION('',(0.984807753012208,-0.17364817766693,0.));
#1370=DIRECTION('center_axis',(0.,0.,1.));
#1371=DIRECTION('ref_axis',(1.,0.,0.));
#1372=DIRECTION('',(-0.984807753012208,0.17364817766693,0.));
#1373=DIRECTION('center_axis',(0.,0.,1.));
#1374=DIRECTION('ref_axis',(0.984807753012208,-0.17364817766693,0.));
#1375=DIRECTION('',(-0.50812701871526,0.861282144742095,0.));
#1376=DIRECTION('',(-0.17364817766693,-0.984807753012208,0.));
#1377=DIRECTION('center_axis',(0.17364817766693,0.984807753012208,0.));
#1378=DIRECTION('ref_axis',(0.,0.,1.));
#1379=DIRECTION('',(0.984807753012208,-0.17364817766693,0.));
#1380=DIRECTION('',(0.,0.,-1.));
#1381=DIRECTION('center_axis',(-0.984807753012208,0.17364817766693,0.));
#1382=DIRECTION('ref_axis',(0.,0.,1.));
#1383=DIRECTION('',(0.,0.,-1.));
#1384=DIRECTION('',(0.17364817766693,0.984807753012208,0.));
#1385=DIRECTION('center_axis',(-0.17364817766693,-0.984807753012208,0.));
#1386=DIRECTION('ref_axis',(0.,0.,-1.));
#1387=DIRECTION('',(0.984807753012208,-0.17364817766693,0.));
#1388=DIRECTION('',(0.,0.,-1.));
#1389=DIRECTION('center_axis',(0.,0.,1.));
#1390=DIRECTION('ref_axis',(1.,0.,0.));
#1391=DIRECTION('center_axis',(0.,0.,-1.));
#1392=DIRECTION('ref_axis',(1.,0.,0.));
#1393=DIRECTION('center_axis',(-0.984807753012208,0.173648177666931,0.));
#1394=DIRECTION('ref_axis',(-0.173648177666931,-0.984807753012208,0.));
#1395=DIRECTION('center_axis',(-0.984807753012208,0.173648177666931,0.));
#1396=DIRECTION('ref_axis',(0.173648177666931,0.984807753012208,0.));
#1397=DIRECTION('center_axis',(-0.984807753012208,0.173648177666931,0.));
#1398=DIRECTION('ref_axis',(0.17364817766693,0.984807753012208,0.));
#1399=DIRECTION('center_axis',(0.984807753012208,-0.173648177666931,0.));
#1400=DIRECTION('ref_axis',(0.173648177666931,0.984807753012208,0.));
#1401=DIRECTION('',(0.984807753012208,-0.173648177666931,0.));
#1402=DIRECTION('center_axis',(0.984807753012208,-0.17364817766693,0.));
#1403=DIRECTION('ref_axis',(0.17364817766693,0.984807753012208,0.));
#1404=DIRECTION('',(0.984807753012208,-0.17364817766693,0.));
#1405=DIRECTION('center_axis',(-0.984807753012208,0.173648177666931,0.));
#1406=DIRECTION('ref_axis',(-0.173648177666931,-0.984807753012208,0.));
#1407=DIRECTION('center_axis',(-0.984807753012208,0.173648177666931,0.));
#1408=DIRECTION('ref_axis',(0.173648177666931,0.984807753012208,0.));
#1409=DIRECTION('center_axis',(-0.984807753012208,0.173648177666931,0.));
#1410=DIRECTION('ref_axis',(0.17364817766693,0.984807753012208,0.));
#1411=DIRECTION('center_axis',(0.984807753012208,-0.173648177666931,0.));
#1412=DIRECTION('ref_axis',(0.173648177666931,0.984807753012208,0.));
#1413=DIRECTION('',(0.984807753012208,-0.173648177666931,0.));
#1414=DIRECTION('center_axis',(0.984807753012208,-0.17364817766693,0.));
#1415=DIRECTION('ref_axis',(0.17364817766693,0.984807753012208,0.));
#1416=DIRECTION('',(0.984807753012208,-0.17364817766693,0.));
#1417=DIRECTION('center_axis',(0.,0.,1.));
#1418=DIRECTION('ref_axis',(1.,0.,0.));
#1419=DIRECTION('',(-0.50812701871526,0.861282144742095,0.));
#1420=DIRECTION('',(0.17364817766693,0.984807753012208,0.));
#1421=DIRECTION('',(-0.50812701871526,0.861282144742095,0.));
#1422=DIRECTION('center_axis',(0.17364817766693,0.984807753012208,0.));
#1423=DIRECTION('ref_axis',(0.984807753012208,-0.17364817766693,0.));
#1424=DIRECTION('',(0.,0.,1.));
#1425=DIRECTION('',(0.984807753012208,-0.17364817766693,0.));
#1426=DIRECTION('center_axis',(0.,-1.,0.));
#1427=DIRECTION('ref_axis',(1.,0.,0.));
#1428=DIRECTION('',(0.,0.,1.));
#1429=DIRECTION('',(1.,0.,0.));
#1430=DIRECTION('',(0.,0.,1.));
#1431=DIRECTION('center_axis',(-1.,0.,0.));
#1432=DIRECTION('ref_axis',(0.,-1.,0.));
#1433=DIRECTION('',(0.,0.,1.));
#1434=DIRECTION('',(0.,-1.,0.));
#1435=DIRECTION('center_axis',(0.,0.,1.));
#1436=DIRECTION('ref_axis',(1.,0.,0.));
#1437=DIRECTION('',(0.17364817766693,0.984807753012208,0.));
#1438=DIRECTION('center_axis',(0.,0.,-1.));
#1439=DIRECTION('ref_axis',(-1.,0.,0.));
#1440=DIRECTION('',(-0.17364817766693,-0.984807753012208,0.));
#1441=DIRECTION('',(0.50812701871526,-0.861282144742095,0.));
#1442=DIRECTION('center_axis',(0.861282144742095,0.50812701871526,0.));
#1443=DIRECTION('ref_axis',(-0.50812701871526,0.861282144742095,0.));
#1444=DIRECTION('',(0.,0.,1.));
#1445=DIRECTION('center_axis',(0.984807753012208,-0.17364817766693,0.));
#1446=DIRECTION('ref_axis',(0.17364817766693,0.984807753012208,0.));
#1447=DIRECTION('center_axis',(0.,0.,-1.));
#1448=DIRECTION('ref_axis',(-1.,0.,0.));
#1449=DIRECTION('',(0.17364817766693,0.984807753012208,0.));
#1450=DIRECTION('',(0.984807753012208,-0.17364817766693,0.));
#1451=DIRECTION('center_axis',(-0.984807753012208,0.17364817766693,0.));
#1452=DIRECTION('ref_axis',(-0.17364817766693,-0.984807753012208,0.));
#1453=DIRECTION('',(-0.17364817766693,-0.984807753012208,0.));
#1454=DIRECTION('',(0.,0.,1.));
#1455=DIRECTION('center_axis',(0.17364817766693,0.984807753012208,0.));
#1456=DIRECTION('ref_axis',(-0.984807753012208,0.17364817766693,0.));
#1457=DIRECTION('',(-0.984807753012208,0.17364817766693,0.));
#1458=DIRECTION('center_axis',(0.,0.,1.));
#1459=DIRECTION('ref_axis',(1.,0.,0.));
#1460=CARTESIAN_POINT('',(0.,0.,0.));
#1461=CARTESIAN_POINT('Origin',(37.7437628680792,41.2437426224633,0.));
#1462=CARTESIAN_POINT('',(37.8320516495859,41.5860949133276,-12.5));
#1463=CARTESIAN_POINT('',(37.8320516495859,41.5860949133276,12.5));
#1464=CARTESIAN_POINT('',(37.8320516495859,41.5860949133276,0.));
#1465=CARTESIAN_POINT('',(37.6554740865725,40.901390331599,12.));
#1466=CARTESIAN_POINT('',(37.8320516495859,41.5860949133276,12.5));
#1467=CARTESIAN_POINT('',(37.6554740865725,40.901390331599,-12.));
#1468=CARTESIAN_POINT('',(37.6554740865725,40.901390331599,0.));
#1469=CARTESIAN_POINT('',(37.6554740865725,40.901390331599,-12.));
#1470=CARTESIAN_POINT('Origin',(47.1754309264552,25.256938153076,12.25));
#1471=CARTESIAN_POINT('',(41.8221156400376,33.8388767447138,12.));
#1472=CARTESIAN_POINT('',(46.9601103902696,25.1299063983972,12.));
#1473=CARTESIAN_POINT('',(42.5068202217663,33.6622991817004,12.5));
#1474=CARTESIAN_POINT('',(47.3907514626407,25.3839699077548,12.5));
#1475=CARTESIAN_POINT('',(42.5068202217663,33.6622991817004,12.5));
#1476=CARTESIAN_POINT('Origin',(47.1754309264552,25.256938153076,-12.25));
#1477=CARTESIAN_POINT('',(42.5068202217663,33.6622991817004,-12.5));
#1478=CARTESIAN_POINT('',(47.3907514626407,25.3839699077548,-12.5));
#1479=CARTESIAN_POINT('',(41.8221156400377,33.8388767447138,-12.));
#1480=CARTESIAN_POINT('',(46.9601103902696,25.1299063983972,-12.));
#1481=CARTESIAN_POINT('',(41.8221156400377,33.8388767447138,-12.));
#1482=CARTESIAN_POINT('Origin',(42.164467930902,33.7505879632071,0.));
#1483=CARTESIAN_POINT('',(42.5068202217663,33.6622991817004,0.));
#1484=CARTESIAN_POINT('',(41.8221156400377,33.8388767447138,0.));
#1485=CARTESIAN_POINT('Origin',(40.6431411152843,37.9036669078074,-12.));
#1486=CARTESIAN_POINT('',(37.3970894431499,40.7489522259844,-12.));
#1487=CARTESIAN_POINT('',(38.5598203385517,41.43492370125,-12.));
#1488=CARTESIAN_POINT('',(41.563730996615,33.6864386390992,-12.));
#1489=CARTESIAN_POINT('',(39.6074419745613,37.0023748963563,-12.));
#1490=CARTESIAN_POINT('',(42.7264618920168,34.3724101143648,-12.));
#1491=CARTESIAN_POINT('Origin',(38.5598203385517,41.43492370125,0.));
#1492=CARTESIAN_POINT('',(37.3970894431499,40.7489522259844,12.));
#1493=CARTESIAN_POINT('',(38.5598203385517,41.43492370125,12.));
#1494=CARTESIAN_POINT('',(37.3970894431499,40.7489522259844,0.));
#1495=CARTESIAN_POINT('Origin',(54.6120669896053,13.1437427679957,0.));
#1496=CARTESIAN_POINT('',(54.6120669896053,13.1437427679957,96.06));
#1497=CARTESIAN_POINT('',(29.2044457680519,56.2100031566348,96.06));
#1498=CARTESIAN_POINT('',(48.0753007287843,24.2236496759819,96.06));
#1499=CARTESIAN_POINT('',(54.6120669896053,13.1437427679957,-96.06));
#1500=CARTESIAN_POINT('',(54.6120669896053,13.1437427679957,0.));
#1501=CARTESIAN_POINT('',(29.2044457680519,56.2100031566348,-96.06));
#1502=CARTESIAN_POINT('',(48.0753007287843,24.2236496759819,-96.06));
#1503=CARTESIAN_POINT('',(29.2044457680519,56.2100031566348,0.));
#1504=CARTESIAN_POINT('Origin',(42.7264618920168,34.3724101143648,0.));
#1505=CARTESIAN_POINT('',(41.563730996615,33.6864386390992,12.));
#1506=CARTESIAN_POINT('',(41.563730996615,33.6864386390992,0.));
#1507=CARTESIAN_POINT('',(42.7264618920168,34.3724101143648,12.));
#1508=CARTESIAN_POINT('Origin',(40.6431411152843,37.9036669078074,12.));
#1509=CARTESIAN_POINT('',(39.6074419745613,37.0023748963563,12.));
#1510=CARTESIAN_POINT('Origin',(38.5717428338383,36.1010828849052,-19.5));
#1511=CARTESIAN_POINT('',(41.3698688973416,30.669417345428,-19.5));
#1512=CARTESIAN_POINT('',(35.1707192690154,41.1770595112816,-19.5));
#1513=CARTESIAN_POINT('',(45.1300088358345,24.2959294743365,-19.5));
#1514=CARTESIAN_POINT('',(42.8340485434032,31.533233277244,-19.5));
#1515=CARTESIAN_POINT('',(41.6713176480013,30.8472618019784,-19.5));
#1516=CARTESIAN_POINT('',(36.634898915077,42.0408754430975,-19.5));
#1517=CARTESIAN_POINT('',(39.7344737292401,36.7870543601708,-19.5));
#1518=CARTESIAN_POINT('',(35.4721680196752,41.3549039678319,-19.5));
#1519=CARTESIAN_POINT('Origin',(35.4721680196752,41.3549039678319,0.));
#1520=CARTESIAN_POINT('',(35.1707192690154,41.1770595112816,19.5));
#1521=CARTESIAN_POINT('',(35.1707192690154,41.1770595112816,0.));
#1522=CARTESIAN_POINT('',(36.634898915077,42.0408754430975,19.5));
#1523=CARTESIAN_POINT('',(36.634898915077,42.0408754430975,0.));
#1524=CARTESIAN_POINT('',(35.4721680196752,41.3549039678319,19.5));
#1525=CARTESIAN_POINT('Origin',(38.5717428338383,36.1010828849052,19.5));
#1526=CARTESIAN_POINT('',(41.3698688973416,30.669417345428,19.5));
#1527=CARTESIAN_POINT('',(45.1300088358345,24.2959294743365,19.5));
#1528=CARTESIAN_POINT('',(42.8340485434032,31.533233277244,19.5));
#1529=CARTESIAN_POINT('',(39.7344737292401,36.7870543601708,19.5));
#1530=CARTESIAN_POINT('',(41.6713176480013,30.8472618019784,19.5));
#1531=CARTESIAN_POINT('Origin',(41.6713176480013,30.8472618019784,0.));
#1532=CARTESIAN_POINT('',(41.3698688973416,30.669417345428,0.));
#1533=CARTESIAN_POINT('',(42.8340485434032,31.533233277244,0.));
#1534=CARTESIAN_POINT('Origin',(39.7344737292401,36.7870543601708,0.));
#1535=CARTESIAN_POINT('Origin',(43.7585367021779,9.9803799341769,81.));
#1536=CARTESIAN_POINT('',(21.2166295953731,10.9088465180732,78.));
#1537=CARTESIAN_POINT('',(22.2585186613746,16.8176930361465,84.));
#1538=CARTESIAN_POINT('',(20.087916440538,4.5075961234939,71.5));
#1539=CARTESIAN_POINT('',(51.8027512517409,11.6082477061386,84.));
#1540=CARTESIAN_POINT('',(44.2794812351787,12.9348031932135,84.));
#1541=CARTESIAN_POINT('',(50.7608621857393,5.69940118806534,78.));
#1542=CARTESIAN_POINT('',(47.5162006724315,-12.7019886631707,59.3147390493706));
#1543=CARTESIAN_POINT('',(43.2375921691771,7.02595667514028,78.));
#1544=CARTESIAN_POINT('Origin',(51.8027512517409,11.6082477061386,78.));
#1545=CARTESIAN_POINT('',(22.2585186613746,16.8176930361465,94.06));
#1546=CARTESIAN_POINT('',(22.2585186613746,16.8176930361465,78.));
#1547=CARTESIAN_POINT('',(51.8027512517409,11.6082477061386,94.06));
#1548=CARTESIAN_POINT('',(42.8026371533704,13.1952106511359,94.06));
#1549=CARTESIAN_POINT('',(51.8027512517409,11.6082477061386,39.));
#1550=CARTESIAN_POINT('Origin',(29.2044457680519,56.2100031566348,0.));
#1551=CARTESIAN_POINT('',(20.1747405293715,5.,78.));
#1552=CARTESIAN_POINT('',(22.2585186613746,16.8176930361465,78.));
#1553=CARTESIAN_POINT('',(20.1747405293715,5.,97.06));
#1554=CARTESIAN_POINT('',(20.1747405293715,5.,0.));
#1555=CARTESIAN_POINT('',(28.9372813682691,54.694838553298,97.06));
#1556=CARTESIAN_POINT('',(20.1747405293715,5.,97.06));
#1557=CARTESIAN_POINT('',(31.2530296706561,67.8280997994359,88.3921224524286));
#1558=CARTESIAN_POINT('',(28.9372813682691,54.694838553298,-97.06));
#1559=CARTESIAN_POINT('',(31.2530296706561,67.8280997994359,-88.3921224524286));
#1560=CARTESIAN_POINT('',(20.1747405293715,5.,-97.06));
#1561=CARTESIAN_POINT('',(20.1747405293715,5.,-97.06));
#1562=CARTESIAN_POINT('',(20.1747405293715,5.,-78.));
#1563=CARTESIAN_POINT('',(20.1747405293715,5.,0.));
#1564=CARTESIAN_POINT('',(21.2166295953731,10.9088465180732,-78.));
#1565=CARTESIAN_POINT('',(22.2585186613746,16.8176930361465,-78.));
#1566=CARTESIAN_POINT('',(22.2585186613746,16.8176930361465,-84.));
#1567=CARTESIAN_POINT('',(20.087916440538,4.50759612349387,-71.5));
#1568=CARTESIAN_POINT('',(22.2585186613746,16.8176930361465,-94.06));
#1569=CARTESIAN_POINT('',(22.2585186613746,16.8176930361465,-78.));
#1570=CARTESIAN_POINT('',(28.5365347685951,52.4220916482928,-94.06));
#1571=CARTESIAN_POINT('',(26.8713367166788,42.9782842103972,-94.06));
#1572=CARTESIAN_POINT('',(28.5365347685951,52.4220916482928,94.06));
#1573=CARTESIAN_POINT('',(28.5365347685951,52.4220916482929,0.));
#1574=CARTESIAN_POINT('',(26.8713367166788,42.9782842103972,94.06));
#1575=CARTESIAN_POINT('',(21.0256165999394,9.82555798975982,86.56));
#1576=CARTESIAN_POINT('Origin',(21.39027777304,11.8936542710855,86.56));
#1577=CARTESIAN_POINT('',(21.0256165999394,9.82555798975982,-86.56));
#1578=CARTESIAN_POINT('Origin',(21.39027777304,11.8936542710855,-86.56));
#1579=CARTESIAN_POINT('Origin',(28.9864204069948,12.5851025991809,-81.));
#1580=CARTESIAN_POINT('',(50.7608621857393,5.69940118806533,-78.));
#1581=CARTESIAN_POINT('',(28.465475873994,9.63067934014423,-78.));
#1582=CARTESIAN_POINT('',(51.8027512517409,11.6082477061386,-84.));
#1583=CARTESIAN_POINT('',(47.5162006724315,-12.7019886631707,-59.3147390493706));
#1584=CARTESIAN_POINT('',(29.5073649399956,15.5395258582175,-84.));
#1585=CARTESIAN_POINT('Origin',(35.9887458905562,9.90884651807325,-78.));
#1586=CARTESIAN_POINT('',(20.1747405293715,3.,-78.));
#1587=CARTESIAN_POINT('',(20.1747405293715,7.45442325903662,-78.));
#1588=CARTESIAN_POINT('',(50.2848849245269,3.,-78.));
#1589=CARTESIAN_POINT('',(28.0817432099638,3.,-78.));
#1590=CARTESIAN_POINT('',(50.6600854241038,5.12786777196168,-78.));
#1591=CARTESIAN_POINT('Origin',(4.64853053637645,0.492403876506105,0.));
#1592=CARTESIAN_POINT('',(4.23535462520991,0.984807753012209,97.0448077530122));
#1593=CARTESIAN_POINT('',(4.23535462520991,0.984807753012209,-97.0448077530122));
#1594=CARTESIAN_POINT('',(4.23535462520991,0.984807753012209,0.));
#1595=CARTESIAN_POINT('',(5.06170644754298,0.,-96.06));
#1596=CARTESIAN_POINT('',(4.23535462520991,0.984807753012209,-97.0448077530122));
#1597=CARTESIAN_POINT('',(5.06170644754298,0.,96.06));
#1598=CARTESIAN_POINT('',(5.06170644754298,0.,0.));
#1599=CARTESIAN_POINT('',(5.06170644754298,0.,96.06));
#1600=CARTESIAN_POINT('Origin',(47.6446596564132,23.9695861666243,96.56));
#1601=CARTESIAN_POINT('',(53.5631296291594,12.9536938689247,97.06));
#1602=CARTESIAN_POINT('',(47.2140185840422,23.7155226572667,97.06));
#1603=CARTESIAN_POINT('',(53.5631296291594,12.9536938689247,97.06));
#1604=CARTESIAN_POINT('Origin',(51.2944705121159,0.,-96.06));
#1605=CARTESIAN_POINT('',(52.4681186897828,0.98480775301221,-96.06));
#1606=CARTESIAN_POINT('',(51.4553708809386,0.999999999999999,-97.06));
#1607=CARTESIAN_POINT('',(52.4681186897828,0.984807753012209,-96.06));
#1608=CARTESIAN_POINT('',(51.2944705121159,0.,-96.06));
#1609=CARTESIAN_POINT('',(51.2944705121159,0.,-96.06));
#1610=CARTESIAN_POINT('',(51.4553708809386,1.,-97.06));
#1611=CARTESIAN_POINT('Origin',(52.4681186897828,0.98480775301221,96.06));
#1612=CARTESIAN_POINT('',(51.2944705121159,0.,96.06));
#1613=CARTESIAN_POINT('',(51.4553708809386,1.,97.06));
#1614=CARTESIAN_POINT('',(51.2944705121159,0.,96.06));
#1615=CARTESIAN_POINT('',(52.4681186897828,0.984807753012209,96.06));
#1616=CARTESIAN_POINT('',(52.4681186897828,0.98480775301221,96.06));
#1617=CARTESIAN_POINT('',(51.4553708809386,0.999999999999999,97.06));
#1618=CARTESIAN_POINT('Origin',(51.8812946009493,0.492403876506105,0.));
#1619=CARTESIAN_POINT('',(52.4681186897828,0.98480775301221,0.));
#1620=CARTESIAN_POINT('',(51.2944705121159,0.,0.));
#1621=CARTESIAN_POINT('Origin',(53.8590578746867,11.7526011061236,96.56));
#1622=CARTESIAN_POINT('',(53.3666539981806,11.839425194957,97.06));
#1623=CARTESIAN_POINT('',(54.3514617511928,11.6657770172901,96.06));
#1624=CARTESIAN_POINT('Origin',(16.6992965830586,0.5,96.56));
#1625=CARTESIAN_POINT('',(16.6992965830586,0.,96.06));
#1626=CARTESIAN_POINT('',(4.23803342825145,1.,97.06));
#1627=CARTESIAN_POINT('',(16.6992965830586,1.,97.06));
#1628=CARTESIAN_POINT('',(0.372527860712797,-20.922371448813,75.1376285511872));
#1629=CARTESIAN_POINT('Origin',(16.6992965830586,0.5,-96.56));
#1630=CARTESIAN_POINT('',(4.23803342825145,1.,-97.06));
#1631=CARTESIAN_POINT('',(16.6992965830586,1.,-97.06));
#1632=CARTESIAN_POINT('',(16.6992965830586,0.,-96.06));
#1633=CARTESIAN_POINT('',(0.372527860712797,-20.922371448813,-75.1376285511872));
#1634=CARTESIAN_POINT('Origin',(53.8590578746867,11.7526011061236,-96.56));
#1635=CARTESIAN_POINT('',(54.3514617511928,11.6657770172901,-96.06));
#1636=CARTESIAN_POINT('',(53.5631296291594,12.9536938689247,-97.06));
#1637=CARTESIAN_POINT('',(53.3666539981806,11.839425194957,-97.06));
#1638=CARTESIAN_POINT('',(53.5631296291594,12.9536938689247,-97.06));
#1639=CARTESIAN_POINT('Origin',(47.6446596564132,23.9695861666243,-96.56));
#1640=CARTESIAN_POINT('',(47.2140185840422,23.7155226572667,-97.06));
#1641=CARTESIAN_POINT('Origin',(52.2944705121159,0.,0.));
#1642=CARTESIAN_POINT('',(52.8234907596359,3.00022291196993,86.56));
#1643=CARTESIAN_POINT('Origin',(53.3965297459368,6.25008849691022,86.56));
#1644=CARTESIAN_POINT('',(52.8234907596359,3.00022291196993,-86.56));
#1645=CARTESIAN_POINT('Origin',(53.3965297459368,6.25008849691022,-86.56));
#1646=CARTESIAN_POINT('Origin',(4.06170644754298,0.,0.));
#1647=CARTESIAN_POINT('Origin',(35.6093025206794,29.1872755004873,94.76));
#1648=CARTESIAN_POINT('',(43.014635692486,27.8815154611624,93.96));
#1649=CARTESIAN_POINT('',(43.014635692486,27.8815154611624,94.06));
#1650=CARTESIAN_POINT('',(43.014635692486,27.8815154611624,47.38));
#1651=CARTESIAN_POINT('',(45.4573800508015,27.450793723818,93.96));
#1652=CARTESIAN_POINT('',(35.6093025206794,29.1872755004873,93.96));
#1653=CARTESIAN_POINT('',(45.4573800508015,27.450793723818,95.56));
#1654=CARTESIAN_POINT('',(45.4573800508015,27.450793723818,94.76));
#1655=CARTESIAN_POINT('',(25.7612249905573,30.9237572771566,95.56));
#1656=CARTESIAN_POINT('',(35.6093025206794,29.1872755004873,95.56));
#1657=CARTESIAN_POINT('',(25.7612249905573,30.9237572771566,94.06));
#1658=CARTESIAN_POINT('',(25.7612249905573,30.9237572771566,94.76));
#1659=CARTESIAN_POINT('',(35.9648620759249,29.1245807576488,94.06));
#1660=CARTESIAN_POINT('Origin',(24.8061600133892,25.5073146355894,94.76));
#1661=CARTESIAN_POINT('',(23.8510950362211,20.0908719940223,94.06));
#1662=CARTESIAN_POINT('',(25.1645977158536,27.5401158610411,94.06));
#1663=CARTESIAN_POINT('',(23.8510950362211,20.0908719940223,95.56));
#1664=CARTESIAN_POINT('',(24.8061600133892,25.5073146355894,95.56));
#1665=CARTESIAN_POINT('',(23.8510950362211,20.0908719940223,94.76));
#1666=CARTESIAN_POINT('Origin',(34.1940698726939,21.1610923134378,95.56));
#1667=CARTESIAN_POINT('',(38.4287432106464,20.41440514947,97.06));
#1668=CARTESIAN_POINT('',(29.9593965347415,21.9077794774056,97.06));
#1669=CARTESIAN_POINT('',(31.2449700817273,21.6810981753869,97.06));
#1670=CARTESIAN_POINT('',(38.4287432106464,20.41440514947,95.56));
#1671=CARTESIAN_POINT('',(38.4287432106464,20.41440514947,95.56));
#1672=CARTESIAN_POINT('',(29.9593965347415,21.9077794774056,95.56));
#1673=CARTESIAN_POINT('',(34.1940698726939,21.1610923134378,95.56));
#1674=CARTESIAN_POINT('',(29.9593965347415,21.9077794774056,95.56));
#1675=CARTESIAN_POINT('Origin',(30.4195642055588,24.5175200228879,95.56));
#1676=CARTESIAN_POINT('',(30.8797318763762,27.1272605683703,97.06));
#1677=CARTESIAN_POINT('Origin',(30.4195642055588,24.5175200228879,97.06));
#1678=CARTESIAN_POINT('',(30.8797318763762,27.1272605683703,95.56));
#1679=CARTESIAN_POINT('Origin',(30.4195642055588,24.5175200228879,95.56));
#1680=CARTESIAN_POINT('',(30.8797318763762,27.1272605683703,95.56));
#1681=CARTESIAN_POINT('Origin',(34.6542375435113,23.7708328589201,95.56));
#1682=CARTESIAN_POINT('',(43.5472500964653,16.6179084406837,95.56));
#1683=CARTESIAN_POINT('',(44.5023150736334,22.0343510822508,95.56));
#1684=CARTESIAN_POINT('',(33.6991725663432,18.354390217353,95.56));
#1685=CARTESIAN_POINT('',(39.3490785522812,25.6338862404347,95.56));
#1686=CARTESIAN_POINT('Origin',(38.8889108814638,23.0241456949523,95.56));
#1687=CARTESIAN_POINT('',(35.1144052143287,26.3805734044025,95.56));
#1688=CARTESIAN_POINT('Origin',(34.6542375435113,23.7708328589201,93.96));
#1689=CARTESIAN_POINT('',(44.9537669425219,24.5946618587106,93.96));
#1690=CARTESIAN_POINT('',(47.3223822844539,20.5798269323447,93.96));
#1691=CARTESIAN_POINT('',(44.5023150736334,22.0343510822508,93.96));
#1692=CARTESIAN_POINT('Origin',(33.6991725663432,18.354390217353,94.76));
#1693=CARTESIAN_POINT('',(43.5472500964653,16.6179084406837,94.06));
#1694=CARTESIAN_POINT('',(34.0547321215887,18.2916954745145,94.06));
#1695=CARTESIAN_POINT('',(43.5472500964653,16.6179084406837,94.76));
#1696=CARTESIAN_POINT('Origin',(44.5023150736334,22.0343510822508,94.76));
#1697=CARTESIAN_POINT('',(44.9537669425219,24.5946618587106,94.06));
#1698=CARTESIAN_POINT('',(44.9537669425219,24.5946618587106,47.38));
#1699=CARTESIAN_POINT('',(44.8607527760977,24.0671523077025,94.06));
#1700=CARTESIAN_POINT('Origin',(35.1144052143287,26.3805734044025,95.56));
#1701=CARTESIAN_POINT('',(39.3490785522812,25.6338862404347,97.06));
#1702=CARTESIAN_POINT('',(32.1653054233621,26.9005792663516,97.06));
#1703=CARTESIAN_POINT('',(39.3490785522812,25.6338862404347,95.56));
#1704=CARTESIAN_POINT('Origin',(38.8889108814638,23.0241456949523,95.56));
#1705=CARTESIAN_POINT('Origin',(38.8889108814638,23.0241456949523,97.06));
#1706=CARTESIAN_POINT('Origin',(50.9345103634062,6.68420894107755,-86.56));
#1707=CARTESIAN_POINT('',(50.3614713771054,3.43434335613726,-86.56));
#1708=CARTESIAN_POINT('Origin',(50.9345103634062,6.68420894107755,-86.56));
#1709=CARTESIAN_POINT('',(50.5698491903057,4.61611265975191,-86.56));
#1710=CARTESIAN_POINT('Origin',(50.9345103634062,6.68420894107754,-86.56));
#1711=CARTESIAN_POINT('Origin',(53.1503278076837,6.29350054132695,-86.56));
#1712=CARTESIAN_POINT('',(52.5772888213828,3.04363495638667,-86.56));
#1713=CARTESIAN_POINT('Origin',(37.8858076359945,8.98504729516437,-86.56));
#1714=CARTESIAN_POINT('',(37.5211464628939,6.91695101383873,-86.56));
#1715=CARTESIAN_POINT('Origin',(50.9345103634062,6.68420894107755,86.56));
#1716=CARTESIAN_POINT('',(50.3614713771054,3.43434335613726,86.56));
#1717=CARTESIAN_POINT('Origin',(50.9345103634062,6.68420894107755,86.56));
#1718=CARTESIAN_POINT('',(50.5698491903057,4.61611265975191,86.56));
#1719=CARTESIAN_POINT('Origin',(50.9345103634062,6.68420894107754,86.56));
#1720=CARTESIAN_POINT('Origin',(53.1503278076837,6.29350054132695,86.56));
#1721=CARTESIAN_POINT('',(52.5772888213828,3.04363495638667,86.56));
#1722=CARTESIAN_POINT('Origin',(37.8858076359945,8.98504729516437,86.56));
#1723=CARTESIAN_POINT('',(37.5211464628939,6.91695101383873,86.56));
#1724=CARTESIAN_POINT('Origin',(36.082232058931,27.7110458241464,94.06));
#1725=CARTESIAN_POINT('',(51.9897235884905,12.6686205203183,94.06));
#1726=CARTESIAN_POINT('',(51.9897235884905,12.6686205203183,94.06));
#1727=CARTESIAN_POINT('',(50.2848849245269,3.,94.06));
#1728=CARTESIAN_POINT('',(51.9897235884905,12.6686205203183,94.06));
#1729=CARTESIAN_POINT('Origin',(22.2585186613746,16.8176930361465,-78.));
#1730=CARTESIAN_POINT('',(51.8027512517409,11.6082477061386,-94.06));
#1731=CARTESIAN_POINT('',(51.8027512517409,11.6082477061386,-39.));
#1732=CARTESIAN_POINT('',(28.0305208581873,15.7999333161399,-94.06));
#1733=CARTESIAN_POINT('Origin',(20.1747405293715,3.,0.));
#1734=CARTESIAN_POINT('',(20.1747405293715,3.,78.));
#1735=CARTESIAN_POINT('',(20.1747405293715,3.,0.));
#1736=CARTESIAN_POINT('',(50.2848849245269,3.,78.));
#1737=CARTESIAN_POINT('',(28.0817432099638,3.,78.));
#1738=CARTESIAN_POINT('',(50.2848849245269,3.,0.));
#1739=CARTESIAN_POINT('Origin',(20.1747405293715,5.,0.));
#1740=CARTESIAN_POINT('',(20.1747405293715,5.,0.));
#1741=CARTESIAN_POINT('',(20.1747405293715,7.45442325903662,78.));
#1742=CARTESIAN_POINT('Origin',(35.9887458905562,9.90884651807325,78.));
#1743=CARTESIAN_POINT('',(50.6600854241038,5.12786777196168,78.));
#1744=CARTESIAN_POINT('Origin',(36.082232058931,27.7110458241464,-94.06));
#1745=CARTESIAN_POINT('',(51.9897235884905,12.6686205203183,-94.06));
#1746=CARTESIAN_POINT('',(50.2848849245269,3.,-94.06));
#1747=CARTESIAN_POINT('',(51.9897235884905,12.6686205203183,-94.06));
#1748=CARTESIAN_POINT('Origin',(51.9897235884905,12.6686205203183,0.));
#1749=CARTESIAN_POINT('',(51.9897235884905,12.6686205203183,0.));
#1750=CARTESIAN_POINT('Origin',(50.2848849245269,3.,0.));
#1751=CARTESIAN_POINT('Origin',(29.3368867185741,28.1050015783174,-97.06));
#1752=CARTESIAN_POINT('',(5.40262423418836,7.60472266500395,-97.06));
#1753=CARTESIAN_POINT('',(4.06170644754298,0.,-97.06));
#1754=CARTESIAN_POINT('',(5.40262423418836,7.60472266500395,-97.06));
#1755=CARTESIAN_POINT('Origin',(5.40262423418836,7.60472266500395,0.));
#1756=CARTESIAN_POINT('',(5.40262423418836,7.60472266500395,97.06));
#1757=CARTESIAN_POINT('',(4.06170644754298,0.,97.06));
#1758=CARTESIAN_POINT('',(5.40262423418836,7.60472266500395,0.));
#1759=CARTESIAN_POINT('Origin',(20.1747405293715,5.,0.));
#1760=CARTESIAN_POINT('',(5.40262423418836,7.60472266500395,97.06));
#1761=CARTESIAN_POINT('Origin',(29.3368867185741,28.1050015783174,97.06));
#1762=UNCERTAINTY_MEASURE_WITH_UNIT(LENGTH_MEASURE(0.01),#1766,
'DISTANCE_ACCURACY_VALUE',
'Maximum model space distance between geometric entities at asserted c
onnectivities');
#1763=UNCERTAINTY_MEASURE_WITH_UNIT(LENGTH_MEASURE(0.01),#1766,
'DISTANCE_ACCURACY_VALUE',
'Maximum model space distance between geometric entities at asserted c
onnectivities');
#1764=(
GEOMETRIC_REPRESENTATION_CONTEXT(3)
GLOBAL_UNCERTAINTY_ASSIGNED_CONTEXT((#1762))
GLOBAL_UNIT_ASSIGNED_CONTEXT((#1766,#1768,#1769))
REPRESENTATION_CONTEXT('','3D')
);
#1765=(
GEOMETRIC_REPRESENTATION_CONTEXT(3)
GLOBAL_UNCERTAINTY_ASSIGNED_CONTEXT((#1763))
GLOBAL_UNIT_ASSIGNED_CONTEXT((#1766,#1768,#1769))
REPRESENTATION_CONTEXT('','3D')
);
#1766=(
LENGTH_UNIT()
NAMED_UNIT(*)
SI_UNIT(.MILLI.,.METRE.)
);
#1767=(
LENGTH_UNIT()
NAMED_UNIT(*)
SI_UNIT($,.METRE.)
);
#1768=(
NAMED_UNIT(*)
PLANE_ANGLE_UNIT()
SI_UNIT($,.RADIAN.)
);
#1769=(
NAMED_UNIT(*)
SI_UNIT($,.STERADIAN.)
SOLID_ANGLE_UNIT()
);
#1770=SHAPE_DEFINITION_REPRESENTATION(#1771,#1772);
#1771=PRODUCT_DEFINITION_SHAPE('',$,#1774);
#1772=SHAPE_REPRESENTATION('',(#1108),#1764);
#1773=PRODUCT_DEFINITION_CONTEXT('part definition',#1778,'design');
#1774=PRODUCT_DEFINITION('2026-10-03-01-37-30-675','(Unsaved)',#1775,#1773);
#1775=PRODUCT_DEFINITION_FORMATION('',$,#1780);
#1776=PRODUCT_RELATED_PRODUCT_CATEGORY('(Unsaved)','(Unsaved)',(#1780));
#1777=APPLICATION_PROTOCOL_DEFINITION('international standard',
'automotive_design',2009,#1778);
#1778=APPLICATION_CONTEXT(
'Core Data for Automotive Mechanical Design Process');
#1779=PRODUCT_CONTEXT('part definition',#1778,'mechanical');
#1780=PRODUCT('2026-10-03-01-37-30-675','(Unsaved)',$,(#1779));
#1781=PRESENTATION_STYLE_ASSIGNMENT((#1782));
#1782=SURFACE_STYLE_USAGE(.BOTH.,#1783);
#1783=SURFACE_SIDE_STYLE('',(#1784));
#1784=SURFACE_STYLE_FILL_AREA(#1785);
#1785=FILL_AREA_STYLE('Steel - Satin',(#1786));
#1786=FILL_AREA_STYLE_COLOUR('Steel - Satin',#1787);
#1787=COLOUR_RGB('Steel - Satin',0.627450980392157,0.627450980392157,0.627450980392157);
ENDSEC;
END-ISO-10303-21;
