ISO-10303-21;
HEADER;
/* Generated by software containing ST-Developer
 * from STEP Tools, Inc. (www.steptools.com) 
 */

FILE_DESCRIPTION(
/* description */ (''),
/* implementation_level */ '2;1');

FILE_NAME(
/* name */ 'WordClockStand_v4.step',
/* time_stamp */ '2026-10-02T23:57:48+02:00',
/* author */ (''),
/* organization */ (''),
/* preprocessor_version */ 'ST-DEVELOPER v20.2',
/* originating_system */ 'Autodesk Translation Framework v15.15.0.0',
/* authorisation */ '');

FILE_SCHEMA (('AUTOMOTIVE_DESIGN { 1 0 10303 214 3 1 1 }'));
ENDSEC;

DATA;
#10=MECHANICAL_DESIGN_GEOMETRIC_PRESENTATION_REPRESENTATION('',(#13),#1481);
#11=SHAPE_REPRESENTATION_RELATIONSHIP('SRR','None',#1488,#12);
#12=ADVANCED_BREP_SHAPE_REPRESENTATION('',(#14),#1480);
#13=STYLED_ITEM('',(#1497),#14);
#14=MANIFOLD_SOLID_BREP('Stand_v4',#911);
#15=CYLINDRICAL_SURFACE('',#959,2.65);
#16=CYLINDRICAL_SURFACE('',#967,2.65);
#17=CYLINDRICAL_SURFACE('',#971,3.3);
#18=CYLINDRICAL_SURFACE('',#972,2.1);
#19=CYLINDRICAL_SURFACE('',#976,3.3);
#20=CYLINDRICAL_SURFACE('',#977,2.1);
#21=FACE_BOUND('',#113,.T.);
#22=FACE_BOUND('',#114,.T.);
#23=FACE_BOUND('',#117,.T.);
#24=FACE_BOUND('',#118,.T.);
#25=FACE_BOUND('',#120,.T.);
#26=FACE_BOUND('',#128,.T.);
#27=FACE_BOUND('',#135,.T.);
#28=FACE_BOUND('',#139,.T.);
#29=CIRCLE('',#945,2.1);
#30=CIRCLE('',#946,2.1);
#31=CIRCLE('',#949,3.3);
#32=CIRCLE('',#950,3.3);
#33=CIRCLE('',#952,2.65);
#34=CIRCLE('',#953,2.65);
#35=CIRCLE('',#960,2.65);
#36=CIRCLE('',#962,2.65);
#37=CIRCLE('',#969,3.3);
#38=CIRCLE('',#970,2.1);
#39=CIRCLE('',#974,3.3);
#40=CIRCLE('',#975,2.1);
#41=FACE_OUTER_BOUND('',#93,.T.);
#42=FACE_OUTER_BOUND('',#94,.T.);
#43=FACE_OUTER_BOUND('',#95,.T.);
#44=FACE_OUTER_BOUND('',#96,.T.);
#45=FACE_OUTER_BOUND('',#97,.T.);
#46=FACE_OUTER_BOUND('',#98,.T.);
#47=FACE_OUTER_BOUND('',#99,.T.);
#48=FACE_OUTER_BOUND('',#100,.T.);
#49=FACE_OUTER_BOUND('',#101,.T.);
#50=FACE_OUTER_BOUND('',#102,.T.);
#51=FACE_OUTER_BOUND('',#103,.T.);
#52=FACE_OUTER_BOUND('',#104,.T.);
#53=FACE_OUTER_BOUND('',#105,.T.);
#54=FACE_OUTER_BOUND('',#106,.T.);
#55=FACE_OUTER_BOUND('',#107,.T.);
#56=FACE_OUTER_BOUND('',#108,.T.);
#57=FACE_OUTER_BOUND('',#109,.T.);
#58=FACE_OUTER_BOUND('',#110,.T.);
#59=FACE_OUTER_BOUND('',#111,.T.);
#60=FACE_OUTER_BOUND('',#112,.T.);
#61=FACE_OUTER_BOUND('',#115,.T.);
#62=FACE_OUTER_BOUND('',#116,.T.);
#63=FACE_OUTER_BOUND('',#119,.T.);
#64=FACE_OUTER_BOUND('',#121,.T.);
#65=FACE_OUTER_BOUND('',#122,.T.);
#66=FACE_OUTER_BOUND('',#123,.T.);
#67=FACE_OUTER_BOUND('',#124,.T.);
#68=FACE_OUTER_BOUND('',#125,.T.);
#69=FACE_OUTER_BOUND('',#126,.T.);
#70=FACE_OUTER_BOUND('',#127,.T.);
#71=FACE_OUTER_BOUND('',#129,.T.);
#72=FACE_OUTER_BOUND('',#130,.T.);
#73=FACE_OUTER_BOUND('',#131,.T.);
#74=FACE_OUTER_BOUND('',#132,.T.);
#75=FACE_OUTER_BOUND('',#133,.T.);
#76=FACE_OUTER_BOUND('',#134,.T.);
#77=FACE_OUTER_BOUND('',#136,.T.);
#78=FACE_OUTER_BOUND('',#137,.T.);
#79=FACE_OUTER_BOUND('',#138,.T.);
#80=FACE_OUTER_BOUND('',#140,.T.);
#81=FACE_OUTER_BOUND('',#141,.T.);
#82=FACE_OUTER_BOUND('',#142,.T.);
#83=FACE_OUTER_BOUND('',#143,.T.);
#84=FACE_OUTER_BOUND('',#144,.T.);
#85=FACE_OUTER_BOUND('',#145,.T.);
#86=FACE_OUTER_BOUND('',#146,.T.);
#87=FACE_OUTER_BOUND('',#147,.T.);
#88=FACE_OUTER_BOUND('',#148,.T.);
#89=FACE_OUTER_BOUND('',#149,.T.);
#90=FACE_OUTER_BOUND('',#150,.T.);
#91=FACE_OUTER_BOUND('',#151,.T.);
#92=FACE_OUTER_BOUND('',#152,.T.);
#93=EDGE_LOOP('',(#569,#570,#571,#572));
#94=EDGE_LOOP('',(#573,#574,#575,#576));
#95=EDGE_LOOP('',(#577,#578,#579,#580));
#96=EDGE_LOOP('',(#581,#582,#583));
#97=EDGE_LOOP('',(#584,#585,#586));
#98=EDGE_LOOP('',(#587,#588,#589,#590));
#99=EDGE_LOOP('',(#591,#592,#593,#594));
#100=EDGE_LOOP('',(#595,#596,#597));
#101=EDGE_LOOP('',(#598,#599,#600));
#102=EDGE_LOOP('',(#601,#602,#603,#604));
#103=EDGE_LOOP('',(#605,#606,#607,#608));
#104=EDGE_LOOP('',(#609,#610,#611,#612));
#105=EDGE_LOOP('',(#613,#614,#615,#616));
#106=EDGE_LOOP('',(#617,#618,#619,#620));
#107=EDGE_LOOP('',(#621,#622,#623,#624));
#108=EDGE_LOOP('',(#625,#626,#627,#628));
#109=EDGE_LOOP('',(#629,#630,#631,#632));
#110=EDGE_LOOP('',(#633,#634,#635,#636));
#111=EDGE_LOOP('',(#637,#638,#639,#640,#641,#642));
#112=EDGE_LOOP('',(#643,#644,#645,#646,#647,#648,#649,#650,#651,#652,#653,
#654));
#113=EDGE_LOOP('',(#655));
#114=EDGE_LOOP('',(#656));
#115=EDGE_LOOP('',(#657,#658,#659,#660));
#116=EDGE_LOOP('',(#661,#662,#663,#664));
#117=EDGE_LOOP('',(#665));
#118=EDGE_LOOP('',(#666));
#119=EDGE_LOOP('',(#667,#668,#669,#670,#671,#672));
#120=EDGE_LOOP('',(#673,#674,#675,#676));
#121=EDGE_LOOP('',(#677,#678,#679,#680));
#122=EDGE_LOOP('',(#681,#682,#683,#684,#685,#686));
#123=EDGE_LOOP('',(#687,#688,#689,#690,#691,#692));
#124=EDGE_LOOP('',(#693,#694,#695,#696));
#125=EDGE_LOOP('',(#697,#698,#699,#700));
#126=EDGE_LOOP('',(#701,#702,#703,#704));
#127=EDGE_LOOP('',(#705,#706,#707,#708));
#128=EDGE_LOOP('',(#709,#710,#711,#712));
#129=EDGE_LOOP('',(#713,#714,#715));
#130=EDGE_LOOP('',(#716,#717,#718,#719));
#131=EDGE_LOOP('',(#720,#721,#722,#723,#724,#725));
#132=EDGE_LOOP('',(#726,#727,#728,#729));
#133=EDGE_LOOP('',(#730,#731,#732,#733));
#134=EDGE_LOOP('',(#734));
#135=EDGE_LOOP('',(#735));
#136=EDGE_LOOP('',(#736,#737,#738,#739));
#137=EDGE_LOOP('',(#740,#741,#742,#743));
#138=EDGE_LOOP('',(#744));
#139=EDGE_LOOP('',(#745));
#140=EDGE_LOOP('',(#746,#747,#748,#749));
#141=EDGE_LOOP('',(#750,#751,#752,#753));
#142=EDGE_LOOP('',(#754,#755,#756,#757,#758,#759,#760,#761,#762));
#143=EDGE_LOOP('',(#763,#764,#765,#766));
#144=EDGE_LOOP('',(#767,#768,#769,#770,#771));
#145=EDGE_LOOP('',(#772,#773,#774,#775));
#146=EDGE_LOOP('',(#776,#777,#778,#779));
#147=EDGE_LOOP('',(#780,#781,#782,#783));
#148=EDGE_LOOP('',(#784,#785,#786,#787,#788));
#149=EDGE_LOOP('',(#789,#790,#791,#792));
#150=EDGE_LOOP('',(#793,#794,#795,#796,#797,#798,#799,#800));
#151=EDGE_LOOP('',(#801,#802,#803,#804,#805,#806,#807,#808));
#152=EDGE_LOOP('',(#809,#810,#811,#812));
#153=LINE('',#1233,#263);
#154=LINE('',#1235,#264);
#155=LINE('',#1237,#265);
#156=LINE('',#1238,#266);
#157=LINE('',#1242,#267);
#158=LINE('',#1244,#268);
#159=LINE('',#1246,#269);
#160=LINE('',#1247,#270);
#161=LINE('',#1250,#271);
#162=LINE('',#1252,#272);
#163=LINE('',#1253,#273);
#164=LINE('',#1257,#274);
#165=LINE('',#1259,#275);
#166=LINE('',#1260,#276);
#167=LINE('',#1264,#277);
#168=LINE('',#1266,#278);
#169=LINE('',#1267,#279);
#170=LINE('',#1269,#280);
#171=LINE('',#1270,#281);
#172=LINE('',#1273,#282);
#173=LINE('',#1275,#283);
#174=LINE('',#1276,#284);
#175=LINE('',#1280,#285);
#176=LINE('',#1282,#286);
#177=LINE('',#1283,#287);
#178=LINE('',#1287,#288);
#179=LINE('',#1289,#289);
#180=LINE('',#1290,#290);
#181=LINE('',#1292,#291);
#182=LINE('',#1293,#292);
#183=LINE('',#1295,#293);
#184=LINE('',#1296,#294);
#185=LINE('',#1298,#295);
#186=LINE('',#1299,#296);
#187=LINE('',#1301,#297);
#188=LINE('',#1302,#298);
#189=LINE('',#1305,#299);
#190=LINE('',#1307,#300);
#191=LINE('',#1308,#301);
#192=LINE('',#1310,#302);
#193=LINE('',#1311,#303);
#194=LINE('',#1314,#304);
#195=LINE('',#1316,#305);
#196=LINE('',#1317,#306);
#197=LINE('',#1319,#307);
#198=LINE('',#1320,#308);
#199=LINE('',#1322,#309);
#200=LINE('',#1323,#310);
#201=LINE('',#1326,#311);
#202=LINE('',#1328,#312);
#203=LINE('',#1329,#313);
#204=LINE('',#1330,#314);
#205=LINE('',#1332,#315);
#206=LINE('',#1334,#316);
#207=LINE('',#1336,#317);
#208=LINE('',#1338,#318);
#209=LINE('',#1340,#319);
#210=LINE('',#1342,#320);
#211=LINE('',#1344,#321);
#212=LINE('',#1345,#322);
#213=LINE('',#1351,#323);
#214=LINE('',#1360,#324);
#215=LINE('',#1364,#325);
#216=LINE('',#1371,#326);
#217=LINE('',#1373,#327);
#218=LINE('',#1375,#328);
#219=LINE('',#1377,#329);
#220=LINE('',#1379,#330);
#221=LINE('',#1380,#331);
#222=LINE('',#1383,#332);
#223=LINE('',#1385,#333);
#224=LINE('',#1386,#334);
#225=LINE('',#1389,#335);
#226=LINE('',#1391,#336);
#227=LINE('',#1392,#337);
#228=LINE('',#1396,#338);
#229=LINE('',#1399,#339);
#230=LINE('',#1400,#340);
#231=LINE('',#1403,#341);
#232=LINE('',#1406,#342);
#233=LINE('',#1407,#343);
#234=LINE('',#1410,#344);
#235=LINE('',#1411,#345);
#236=LINE('',#1414,#346);
#237=LINE('',#1415,#347);
#238=LINE('',#1417,#348);
#239=LINE('',#1425,#349);
#240=LINE('',#1427,#350);
#241=LINE('',#1434,#351);
#242=LINE('',#1436,#352);
#243=LINE('',#1439,#353);
#244=LINE('',#1441,#354);
#245=LINE('',#1442,#355);
#246=LINE('',#1443,#356);
#247=LINE('',#1446,#357);
#248=LINE('',#1448,#358);
#249=LINE('',#1449,#359);
#250=LINE('',#1452,#360);
#251=LINE('',#1454,#361);
#252=LINE('',#1455,#362);
#253=LINE('',#1458,#363);
#254=LINE('',#1460,#364);
#255=LINE('',#1461,#365);
#256=LINE('',#1463,#366);
#257=LINE('',#1466,#367);
#258=LINE('',#1467,#368);
#259=LINE('',#1469,#369);
#260=LINE('',#1472,#370);
#261=LINE('',#1473,#371);
#262=LINE('',#1475,#372);
#263=VECTOR('',#993,10.);
#264=VECTOR('',#994,10.);
#265=VECTOR('',#995,10.);
#266=VECTOR('',#996,10.);
#267=VECTOR('',#999,10.);
#268=VECTOR('',#1000,10.);
#269=VECTOR('',#1001,10.);
#270=VECTOR('',#1002,10.);
#271=VECTOR('',#1005,10.);
#272=VECTOR('',#1006,10.);
#273=VECTOR('',#1007,10.);
#274=VECTOR('',#1010,10.);
#275=VECTOR('',#1011,10.);
#276=VECTOR('',#1012,10.);
#277=VECTOR('',#1015,10.);
#278=VECTOR('',#1016,10.);
#279=VECTOR('',#1017,10.);
#280=VECTOR('',#1020,10.);
#281=VECTOR('',#1021,10.);
#282=VECTOR('',#1024,10.);
#283=VECTOR('',#1025,10.);
#284=VECTOR('',#1026,10.);
#285=VECTOR('',#1029,10.);
#286=VECTOR('',#1030,10.);
#287=VECTOR('',#1031,10.);
#288=VECTOR('',#1034,10.);
#289=VECTOR('',#1035,10.);
#290=VECTOR('',#1036,10.);
#291=VECTOR('',#1039,10.);
#292=VECTOR('',#1040,10.);
#293=VECTOR('',#1043,10.);
#294=VECTOR('',#1044,10.);
#295=VECTOR('',#1047,10.);
#296=VECTOR('',#1048,10.);
#297=VECTOR('',#1051,10.);
#298=VECTOR('',#1052,10.);
#299=VECTOR('',#1055,10.);
#300=VECTOR('',#1056,10.);
#301=VECTOR('',#1057,10.);
#302=VECTOR('',#1060,10.);
#303=VECTOR('',#1061,10.);
#304=VECTOR('',#1064,10.);
#305=VECTOR('',#1065,10.);
#306=VECTOR('',#1066,10.);
#307=VECTOR('',#1069,10.);
#308=VECTOR('',#1070,10.);
#309=VECTOR('',#1073,10.);
#310=VECTOR('',#1074,10.);
#311=VECTOR('',#1077,10.);
#312=VECTOR('',#1078,10.);
#313=VECTOR('',#1079,10.);
#314=VECTOR('',#1080,10.);
#315=VECTOR('',#1083,10.);
#316=VECTOR('',#1084,10.);
#317=VECTOR('',#1085,10.);
#318=VECTOR('',#1086,10.);
#319=VECTOR('',#1087,10.);
#320=VECTOR('',#1088,10.);
#321=VECTOR('',#1089,10.);
#322=VECTOR('',#1090,10.);
#323=VECTOR('',#1097,10.);
#324=VECTOR('',#1106,10.);
#325=VECTOR('',#1109,10.);
#326=VECTOR('',#1118,10.);
#327=VECTOR('',#1119,10.);
#328=VECTOR('',#1120,10.);
#329=VECTOR('',#1121,10.);
#330=VECTOR('',#1122,10.);
#331=VECTOR('',#1123,10.);
#332=VECTOR('',#1126,10.);
#333=VECTOR('',#1127,10.);
#334=VECTOR('',#1128,10.);
#335=VECTOR('',#1131,10.);
#336=VECTOR('',#1132,10.);
#337=VECTOR('',#1133,10.);
#338=VECTOR('',#1138,10.);
#339=VECTOR('',#1141,10.);
#340=VECTOR('',#1142,10.);
#341=VECTOR('',#1145,10.);
#342=VECTOR('',#1148,10.);
#343=VECTOR('',#1149,10.);
#344=VECTOR('',#1152,10.);
#345=VECTOR('',#1153,10.);
#346=VECTOR('',#1156,10.);
#347=VECTOR('',#1157,10.);
#348=VECTOR('',#1160,10.);
#349=VECTOR('',#1171,3.3);
#350=VECTOR('',#1174,2.1);
#351=VECTOR('',#1183,3.3);
#352=VECTOR('',#1186,2.1);
#353=VECTOR('',#1189,10.);
#354=VECTOR('',#1190,10.);
#355=VECTOR('',#1191,10.);
#356=VECTOR('',#1192,10.);
#357=VECTOR('',#1195,10.);
#358=VECTOR('',#1196,10.);
#359=VECTOR('',#1197,10.);
#360=VECTOR('',#1200,10.);
#361=VECTOR('',#1201,10.);
#362=VECTOR('',#1202,10.);
#363=VECTOR('',#1205,10.);
#364=VECTOR('',#1206,10.);
#365=VECTOR('',#1207,10.);
#366=VECTOR('',#1210,10.);
#367=VECTOR('',#1213,10.);
#368=VECTOR('',#1214,10.);
#369=VECTOR('',#1217,10.);
#370=VECTOR('',#1220,10.);
#371=VECTOR('',#1221,10.);
#372=VECTOR('',#1224,10.);
#373=VERTEX_POINT('',#1231);
#374=VERTEX_POINT('',#1232);
#375=VERTEX_POINT('',#1234);
#376=VERTEX_POINT('',#1236);
#377=VERTEX_POINT('',#1240);
#378=VERTEX_POINT('',#1241);
#379=VERTEX_POINT('',#1243);
#380=VERTEX_POINT('',#1245);
#381=VERTEX_POINT('',#1249);
#382=VERTEX_POINT('',#1251);
#383=VERTEX_POINT('',#1255);
#384=VERTEX_POINT('',#1256);
#385=VERTEX_POINT('',#1258);
#386=VERTEX_POINT('',#1262);
#387=VERTEX_POINT('',#1263);
#388=VERTEX_POINT('',#1265);
#389=VERTEX_POINT('',#1272);
#390=VERTEX_POINT('',#1274);
#391=VERTEX_POINT('',#1278);
#392=VERTEX_POINT('',#1279);
#393=VERTEX_POINT('',#1281);
#394=VERTEX_POINT('',#1285);
#395=VERTEX_POINT('',#1286);
#396=VERTEX_POINT('',#1288);
#397=VERTEX_POINT('',#1304);
#398=VERTEX_POINT('',#1306);
#399=VERTEX_POINT('',#1313);
#400=VERTEX_POINT('',#1315);
#401=VERTEX_POINT('',#1325);
#402=VERTEX_POINT('',#1327);
#403=VERTEX_POINT('',#1333);
#404=VERTEX_POINT('',#1335);
#405=VERTEX_POINT('',#1337);
#406=VERTEX_POINT('',#1339);
#407=VERTEX_POINT('',#1341);
#408=VERTEX_POINT('',#1343);
#409=VERTEX_POINT('',#1346);
#410=VERTEX_POINT('',#1348);
#411=VERTEX_POINT('',#1353);
#412=VERTEX_POINT('',#1355);
#413=VERTEX_POINT('',#1358);
#414=VERTEX_POINT('',#1359);
#415=VERTEX_POINT('',#1361);
#416=VERTEX_POINT('',#1363);
#417=VERTEX_POINT('',#1369);
#418=VERTEX_POINT('',#1370);
#419=VERTEX_POINT('',#1372);
#420=VERTEX_POINT('',#1374);
#421=VERTEX_POINT('',#1376);
#422=VERTEX_POINT('',#1378);
#423=VERTEX_POINT('',#1382);
#424=VERTEX_POINT('',#1384);
#425=VERTEX_POINT('',#1388);
#426=VERTEX_POINT('',#1390);
#427=VERTEX_POINT('',#1394);
#428=VERTEX_POINT('',#1398);
#429=VERTEX_POINT('',#1401);
#430=VERTEX_POINT('',#1405);
#431=VERTEX_POINT('',#1409);
#432=VERTEX_POINT('',#1413);
#433=VERTEX_POINT('',#1420);
#434=VERTEX_POINT('',#1422);
#435=VERTEX_POINT('',#1429);
#436=VERTEX_POINT('',#1431);
#437=VERTEX_POINT('',#1438);
#438=VERTEX_POINT('',#1440);
#439=VERTEX_POINT('',#1445);
#440=VERTEX_POINT('',#1447);
#441=VERTEX_POINT('',#1451);
#442=VERTEX_POINT('',#1453);
#443=VERTEX_POINT('',#1457);
#444=VERTEX_POINT('',#1459);
#445=VERTEX_POINT('',#1465);
#446=VERTEX_POINT('',#1471);
#447=EDGE_CURVE('',#373,#374,#153,.T.);
#448=EDGE_CURVE('',#374,#375,#154,.T.);
#449=EDGE_CURVE('',#375,#376,#155,.T.);
#450=EDGE_CURVE('',#373,#376,#156,.T.);
#451=EDGE_CURVE('',#377,#378,#157,.T.);
#452=EDGE_CURVE('',#378,#379,#158,.T.);
#453=EDGE_CURVE('',#379,#380,#159,.T.);
#454=EDGE_CURVE('',#377,#380,#160,.T.);
#455=EDGE_CURVE('',#378,#381,#161,.T.);
#456=EDGE_CURVE('',#381,#382,#162,.T.);
#457=EDGE_CURVE('',#382,#379,#163,.T.);
#458=EDGE_CURVE('',#383,#384,#164,.T.);
#459=EDGE_CURVE('',#385,#383,#165,.T.);
#460=EDGE_CURVE('',#384,#385,#166,.T.);
#461=EDGE_CURVE('',#386,#387,#167,.T.);
#462=EDGE_CURVE('',#388,#386,#168,.T.);
#463=EDGE_CURVE('',#387,#388,#169,.T.);
#464=EDGE_CURVE('',#386,#385,#170,.T.);
#465=EDGE_CURVE('',#383,#388,#171,.T.);
#466=EDGE_CURVE('',#381,#389,#172,.T.);
#467=EDGE_CURVE('',#389,#390,#173,.T.);
#468=EDGE_CURVE('',#390,#382,#174,.T.);
#469=EDGE_CURVE('',#391,#392,#175,.T.);
#470=EDGE_CURVE('',#393,#391,#176,.T.);
#471=EDGE_CURVE('',#392,#393,#177,.T.);
#472=EDGE_CURVE('',#394,#395,#178,.T.);
#473=EDGE_CURVE('',#396,#394,#179,.T.);
#474=EDGE_CURVE('',#395,#396,#180,.T.);
#475=EDGE_CURVE('',#391,#396,#181,.T.);
#476=EDGE_CURVE('',#394,#393,#182,.T.);
#477=EDGE_CURVE('',#389,#395,#183,.T.);
#478=EDGE_CURVE('',#396,#390,#184,.T.);
#479=EDGE_CURVE('',#395,#387,#185,.T.);
#480=EDGE_CURVE('',#388,#394,#186,.T.);
#481=EDGE_CURVE('',#384,#392,#187,.T.);
#482=EDGE_CURVE('',#393,#383,#188,.T.);
#483=EDGE_CURVE('',#397,#391,#189,.T.);
#484=EDGE_CURVE('',#392,#398,#190,.T.);
#485=EDGE_CURVE('',#398,#397,#191,.T.);
#486=EDGE_CURVE('',#380,#386,#192,.T.);
#487=EDGE_CURVE('',#387,#377,#193,.T.);
#488=EDGE_CURVE('',#399,#397,#194,.T.);
#489=EDGE_CURVE('',#398,#400,#195,.T.);
#490=EDGE_CURVE('',#400,#399,#196,.T.);
#491=EDGE_CURVE('',#374,#384,#197,.T.);
#492=EDGE_CURVE('',#385,#375,#198,.T.);
#493=EDGE_CURVE('',#376,#399,#199,.T.);
#494=EDGE_CURVE('',#400,#373,#200,.T.);
#495=EDGE_CURVE('',#401,#379,#201,.T.);
#496=EDGE_CURVE('',#402,#401,#202,.T.);
#497=EDGE_CURVE('',#376,#402,#203,.T.);
#498=EDGE_CURVE('',#375,#380,#204,.T.);
#499=EDGE_CURVE('',#399,#382,#205,.T.);
#500=EDGE_CURVE('',#403,#402,#206,.T.);
#501=EDGE_CURVE('',#403,#404,#207,.T.);
#502=EDGE_CURVE('',#404,#405,#208,.T.);
#503=EDGE_CURVE('',#405,#406,#209,.T.);
#504=EDGE_CURVE('',#406,#407,#210,.T.);
#505=EDGE_CURVE('',#408,#407,#211,.T.);
#506=EDGE_CURVE('',#408,#401,#212,.T.);
#507=EDGE_CURVE('',#409,#409,#29,.T.);
#508=EDGE_CURVE('',#410,#410,#30,.T.);
#509=EDGE_CURVE('',#397,#390,#213,.T.);
#510=EDGE_CURVE('',#411,#411,#31,.T.);
#511=EDGE_CURVE('',#412,#412,#32,.T.);
#512=EDGE_CURVE('',#413,#414,#214,.T.);
#513=EDGE_CURVE('',#414,#415,#33,.T.);
#514=EDGE_CURVE('',#415,#416,#215,.T.);
#515=EDGE_CURVE('',#416,#413,#34,.T.);
#516=EDGE_CURVE('',#417,#418,#216,.T.);
#517=EDGE_CURVE('',#417,#419,#217,.T.);
#518=EDGE_CURVE('',#420,#419,#218,.T.);
#519=EDGE_CURVE('',#420,#421,#219,.T.);
#520=EDGE_CURVE('',#421,#422,#220,.T.);
#521=EDGE_CURVE('',#418,#422,#221,.T.);
#522=EDGE_CURVE('',#422,#423,#222,.T.);
#523=EDGE_CURVE('',#421,#424,#223,.T.);
#524=EDGE_CURVE('',#424,#423,#224,.T.);
#525=EDGE_CURVE('',#415,#425,#225,.T.);
#526=EDGE_CURVE('',#426,#425,#226,.T.);
#527=EDGE_CURVE('',#416,#426,#227,.T.);
#528=EDGE_CURVE('',#427,#426,#35,.T.);
#529=EDGE_CURVE('',#413,#427,#228,.T.);
#530=EDGE_CURVE('',#428,#420,#229,.T.);
#531=EDGE_CURVE('',#424,#428,#230,.T.);
#532=EDGE_CURVE('',#425,#429,#36,.T.);
#533=EDGE_CURVE('',#429,#427,#231,.T.);
#534=EDGE_CURVE('',#430,#417,#232,.T.);
#535=EDGE_CURVE('',#419,#430,#233,.T.);
#536=EDGE_CURVE('',#423,#431,#234,.T.);
#537=EDGE_CURVE('',#428,#431,#235,.T.);
#538=EDGE_CURVE('',#432,#430,#236,.T.);
#539=EDGE_CURVE('',#431,#432,#237,.T.);
#540=EDGE_CURVE('',#414,#429,#238,.T.);
#541=EDGE_CURVE('',#433,#433,#37,.T.);
#542=EDGE_CURVE('',#434,#434,#38,.T.);
#543=EDGE_CURVE('',#433,#412,#239,.T.);
#544=EDGE_CURVE('',#410,#434,#240,.T.);
#545=EDGE_CURVE('',#435,#435,#39,.T.);
#546=EDGE_CURVE('',#436,#436,#40,.T.);
#547=EDGE_CURVE('',#435,#411,#241,.T.);
#548=EDGE_CURVE('',#409,#436,#242,.T.);
#549=EDGE_CURVE('',#437,#432,#243,.T.);
#550=EDGE_CURVE('',#438,#437,#244,.T.);
#551=EDGE_CURVE('',#438,#407,#245,.T.);
#552=EDGE_CURVE('',#418,#406,#246,.T.);
#553=EDGE_CURVE('',#404,#439,#247,.T.);
#554=EDGE_CURVE('',#440,#403,#248,.T.);
#555=EDGE_CURVE('',#439,#440,#249,.T.);
#556=EDGE_CURVE('',#441,#402,#250,.T.);
#557=EDGE_CURVE('',#442,#441,#251,.T.);
#558=EDGE_CURVE('',#440,#442,#252,.T.);
#559=EDGE_CURVE('',#441,#443,#253,.T.);
#560=EDGE_CURVE('',#443,#444,#254,.T.);
#561=EDGE_CURVE('',#442,#444,#255,.T.);
#562=EDGE_CURVE('',#401,#443,#256,.T.);
#563=EDGE_CURVE('',#445,#438,#257,.T.);
#564=EDGE_CURVE('',#445,#408,#258,.T.);
#565=EDGE_CURVE('',#444,#445,#259,.T.);
#566=EDGE_CURVE('',#446,#439,#260,.T.);
#567=EDGE_CURVE('',#405,#446,#261,.T.);
#568=EDGE_CURVE('',#446,#437,#262,.T.);
#569=ORIENTED_EDGE('',*,*,#447,.T.);
#570=ORIENTED_EDGE('',*,*,#448,.T.);
#571=ORIENTED_EDGE('',*,*,#449,.T.);
#572=ORIENTED_EDGE('',*,*,#450,.F.);
#573=ORIENTED_EDGE('',*,*,#451,.T.);
#574=ORIENTED_EDGE('',*,*,#452,.T.);
#575=ORIENTED_EDGE('',*,*,#453,.T.);
#576=ORIENTED_EDGE('',*,*,#454,.F.);
#577=ORIENTED_EDGE('',*,*,#455,.T.);
#578=ORIENTED_EDGE('',*,*,#456,.T.);
#579=ORIENTED_EDGE('',*,*,#457,.T.);
#580=ORIENTED_EDGE('',*,*,#452,.F.);
#581=ORIENTED_EDGE('',*,*,#458,.F.);
#582=ORIENTED_EDGE('',*,*,#459,.F.);
#583=ORIENTED_EDGE('',*,*,#460,.F.);
#584=ORIENTED_EDGE('',*,*,#461,.F.);
#585=ORIENTED_EDGE('',*,*,#462,.F.);
#586=ORIENTED_EDGE('',*,*,#463,.F.);
#587=ORIENTED_EDGE('',*,*,#462,.T.);
#588=ORIENTED_EDGE('',*,*,#464,.T.);
#589=ORIENTED_EDGE('',*,*,#459,.T.);
#590=ORIENTED_EDGE('',*,*,#465,.T.);
#591=ORIENTED_EDGE('',*,*,#466,.T.);
#592=ORIENTED_EDGE('',*,*,#467,.T.);
#593=ORIENTED_EDGE('',*,*,#468,.T.);
#594=ORIENTED_EDGE('',*,*,#456,.F.);
#595=ORIENTED_EDGE('',*,*,#469,.F.);
#596=ORIENTED_EDGE('',*,*,#470,.F.);
#597=ORIENTED_EDGE('',*,*,#471,.F.);
#598=ORIENTED_EDGE('',*,*,#472,.F.);
#599=ORIENTED_EDGE('',*,*,#473,.F.);
#600=ORIENTED_EDGE('',*,*,#474,.F.);
#601=ORIENTED_EDGE('',*,*,#470,.T.);
#602=ORIENTED_EDGE('',*,*,#475,.T.);
#603=ORIENTED_EDGE('',*,*,#473,.T.);
#604=ORIENTED_EDGE('',*,*,#476,.T.);
#605=ORIENTED_EDGE('',*,*,#477,.T.);
#606=ORIENTED_EDGE('',*,*,#474,.T.);
#607=ORIENTED_EDGE('',*,*,#478,.T.);
#608=ORIENTED_EDGE('',*,*,#467,.F.);
#609=ORIENTED_EDGE('',*,*,#472,.T.);
#610=ORIENTED_EDGE('',*,*,#479,.T.);
#611=ORIENTED_EDGE('',*,*,#463,.T.);
#612=ORIENTED_EDGE('',*,*,#480,.T.);
#613=ORIENTED_EDGE('',*,*,#458,.T.);
#614=ORIENTED_EDGE('',*,*,#481,.T.);
#615=ORIENTED_EDGE('',*,*,#471,.T.);
#616=ORIENTED_EDGE('',*,*,#482,.T.);
#617=ORIENTED_EDGE('',*,*,#483,.T.);
#618=ORIENTED_EDGE('',*,*,#469,.T.);
#619=ORIENTED_EDGE('',*,*,#484,.T.);
#620=ORIENTED_EDGE('',*,*,#485,.T.);
#621=ORIENTED_EDGE('',*,*,#486,.T.);
#622=ORIENTED_EDGE('',*,*,#461,.T.);
#623=ORIENTED_EDGE('',*,*,#487,.T.);
#624=ORIENTED_EDGE('',*,*,#454,.T.);
#625=ORIENTED_EDGE('',*,*,#488,.T.);
#626=ORIENTED_EDGE('',*,*,#485,.F.);
#627=ORIENTED_EDGE('',*,*,#489,.T.);
#628=ORIENTED_EDGE('',*,*,#490,.T.);
#629=ORIENTED_EDGE('',*,*,#491,.T.);
#630=ORIENTED_EDGE('',*,*,#460,.T.);
#631=ORIENTED_EDGE('',*,*,#492,.T.);
#632=ORIENTED_EDGE('',*,*,#448,.F.);
#633=ORIENTED_EDGE('',*,*,#493,.T.);
#634=ORIENTED_EDGE('',*,*,#490,.F.);
#635=ORIENTED_EDGE('',*,*,#494,.T.);
#636=ORIENTED_EDGE('',*,*,#450,.T.);
#637=ORIENTED_EDGE('',*,*,#453,.F.);
#638=ORIENTED_EDGE('',*,*,#495,.F.);
#639=ORIENTED_EDGE('',*,*,#496,.F.);
#640=ORIENTED_EDGE('',*,*,#497,.F.);
#641=ORIENTED_EDGE('',*,*,#449,.F.);
#642=ORIENTED_EDGE('',*,*,#498,.T.);
#643=ORIENTED_EDGE('',*,*,#457,.F.);
#644=ORIENTED_EDGE('',*,*,#499,.F.);
#645=ORIENTED_EDGE('',*,*,#493,.F.);
#646=ORIENTED_EDGE('',*,*,#497,.T.);
#647=ORIENTED_EDGE('',*,*,#500,.F.);
#648=ORIENTED_EDGE('',*,*,#501,.T.);
#649=ORIENTED_EDGE('',*,*,#502,.T.);
#650=ORIENTED_EDGE('',*,*,#503,.T.);
#651=ORIENTED_EDGE('',*,*,#504,.T.);
#652=ORIENTED_EDGE('',*,*,#505,.F.);
#653=ORIENTED_EDGE('',*,*,#506,.T.);
#654=ORIENTED_EDGE('',*,*,#495,.T.);
#655=ORIENTED_EDGE('',*,*,#507,.T.);
#656=ORIENTED_EDGE('',*,*,#508,.T.);
#657=ORIENTED_EDGE('',*,*,#468,.F.);
#658=ORIENTED_EDGE('',*,*,#509,.F.);
#659=ORIENTED_EDGE('',*,*,#488,.F.);
#660=ORIENTED_EDGE('',*,*,#499,.T.);
#661=ORIENTED_EDGE('',*,*,#478,.F.);
#662=ORIENTED_EDGE('',*,*,#475,.F.);
#663=ORIENTED_EDGE('',*,*,#483,.F.);
#664=ORIENTED_EDGE('',*,*,#509,.T.);
#665=ORIENTED_EDGE('',*,*,#510,.T.);
#666=ORIENTED_EDGE('',*,*,#511,.T.);
#667=ORIENTED_EDGE('',*,*,#451,.F.);
#668=ORIENTED_EDGE('',*,*,#487,.F.);
#669=ORIENTED_EDGE('',*,*,#479,.F.);
#670=ORIENTED_EDGE('',*,*,#477,.F.);
#671=ORIENTED_EDGE('',*,*,#466,.F.);
#672=ORIENTED_EDGE('',*,*,#455,.F.);
#673=ORIENTED_EDGE('',*,*,#512,.T.);
#674=ORIENTED_EDGE('',*,*,#513,.T.);
#675=ORIENTED_EDGE('',*,*,#514,.T.);
#676=ORIENTED_EDGE('',*,*,#515,.T.);
#677=ORIENTED_EDGE('',*,*,#476,.F.);
#678=ORIENTED_EDGE('',*,*,#480,.F.);
#679=ORIENTED_EDGE('',*,*,#465,.F.);
#680=ORIENTED_EDGE('',*,*,#482,.F.);
#681=ORIENTED_EDGE('',*,*,#481,.F.);
#682=ORIENTED_EDGE('',*,*,#491,.F.);
#683=ORIENTED_EDGE('',*,*,#447,.F.);
#684=ORIENTED_EDGE('',*,*,#494,.F.);
#685=ORIENTED_EDGE('',*,*,#489,.F.);
#686=ORIENTED_EDGE('',*,*,#484,.F.);
#687=ORIENTED_EDGE('',*,*,#516,.F.);
#688=ORIENTED_EDGE('',*,*,#517,.T.);
#689=ORIENTED_EDGE('',*,*,#518,.F.);
#690=ORIENTED_EDGE('',*,*,#519,.T.);
#691=ORIENTED_EDGE('',*,*,#520,.T.);
#692=ORIENTED_EDGE('',*,*,#521,.F.);
#693=ORIENTED_EDGE('',*,*,#522,.F.);
#694=ORIENTED_EDGE('',*,*,#520,.F.);
#695=ORIENTED_EDGE('',*,*,#523,.T.);
#696=ORIENTED_EDGE('',*,*,#524,.T.);
#697=ORIENTED_EDGE('',*,*,#514,.F.);
#698=ORIENTED_EDGE('',*,*,#525,.T.);
#699=ORIENTED_EDGE('',*,*,#526,.F.);
#700=ORIENTED_EDGE('',*,*,#527,.F.);
#701=ORIENTED_EDGE('',*,*,#515,.F.);
#702=ORIENTED_EDGE('',*,*,#527,.T.);
#703=ORIENTED_EDGE('',*,*,#528,.F.);
#704=ORIENTED_EDGE('',*,*,#529,.F.);
#705=ORIENTED_EDGE('',*,*,#530,.F.);
#706=ORIENTED_EDGE('',*,*,#531,.F.);
#707=ORIENTED_EDGE('',*,*,#523,.F.);
#708=ORIENTED_EDGE('',*,*,#519,.F.);
#709=ORIENTED_EDGE('',*,*,#528,.T.);
#710=ORIENTED_EDGE('',*,*,#526,.T.);
#711=ORIENTED_EDGE('',*,*,#532,.T.);
#712=ORIENTED_EDGE('',*,*,#533,.T.);
#713=ORIENTED_EDGE('',*,*,#534,.F.);
#714=ORIENTED_EDGE('',*,*,#535,.F.);
#715=ORIENTED_EDGE('',*,*,#517,.F.);
#716=ORIENTED_EDGE('',*,*,#536,.F.);
#717=ORIENTED_EDGE('',*,*,#524,.F.);
#718=ORIENTED_EDGE('',*,*,#531,.T.);
#719=ORIENTED_EDGE('',*,*,#537,.T.);
#720=ORIENTED_EDGE('',*,*,#538,.F.);
#721=ORIENTED_EDGE('',*,*,#539,.F.);
#722=ORIENTED_EDGE('',*,*,#537,.F.);
#723=ORIENTED_EDGE('',*,*,#530,.T.);
#724=ORIENTED_EDGE('',*,*,#518,.T.);
#725=ORIENTED_EDGE('',*,*,#535,.T.);
#726=ORIENTED_EDGE('',*,*,#512,.F.);
#727=ORIENTED_EDGE('',*,*,#529,.T.);
#728=ORIENTED_EDGE('',*,*,#533,.F.);
#729=ORIENTED_EDGE('',*,*,#540,.F.);
#730=ORIENTED_EDGE('',*,*,#513,.F.);
#731=ORIENTED_EDGE('',*,*,#540,.T.);
#732=ORIENTED_EDGE('',*,*,#532,.F.);
#733=ORIENTED_EDGE('',*,*,#525,.F.);
#734=ORIENTED_EDGE('',*,*,#541,.F.);
#735=ORIENTED_EDGE('',*,*,#542,.T.);
#736=ORIENTED_EDGE('',*,*,#541,.T.);
#737=ORIENTED_EDGE('',*,*,#543,.T.);
#738=ORIENTED_EDGE('',*,*,#511,.F.);
#739=ORIENTED_EDGE('',*,*,#543,.F.);
#740=ORIENTED_EDGE('',*,*,#508,.F.);
#741=ORIENTED_EDGE('',*,*,#544,.T.);
#742=ORIENTED_EDGE('',*,*,#542,.F.);
#743=ORIENTED_EDGE('',*,*,#544,.F.);
#744=ORIENTED_EDGE('',*,*,#545,.F.);
#745=ORIENTED_EDGE('',*,*,#546,.T.);
#746=ORIENTED_EDGE('',*,*,#545,.T.);
#747=ORIENTED_EDGE('',*,*,#547,.T.);
#748=ORIENTED_EDGE('',*,*,#510,.F.);
#749=ORIENTED_EDGE('',*,*,#547,.F.);
#750=ORIENTED_EDGE('',*,*,#507,.F.);
#751=ORIENTED_EDGE('',*,*,#548,.T.);
#752=ORIENTED_EDGE('',*,*,#546,.F.);
#753=ORIENTED_EDGE('',*,*,#548,.F.);
#754=ORIENTED_EDGE('',*,*,#521,.T.);
#755=ORIENTED_EDGE('',*,*,#522,.T.);
#756=ORIENTED_EDGE('',*,*,#536,.T.);
#757=ORIENTED_EDGE('',*,*,#539,.T.);
#758=ORIENTED_EDGE('',*,*,#549,.F.);
#759=ORIENTED_EDGE('',*,*,#550,.F.);
#760=ORIENTED_EDGE('',*,*,#551,.T.);
#761=ORIENTED_EDGE('',*,*,#504,.F.);
#762=ORIENTED_EDGE('',*,*,#552,.F.);
#763=ORIENTED_EDGE('',*,*,#553,.F.);
#764=ORIENTED_EDGE('',*,*,#501,.F.);
#765=ORIENTED_EDGE('',*,*,#554,.F.);
#766=ORIENTED_EDGE('',*,*,#555,.F.);
#767=ORIENTED_EDGE('',*,*,#500,.T.);
#768=ORIENTED_EDGE('',*,*,#556,.F.);
#769=ORIENTED_EDGE('',*,*,#557,.F.);
#770=ORIENTED_EDGE('',*,*,#558,.F.);
#771=ORIENTED_EDGE('',*,*,#554,.T.);
#772=ORIENTED_EDGE('',*,*,#557,.T.);
#773=ORIENTED_EDGE('',*,*,#559,.T.);
#774=ORIENTED_EDGE('',*,*,#560,.T.);
#775=ORIENTED_EDGE('',*,*,#561,.F.);
#776=ORIENTED_EDGE('',*,*,#556,.T.);
#777=ORIENTED_EDGE('',*,*,#496,.T.);
#778=ORIENTED_EDGE('',*,*,#562,.T.);
#779=ORIENTED_EDGE('',*,*,#559,.F.);
#780=ORIENTED_EDGE('',*,*,#551,.F.);
#781=ORIENTED_EDGE('',*,*,#563,.F.);
#782=ORIENTED_EDGE('',*,*,#564,.T.);
#783=ORIENTED_EDGE('',*,*,#505,.T.);
#784=ORIENTED_EDGE('',*,*,#506,.F.);
#785=ORIENTED_EDGE('',*,*,#564,.F.);
#786=ORIENTED_EDGE('',*,*,#565,.F.);
#787=ORIENTED_EDGE('',*,*,#560,.F.);
#788=ORIENTED_EDGE('',*,*,#562,.F.);
#789=ORIENTED_EDGE('',*,*,#553,.T.);
#790=ORIENTED_EDGE('',*,*,#566,.F.);
#791=ORIENTED_EDGE('',*,*,#567,.F.);
#792=ORIENTED_EDGE('',*,*,#502,.F.);
#793=ORIENTED_EDGE('',*,*,#516,.T.);
#794=ORIENTED_EDGE('',*,*,#552,.T.);
#795=ORIENTED_EDGE('',*,*,#503,.F.);
#796=ORIENTED_EDGE('',*,*,#567,.T.);
#797=ORIENTED_EDGE('',*,*,#568,.T.);
#798=ORIENTED_EDGE('',*,*,#549,.T.);
#799=ORIENTED_EDGE('',*,*,#538,.T.);
#800=ORIENTED_EDGE('',*,*,#534,.T.);
#801=ORIENTED_EDGE('',*,*,#558,.T.);
#802=ORIENTED_EDGE('',*,*,#561,.T.);
#803=ORIENTED_EDGE('',*,*,#565,.T.);
#804=ORIENTED_EDGE('',*,*,#563,.T.);
#805=ORIENTED_EDGE('',*,*,#550,.T.);
#806=ORIENTED_EDGE('',*,*,#568,.F.);
#807=ORIENTED_EDGE('',*,*,#566,.T.);
#808=ORIENTED_EDGE('',*,*,#555,.T.);
#809=ORIENTED_EDGE('',*,*,#486,.F.);
#810=ORIENTED_EDGE('',*,*,#498,.F.);
#811=ORIENTED_EDGE('',*,*,#492,.F.);
#812=ORIENTED_EDGE('',*,*,#464,.F.);
#813=PLANE('',#925);
#814=PLANE('',#926);
#815=PLANE('',#927);
#816=PLANE('',#928);
#817=PLANE('',#929);
#818=PLANE('',#930);
#819=PLANE('',#931);
#820=PLANE('',#932);
#821=PLANE('',#933);
#822=PLANE('',#934);
#823=PLANE('',#935);
#824=PLANE('',#936);
#825=PLANE('',#937);
#826=PLANE('',#938);
#827=PLANE('',#939);
#828=PLANE('',#940);
#829=PLANE('',#941);
#830=PLANE('',#942);
#831=PLANE('',#943);
#832=PLANE('',#944);
#833=PLANE('',#947);
#834=PLANE('',#948);
#835=PLANE('',#951);
#836=PLANE('',#954);
#837=PLANE('',#955);
#838=PLANE('',#956);
#839=PLANE('',#957);
#840=PLANE('',#958);
#841=PLANE('',#961);
#842=PLANE('',#963);
#843=PLANE('',#964);
#844=PLANE('',#965);
#845=PLANE('',#966);
#846=PLANE('',#968);
#847=PLANE('',#973);
#848=PLANE('',#978);
#849=PLANE('',#979);
#850=PLANE('',#980);
#851=PLANE('',#981);
#852=PLANE('',#982);
#853=PLANE('',#983);
#854=PLANE('',#984);
#855=PLANE('',#985);
#856=PLANE('',#986);
#857=PLANE('',#987);
#858=PLANE('',#988);
#859=ADVANCED_FACE('',(#41),#813,.T.);
#860=ADVANCED_FACE('',(#42),#814,.T.);
#861=ADVANCED_FACE('',(#43),#815,.T.);
#862=ADVANCED_FACE('',(#44),#816,.T.);
#863=ADVANCED_FACE('',(#45),#817,.T.);
#864=ADVANCED_FACE('',(#46),#818,.T.);
#865=ADVANCED_FACE('',(#47),#819,.T.);
#866=ADVANCED_FACE('',(#48),#820,.T.);
#867=ADVANCED_FACE('',(#49),#821,.T.);
#868=ADVANCED_FACE('',(#50),#822,.T.);
#869=ADVANCED_FACE('',(#51),#823,.T.);
#870=ADVANCED_FACE('',(#52),#824,.T.);
#871=ADVANCED_FACE('',(#53),#825,.T.);
#872=ADVANCED_FACE('',(#54),#826,.T.);
#873=ADVANCED_FACE('',(#55),#827,.T.);
#874=ADVANCED_FACE('',(#56),#828,.T.);
#875=ADVANCED_FACE('',(#57),#829,.T.);
#876=ADVANCED_FACE('',(#58),#830,.T.);
#877=ADVANCED_FACE('',(#59),#831,.T.);
#878=ADVANCED_FACE('',(#60,#21,#22),#832,.T.);
#879=ADVANCED_FACE('',(#61),#833,.T.);
#880=ADVANCED_FACE('',(#62,#23,#24),#834,.T.);
#881=ADVANCED_FACE('',(#63,#25),#835,.T.);
#882=ADVANCED_FACE('',(#64),#836,.T.);
#883=ADVANCED_FACE('',(#65),#837,.T.);
#884=ADVANCED_FACE('',(#66),#838,.T.);
#885=ADVANCED_FACE('',(#67),#839,.T.);
#886=ADVANCED_FACE('',(#68),#840,.T.);
#887=ADVANCED_FACE('',(#69),#15,.F.);
#888=ADVANCED_FACE('',(#70,#26),#841,.F.);
#889=ADVANCED_FACE('',(#71),#842,.T.);
#890=ADVANCED_FACE('',(#72),#843,.T.);
#891=ADVANCED_FACE('',(#73),#844,.T.);
#892=ADVANCED_FACE('',(#74),#845,.T.);
#893=ADVANCED_FACE('',(#75),#16,.F.);
#894=ADVANCED_FACE('',(#76,#27),#846,.F.);
#895=ADVANCED_FACE('',(#77),#17,.F.);
#896=ADVANCED_FACE('',(#78),#18,.F.);
#897=ADVANCED_FACE('',(#79,#28),#847,.F.);
#898=ADVANCED_FACE('',(#80),#19,.F.);
#899=ADVANCED_FACE('',(#81),#20,.F.);
#900=ADVANCED_FACE('',(#82),#848,.F.);
#901=ADVANCED_FACE('',(#83),#849,.T.);
#902=ADVANCED_FACE('',(#84),#850,.T.);
#903=ADVANCED_FACE('',(#85),#851,.F.);
#904=ADVANCED_FACE('',(#86),#852,.F.);
#905=ADVANCED_FACE('',(#87),#853,.T.);
#906=ADVANCED_FACE('',(#88),#854,.F.);
#907=ADVANCED_FACE('',(#89),#855,.F.);
#908=ADVANCED_FACE('',(#90),#856,.F.);
#909=ADVANCED_FACE('',(#91),#857,.F.);
#910=ADVANCED_FACE('',(#92),#858,.T.);
#911=CLOSED_SHELL('',(#859,#860,#861,#862,#863,#864,#865,#866,#867,#868,
#869,#870,#871,#872,#873,#874,#875,#876,#877,#878,#879,#880,#881,#882,#883,
#884,#885,#886,#887,#888,#889,#890,#891,#892,#893,#894,#895,#896,#897,#898,
#899,#900,#901,#902,#903,#904,#905,#906,#907,#908,#909,#910));
#912=DERIVED_UNIT_ELEMENT(#914,1.);
#913=DERIVED_UNIT_ELEMENT(#1483,-3.);
#914=(
MASS_UNIT()
NAMED_UNIT(*)
SI_UNIT(.KILO.,.GRAM.)
);
#915=DERIVED_UNIT((#912,#913));
#916=MEASURE_REPRESENTATION_ITEM('density measure',
POSITIVE_RATIO_MEASURE(7850.),#915);
#917=PROPERTY_DEFINITION_REPRESENTATION(#922,#919);
#918=PROPERTY_DEFINITION_REPRESENTATION(#923,#920);
#919=REPRESENTATION('material name',(#921),#1480);
#920=REPRESENTATION('density',(#916),#1480);
#921=DESCRIPTIVE_REPRESENTATION_ITEM('Steel','Steel');
#922=PROPERTY_DEFINITION('material property','material name',#1490);
#923=PROPERTY_DEFINITION('material property','density of part',#1490);
#924=AXIS2_PLACEMENT_3D('',#1229,#989,#990);
#925=AXIS2_PLACEMENT_3D('',#1230,#991,#992);
#926=AXIS2_PLACEMENT_3D('',#1239,#997,#998);
#927=AXIS2_PLACEMENT_3D('',#1248,#1003,#1004);
#928=AXIS2_PLACEMENT_3D('',#1254,#1008,#1009);
#929=AXIS2_PLACEMENT_3D('',#1261,#1013,#1014);
#930=AXIS2_PLACEMENT_3D('',#1268,#1018,#1019);
#931=AXIS2_PLACEMENT_3D('',#1271,#1022,#1023);
#932=AXIS2_PLACEMENT_3D('',#1277,#1027,#1028);
#933=AXIS2_PLACEMENT_3D('',#1284,#1032,#1033);
#934=AXIS2_PLACEMENT_3D('',#1291,#1037,#1038);
#935=AXIS2_PLACEMENT_3D('',#1294,#1041,#1042);
#936=AXIS2_PLACEMENT_3D('',#1297,#1045,#1046);
#937=AXIS2_PLACEMENT_3D('',#1300,#1049,#1050);
#938=AXIS2_PLACEMENT_3D('',#1303,#1053,#1054);
#939=AXIS2_PLACEMENT_3D('',#1309,#1058,#1059);
#940=AXIS2_PLACEMENT_3D('',#1312,#1062,#1063);
#941=AXIS2_PLACEMENT_3D('',#1318,#1067,#1068);
#942=AXIS2_PLACEMENT_3D('',#1321,#1071,#1072);
#943=AXIS2_PLACEMENT_3D('',#1324,#1075,#1076);
#944=AXIS2_PLACEMENT_3D('',#1331,#1081,#1082);
#945=AXIS2_PLACEMENT_3D('',#1347,#1091,#1092);
#946=AXIS2_PLACEMENT_3D('',#1349,#1093,#1094);
#947=AXIS2_PLACEMENT_3D('',#1350,#1095,#1096);
#948=AXIS2_PLACEMENT_3D('',#1352,#1098,#1099);
#949=AXIS2_PLACEMENT_3D('',#1354,#1100,#1101);
#950=AXIS2_PLACEMENT_3D('',#1356,#1102,#1103);
#951=AXIS2_PLACEMENT_3D('',#1357,#1104,#1105);
#952=AXIS2_PLACEMENT_3D('',#1362,#1107,#1108);
#953=AXIS2_PLACEMENT_3D('',#1365,#1110,#1111);
#954=AXIS2_PLACEMENT_3D('',#1366,#1112,#1113);
#955=AXIS2_PLACEMENT_3D('',#1367,#1114,#1115);
#956=AXIS2_PLACEMENT_3D('',#1368,#1116,#1117);
#957=AXIS2_PLACEMENT_3D('',#1381,#1124,#1125);
#958=AXIS2_PLACEMENT_3D('',#1387,#1129,#1130);
#959=AXIS2_PLACEMENT_3D('',#1393,#1134,#1135);
#960=AXIS2_PLACEMENT_3D('',#1395,#1136,#1137);
#961=AXIS2_PLACEMENT_3D('',#1397,#1139,#1140);
#962=AXIS2_PLACEMENT_3D('',#1402,#1143,#1144);
#963=AXIS2_PLACEMENT_3D('',#1404,#1146,#1147);
#964=AXIS2_PLACEMENT_3D('',#1408,#1150,#1151);
#965=AXIS2_PLACEMENT_3D('',#1412,#1154,#1155);
#966=AXIS2_PLACEMENT_3D('',#1416,#1158,#1159);
#967=AXIS2_PLACEMENT_3D('',#1418,#1161,#1162);
#968=AXIS2_PLACEMENT_3D('',#1419,#1163,#1164);
#969=AXIS2_PLACEMENT_3D('',#1421,#1165,#1166);
#970=AXIS2_PLACEMENT_3D('',#1423,#1167,#1168);
#971=AXIS2_PLACEMENT_3D('',#1424,#1169,#1170);
#972=AXIS2_PLACEMENT_3D('',#1426,#1172,#1173);
#973=AXIS2_PLACEMENT_3D('',#1428,#1175,#1176);
#974=AXIS2_PLACEMENT_3D('',#1430,#1177,#1178);
#975=AXIS2_PLACEMENT_3D('',#1432,#1179,#1180);
#976=AXIS2_PLACEMENT_3D('',#1433,#1181,#1182);
#977=AXIS2_PLACEMENT_3D('',#1435,#1184,#1185);
#978=AXIS2_PLACEMENT_3D('',#1437,#1187,#1188);
#979=AXIS2_PLACEMENT_3D('',#1444,#1193,#1194);
#980=AXIS2_PLACEMENT_3D('',#1450,#1198,#1199);
#981=AXIS2_PLACEMENT_3D('',#1456,#1203,#1204);
#982=AXIS2_PLACEMENT_3D('',#1462,#1208,#1209);
#983=AXIS2_PLACEMENT_3D('',#1464,#1211,#1212);
#984=AXIS2_PLACEMENT_3D('',#1468,#1215,#1216);
#985=AXIS2_PLACEMENT_3D('',#1470,#1218,#1219);
#986=AXIS2_PLACEMENT_3D('',#1474,#1222,#1223);
#987=AXIS2_PLACEMENT_3D('',#1476,#1225,#1226);
#988=AXIS2_PLACEMENT_3D('',#1477,#1227,#1228);
#989=DIRECTION('axis',(0.,0.,1.));
#990=DIRECTION('refdir',(1.,0.,0.));
#991=DIRECTION('center_axis',(0.122787803968973,0.696364240320018,-0.707106781186549));
#992=DIRECTION('ref_axis',(-0.985255774317392,0.,-0.171087869746035));
#993=DIRECTION('',(-0.984807753012208,0.17364817766693,0.));
#994=DIRECTION('',(-0.468323199181339,0.66883484342192,0.577350269189625));
#995=DIRECTION('',(0.984807753012208,-0.17364817766693,0.));
#996=DIRECTION('',(-0.468323199181341,0.668834843421919,0.577350269189624));
#997=DIRECTION('center_axis',(0.122787803968973,0.696364240320018,0.707106781186549));
#998=DIRECTION('ref_axis',(0.985255774317392,0.,-0.171087869746035));
#999=DIRECTION('',(0.984807753012208,-0.17364817766693,0.));
#1000=DIRECTION('',(-0.468323199181341,0.668834843421918,-0.577350269189624));
#1001=DIRECTION('',(-0.984807753012208,0.17364817766693,0.));
#1002=DIRECTION('',(-0.46832319918134,0.668834843421919,-0.577350269189625));
#1003=DIRECTION('center_axis',(-0.696364240320016,0.122787803968972,0.707106781186551));
#1004=DIRECTION('ref_axis',(0.712498293208673,0.,0.70167384315986));
#1005=DIRECTION('',(0.17364817766693,0.984807753012208,0.));
#1006=DIRECTION('',(-0.168457096631681,0.929765671640286,-0.327349969350408));
#1007=DIRECTION('',(-0.17364817766693,-0.984807753012208,0.));
#1008=DIRECTION('center_axis',(-0.601194931718991,-0.504462445471057,-0.619743733477604));
#1009=DIRECTION('ref_axis',(-0.717766495010693,0.,0.696283892273881));
#1010=DIRECTION('',(0.134360797925322,0.700695074900943,-0.70069507490094));
#1011=DIRECTION('',(0.64278760968654,-0.766044443118977,0.));
#1012=DIRECTION('',(-0.713381449969524,-0.0106451326410244,0.70069507490094));
#1013=DIRECTION('center_axis',(-0.601194931718991,-0.504462445471057,0.619743733477604));
#1014=DIRECTION('ref_axis',(0.717766495010693,0.,0.696283892273881));
#1015=DIRECTION('',(0.713381449969524,0.0106451326410229,0.70069507490094));
#1016=DIRECTION('',(-0.64278760968654,0.766044443118977,0.));
#1017=DIRECTION('',(-0.134360797925322,-0.700695074900943,-0.70069507490094));
#1018=DIRECTION('center_axis',(-0.766044443118977,-0.64278760968654,0.));
#1019=DIRECTION('ref_axis',(0.,0.,1.));
#1020=DIRECTION('',(0.,0.,-1.));
#1021=DIRECTION('',(0.,0.,1.));
#1022=DIRECTION('center_axis',(0.609018445062027,0.359300060637663,0.70710678118655));
#1023=DIRECTION('ref_axis',(0.75770471993301,0.,-0.652597546265107));
#1024=DIRECTION('',(0.508127018715259,-0.861282144742095,0.));
#1025=DIRECTION('',(0.717644683602765,0.130024524996293,-0.684163526502382));
#1026=DIRECTION('',(-0.508127018715259,0.861282144742095,0.));
#1027=DIRECTION('center_axis',(0.535830358272188,-0.638577754491916,-0.55236245221952));
#1028=DIRECTION('ref_axis',(-0.717766495010693,0.,-0.69628389227388));
#1029=DIRECTION('',(-0.711530460178606,0.0106736804522989,-0.702574178847773));
#1030=DIRECTION('',(0.766044443118974,0.642787609686544,0.));
#1031=DIRECTION('',(-0.113044444501918,-0.702574178847777,0.702574178847774));
#1032=DIRECTION('center_axis',(0.535830358272188,-0.638577754491916,0.552362452219519));
#1033=DIRECTION('ref_axis',(0.717766495010693,0.,-0.696283892273881));
#1034=DIRECTION('',(0.113044444501918,0.702574178847777,0.702574178847774));
#1035=DIRECTION('',(-0.766044443118974,-0.642787609686544,0.));
#1036=DIRECTION('',(0.711530460178606,-0.0106736804522989,-0.702574178847773));
#1037=DIRECTION('center_axis',(0.642787609686544,-0.766044443118974,0.));
#1038=DIRECTION('ref_axis',(0.,0.,-1.));
#1039=DIRECTION('',(0.,0.,1.));
#1040=DIRECTION('',(0.,0.,-1.));
#1041=DIRECTION('center_axis',(0.696364240320017,-0.122787803968973,0.707106781186549));
#1042=DIRECTION('ref_axis',(0.712498293208671,0.,-0.701673843159862));
#1043=DIRECTION('',(-0.17364817766693,-0.984807753012208,0.));
#1044=DIRECTION('',(0.17364817766693,0.984807753012208,0.));
#1045=DIRECTION('center_axis',(0.,-0.707106781186546,0.707106781186549));
#1046=DIRECTION('ref_axis',(1.,0.,0.));
#1047=DIRECTION('',(-1.,0.,0.));
#1048=DIRECTION('',(1.,0.,0.));
#1049=DIRECTION('center_axis',(0.,-0.707106781186546,-0.707106781186549));
#1050=DIRECTION('ref_axis',(-1.,0.,0.));
#1051=DIRECTION('',(1.,0.,0.));
#1052=DIRECTION('',(-1.,0.,0.));
#1053=DIRECTION('center_axis',(0.696364240320017,-0.122787803968973,-0.707106781186549));
#1054=DIRECTION('ref_axis',(-0.712498293208671,0.,-0.701673843159862));
#1055=DIRECTION('',(-0.17364817766693,-0.984807753012208,0.));
#1056=DIRECTION('',(0.17364817766693,0.984807753012208,0.));
#1057=DIRECTION('',(0.717644683602765,0.130024524996295,0.684163526502382));
#1058=DIRECTION('center_axis',(-0.696364240320018,0.122787803968973,0.707106781186548));
#1059=DIRECTION('ref_axis',(0.712498293208671,0.,0.701673843159863));
#1060=DIRECTION('',(-0.17364817766693,-0.984807753012208,0.));
#1061=DIRECTION('',(0.17364817766693,0.984807753012208,0.));
#1062=DIRECTION('center_axis',(0.609018445062027,0.359300060637663,-0.70710678118655));
#1063=DIRECTION('ref_axis',(-0.75770471993301,0.,-0.652597546265107));
#1064=DIRECTION('',(0.508127018715259,-0.861282144742095,0.));
#1065=DIRECTION('',(-0.508127018715259,0.861282144742095,0.));
#1066=DIRECTION('',(-0.168457096631681,0.929765671640286,0.327349969350408));
#1067=DIRECTION('center_axis',(-0.696364240320018,0.122787803968973,-0.707106781186548));
#1068=DIRECTION('ref_axis',(-0.712498293208671,0.,0.701673843159863));
#1069=DIRECTION('',(-0.17364817766693,-0.984807753012208,0.));
#1070=DIRECTION('',(0.17364817766693,0.984807753012208,0.));
#1071=DIRECTION('center_axis',(-0.696364240320016,0.122787803968972,-0.707106781186551));
#1072=DIRECTION('ref_axis',(-0.712498293208673,0.,0.70167384315986));
#1073=DIRECTION('',(0.17364817766693,0.984807753012208,0.));
#1074=DIRECTION('',(-0.17364817766693,-0.984807753012208,0.));
#1075=DIRECTION('center_axis',(0.17364817766693,0.984807753012208,0.));
#1076=DIRECTION('ref_axis',(-0.984807753012208,0.17364817766693,0.));
#1077=DIRECTION('',(0.,0.,1.));
#1078=DIRECTION('',(0.,0.,1.));
#1079=DIRECTION('',(0.,0.,1.));
#1080=DIRECTION('',(0.,0.,1.));
#1081=DIRECTION('center_axis',(-0.984807753012208,0.17364817766693,0.));
#1082=DIRECTION('ref_axis',(-0.17364817766693,-0.984807753012208,0.));
#1083=DIRECTION('',(0.,0.,1.));
#1084=DIRECTION('',(-0.17364817766693,-0.984807753012208,0.));
#1085=DIRECTION('',(0.,0.,-1.));
#1086=DIRECTION('',(0.17364817766693,0.984807753012208,0.));
#1087=DIRECTION('',(0.,0.,1.));
#1088=DIRECTION('',(-0.17364817766693,-0.984807753012208,0.));
#1089=DIRECTION('',(0.,0.,1.));
#1090=DIRECTION('',(-0.17364817766693,-0.984807753012208,0.));
#1091=DIRECTION('center_axis',(0.984807753012208,-0.17364817766693,0.));
#1092=DIRECTION('ref_axis',(0.17364817766693,0.984807753012208,0.));
#1093=DIRECTION('center_axis',(0.984807753012208,-0.17364817766693,0.));
#1094=DIRECTION('ref_axis',(0.17364817766693,0.984807753012208,0.));
#1095=DIRECTION('center_axis',(0.861282144742095,0.508127018715259,0.));
#1096=DIRECTION('ref_axis',(-0.508127018715259,0.861282144742095,0.));
#1097=DIRECTION('',(0.,0.,1.));
#1098=DIRECTION('center_axis',(0.984807753012208,-0.17364817766693,0.));
#1099=DIRECTION('ref_axis',(0.17364817766693,0.984807753012208,0.));
#1100=DIRECTION('center_axis',(-0.984807753012208,0.17364817766693,0.));
#1101=DIRECTION('ref_axis',(0.173648177666931,0.984807753012208,0.));
#1102=DIRECTION('center_axis',(-0.984807753012208,0.17364817766693,0.));
#1103=DIRECTION('ref_axis',(0.173648177666931,0.984807753012208,0.));
#1104=DIRECTION('center_axis',(0.,0.,1.));
#1105=DIRECTION('ref_axis',(1.,0.,0.));
#1106=DIRECTION('',(0.984807753012208,-0.17364817766693,0.));
#1107=DIRECTION('center_axis',(0.,0.,-1.));
#1108=DIRECTION('ref_axis',(1.,0.,0.));
#1109=DIRECTION('',(-0.984807753012208,0.17364817766693,0.));
#1110=DIRECTION('center_axis',(0.,0.,-1.));
#1111=DIRECTION('ref_axis',(1.,0.,0.));
#1112=DIRECTION('center_axis',(0.,-1.,0.));
#1113=DIRECTION('ref_axis',(1.,0.,0.));
#1114=DIRECTION('center_axis',(0.,0.,-1.));
#1115=DIRECTION('ref_axis',(-1.,0.,0.));
#1116=DIRECTION('center_axis',(-0.17364817766693,-0.984807753012208,0.));
#1117=DIRECTION('ref_axis',(0.,0.,-1.));
#1118=DIRECTION('',(0.,0.,1.));
#1119=DIRECTION('',(0.984807753012208,-0.17364817766693,0.));
#1120=DIRECTION('',(0.,0.,-1.));
#1121=DIRECTION('',(-0.984807753012208,0.17364817766693,0.));
#1122=DIRECTION('',(0.,0.,-1.));
#1123=DIRECTION('',(-0.984807753012208,0.17364817766693,0.));
#1124=DIRECTION('center_axis',(0.984807753012208,-0.17364817766693,0.));
#1125=DIRECTION('ref_axis',(0.,0.,-1.));
#1126=DIRECTION('',(-0.17364817766693,-0.984807753012208,0.));
#1127=DIRECTION('',(-0.17364817766693,-0.984807753012208,0.));
#1128=DIRECTION('',(0.,0.,-1.));
#1129=DIRECTION('center_axis',(0.17364817766693,0.984807753012208,0.));
#1130=DIRECTION('ref_axis',(0.,0.,1.));
#1131=DIRECTION('',(0.,0.,-1.));
#1132=DIRECTION('',(0.984807753012208,-0.17364817766693,0.));
#1133=DIRECTION('',(0.,0.,-1.));
#1134=DIRECTION('center_axis',(0.,0.,1.));
#1135=DIRECTION('ref_axis',(-0.984807753012208,0.17364817766693,0.));
#1136=DIRECTION('center_axis',(0.,0.,1.));
#1137=DIRECTION('ref_axis',(1.,0.,0.));
#1138=DIRECTION('',(0.,0.,-1.));
#1139=DIRECTION('center_axis',(0.,0.,1.));
#1140=DIRECTION('ref_axis',(0.984807753012208,-0.17364817766693,0.));
#1141=DIRECTION('',(0.17364817766693,0.984807753012208,0.));
#1142=DIRECTION('',(0.984807753012208,-0.17364817766693,0.));
#1143=DIRECTION('center_axis',(0.,0.,1.));
#1144=DIRECTION('ref_axis',(1.,0.,0.));
#1145=DIRECTION('',(-0.984807753012208,0.17364817766693,0.));
#1146=DIRECTION('center_axis',(0.,0.,1.));
#1147=DIRECTION('ref_axis',(0.984807753012208,-0.17364817766693,0.));
#1148=DIRECTION('',(-0.50812701871526,0.861282144742095,0.));
#1149=DIRECTION('',(-0.17364817766693,-0.984807753012208,0.));
#1150=DIRECTION('center_axis',(0.17364817766693,0.984807753012208,0.));
#1151=DIRECTION('ref_axis',(0.,0.,1.));
#1152=DIRECTION('',(0.984807753012208,-0.17364817766693,0.));
#1153=DIRECTION('',(0.,0.,-1.));
#1154=DIRECTION('center_axis',(-0.984807753012208,0.17364817766693,0.));
#1155=DIRECTION('ref_axis',(0.,0.,1.));
#1156=DIRECTION('',(0.,0.,-1.));
#1157=DIRECTION('',(0.17364817766693,0.984807753012208,0.));
#1158=DIRECTION('center_axis',(-0.17364817766693,-0.984807753012208,0.));
#1159=DIRECTION('ref_axis',(0.,0.,-1.));
#1160=DIRECTION('',(0.,0.,-1.));
#1161=DIRECTION('center_axis',(0.,0.,1.));
#1162=DIRECTION('ref_axis',(1.,0.,0.));
#1163=DIRECTION('center_axis',(-0.984807753012208,0.173648177666931,0.));
#1164=DIRECTION('ref_axis',(-0.173648177666931,-0.984807753012208,0.));
#1165=DIRECTION('center_axis',(-0.984807753012208,0.173648177666931,0.));
#1166=DIRECTION('ref_axis',(0.173648177666931,0.984807753012208,0.));
#1167=DIRECTION('center_axis',(-0.984807753012208,0.173648177666931,0.));
#1168=DIRECTION('ref_axis',(0.17364817766693,0.984807753012208,0.));
#1169=DIRECTION('center_axis',(0.984807753012208,-0.173648177666931,0.));
#1170=DIRECTION('ref_axis',(0.173648177666931,0.984807753012208,0.));
#1171=DIRECTION('',(0.984807753012208,-0.173648177666931,0.));
#1172=DIRECTION('center_axis',(0.984807753012208,-0.17364817766693,0.));
#1173=DIRECTION('ref_axis',(0.17364817766693,0.984807753012208,0.));
#1174=DIRECTION('',(0.984807753012208,-0.17364817766693,0.));
#1175=DIRECTION('center_axis',(-0.984807753012208,0.173648177666931,0.));
#1176=DIRECTION('ref_axis',(-0.173648177666931,-0.984807753012208,0.));
#1177=DIRECTION('center_axis',(-0.984807753012208,0.173648177666931,0.));
#1178=DIRECTION('ref_axis',(0.173648177666931,0.984807753012208,0.));
#1179=DIRECTION('center_axis',(-0.984807753012208,0.173648177666931,0.));
#1180=DIRECTION('ref_axis',(0.17364817766693,0.984807753012208,0.));
#1181=DIRECTION('center_axis',(0.984807753012208,-0.173648177666931,0.));
#1182=DIRECTION('ref_axis',(0.173648177666931,0.984807753012208,0.));
#1183=DIRECTION('',(0.984807753012208,-0.173648177666931,0.));
#1184=DIRECTION('center_axis',(0.984807753012208,-0.17364817766693,0.));
#1185=DIRECTION('ref_axis',(0.17364817766693,0.984807753012208,0.));
#1186=DIRECTION('',(0.984807753012208,-0.17364817766693,0.));
#1187=DIRECTION('center_axis',(0.,0.,1.));
#1188=DIRECTION('ref_axis',(1.,0.,0.));
#1189=DIRECTION('',(-0.50812701871526,0.861282144742095,0.));
#1190=DIRECTION('',(0.17364817766693,0.984807753012208,0.));
#1191=DIRECTION('',(-0.984807753012208,0.17364817766693,0.));
#1192=DIRECTION('',(-0.50812701871526,0.861282144742095,0.));
#1193=DIRECTION('center_axis',(0.17364817766693,0.984807753012208,0.));
#1194=DIRECTION('ref_axis',(0.984807753012208,-0.17364817766693,0.));
#1195=DIRECTION('',(0.984807753012208,-0.17364817766693,0.));
#1196=DIRECTION('',(-0.984807753012208,0.17364817766693,0.));
#1197=DIRECTION('',(0.,0.,1.));
#1198=DIRECTION('center_axis',(0.,0.,1.));
#1199=DIRECTION('ref_axis',(1.,0.,0.));
#1200=DIRECTION('',(0.,1.,0.));
#1201=DIRECTION('',(-1.,0.,0.));
#1202=DIRECTION('',(-0.17364817766693,-0.984807753012208,0.));
#1203=DIRECTION('center_axis',(0.,-1.,0.));
#1204=DIRECTION('ref_axis',(1.,0.,0.));
#1205=DIRECTION('',(0.,0.,1.));
#1206=DIRECTION('',(1.,0.,0.));
#1207=DIRECTION('',(0.,0.,1.));
#1208=DIRECTION('center_axis',(-1.,0.,0.));
#1209=DIRECTION('ref_axis',(0.,-1.,0.));
#1210=DIRECTION('',(0.,-1.,0.));
#1211=DIRECTION('center_axis',(0.17364817766693,0.984807753012208,0.));
#1212=DIRECTION('ref_axis',(-0.984807753012208,0.17364817766693,0.));
#1213=DIRECTION('',(0.,0.,1.));
#1214=DIRECTION('',(-0.984807753012208,0.17364817766693,0.));
#1215=DIRECTION('center_axis',(0.,0.,1.));
#1216=DIRECTION('ref_axis',(1.,0.,0.));
#1217=DIRECTION('',(0.17364817766693,0.984807753012208,0.));
#1218=DIRECTION('center_axis',(0.,0.,-1.));
#1219=DIRECTION('ref_axis',(-1.,0.,0.));
#1220=DIRECTION('',(-0.17364817766693,-0.984807753012208,0.));
#1221=DIRECTION('',(0.50812701871526,-0.861282144742095,0.));
#1222=DIRECTION('center_axis',(0.861282144742095,0.50812701871526,0.));
#1223=DIRECTION('ref_axis',(-0.50812701871526,0.861282144742095,0.));
#1224=DIRECTION('',(0.,0.,1.));
#1225=DIRECTION('center_axis',(0.984807753012208,-0.17364817766693,0.));
#1226=DIRECTION('ref_axis',(0.17364817766693,0.984807753012208,0.));
#1227=DIRECTION('center_axis',(-0.984807753012208,0.17364817766693,0.));
#1228=DIRECTION('ref_axis',(-0.17364817766693,-0.984807753012208,0.));
#1229=CARTESIAN_POINT('',(0.,0.,0.));
#1230=CARTESIAN_POINT('Origin',(22.5552592911386,4.07253700827489,-96.56));
#1231=CARTESIAN_POINT('',(20.9859001047168,3.84154406932086,-97.06));
#1232=CARTESIAN_POINT('',(6.21378380953364,6.44626673432481,-97.06));
#1233=CARTESIAN_POINT('',(22.4684352023051,3.58013313176878,-97.06));
#1234=CARTESIAN_POINT('',(5.40262423418836,7.60472266500395,-96.06));
#1235=CARTESIAN_POINT('',(6.21378380953364,6.44626673432482,-97.06));
#1236=CARTESIAN_POINT('',(20.1747405293715,5.,-96.06));
#1237=CARTESIAN_POINT('',(22.642083379972,4.56494088478099,-96.06));
#1238=CARTESIAN_POINT('',(20.9859001047168,3.84154406932086,-97.06));
#1239=CARTESIAN_POINT('Origin',(22.5552592911386,4.07253700827489,96.56));
#1240=CARTESIAN_POINT('',(6.21378380953364,6.44626673432482,97.06));
#1241=CARTESIAN_POINT('',(20.9859001047168,3.84154406932086,97.06));
#1242=CARTESIAN_POINT('',(22.4684352023051,3.58013313176878,97.06));
#1243=CARTESIAN_POINT('',(20.1747405293715,5.,96.06));
#1244=CARTESIAN_POINT('',(20.9859001047168,3.84154406932086,97.06));
#1245=CARTESIAN_POINT('',(5.40262423418836,7.60472266500395,96.06));
#1246=CARTESIAN_POINT('',(22.642083379972,4.56494088478099,96.06));
#1247=CARTESIAN_POINT('',(6.21378380953364,6.44626673432482,97.06));
#1248=CARTESIAN_POINT('Origin',(27.2957272692186,42.5057373938617,96.56));
#1249=CARTESIAN_POINT('',(29.7190543289323,53.3697228490322,97.06));
#1250=CARTESIAN_POINT('',(27.7881311457247,42.4189133050282,97.06));
#1251=CARTESIAN_POINT('',(29.2044457680519,56.2100031566348,96.06));
#1252=CARTESIAN_POINT('',(29.7190543289323,53.3697228490322,97.06));
#1253=CARTESIAN_POINT('',(26.8033233927124,42.5925614826951,96.06));
#1254=CARTESIAN_POINT('Origin',(4.23535462520991,0.984807753012209,-96.06));
#1255=CARTESIAN_POINT('',(5.06170644754298,0.,-96.06));
#1256=CARTESIAN_POINT('',(5.25346004013719,1.,-97.06));
#1257=CARTESIAN_POINT('',(5.06170644754298,0.,-96.06));
#1258=CARTESIAN_POINT('',(4.23535462520991,0.984807753012207,-96.06));
#1259=CARTESIAN_POINT('',(4.23535462520991,0.984807753012209,-96.06));
#1260=CARTESIAN_POINT('',(5.25346004013719,0.999999999999999,-97.06));
#1261=CARTESIAN_POINT('Origin',(5.06170644754298,0.,96.06));
#1262=CARTESIAN_POINT('',(4.23535462520991,0.984807753012209,96.06));
#1263=CARTESIAN_POINT('',(5.25346004013719,0.999999999999999,97.06));
#1264=CARTESIAN_POINT('',(4.23535462520991,0.984807753012209,96.06));
#1265=CARTESIAN_POINT('',(5.06170644754298,0.,96.06));
#1266=CARTESIAN_POINT('',(5.06170644754298,0.,96.06));
#1267=CARTESIAN_POINT('',(5.25346004013719,1.,97.06));
#1268=CARTESIAN_POINT('Origin',(4.64853053637645,0.492403876506105,0.));
#1269=CARTESIAN_POINT('',(4.23535462520991,0.984807753012209,0.));
#1270=CARTESIAN_POINT('',(5.06170644754298,0.,0.));
#1271=CARTESIAN_POINT('Origin',(47.6446596564132,23.9695861666243,96.56));
#1272=CARTESIAN_POINT('',(53.5631296291594,12.9536938689247,97.06));
#1273=CARTESIAN_POINT('',(47.2140185840422,23.7155226572667,97.06));
#1274=CARTESIAN_POINT('',(54.6120669896053,13.1437427679957,96.06));
#1275=CARTESIAN_POINT('',(53.5631296291594,12.9536938689247,97.06));
#1276=CARTESIAN_POINT('',(48.0753007287843,24.2236496759819,96.06));
#1277=CARTESIAN_POINT('Origin',(51.2944705121159,0.,-96.06));
#1278=CARTESIAN_POINT('',(52.4681186897828,0.98480775301221,-96.06));
#1279=CARTESIAN_POINT('',(51.4553708809386,0.999999999999999,-97.06));
#1280=CARTESIAN_POINT('',(52.4681186897828,0.984807753012209,-96.06));
#1281=CARTESIAN_POINT('',(51.2944705121159,0.,-96.06));
#1282=CARTESIAN_POINT('',(51.2944705121159,0.,-96.06));
#1283=CARTESIAN_POINT('',(51.4553708809386,1.,-97.06));
#1284=CARTESIAN_POINT('Origin',(52.4681186897828,0.98480775301221,96.06));
#1285=CARTESIAN_POINT('',(51.2944705121159,0.,96.06));
#1286=CARTESIAN_POINT('',(51.4553708809386,1.,97.06));
#1287=CARTESIAN_POINT('',(51.2944705121159,0.,96.06));
#1288=CARTESIAN_POINT('',(52.4681186897828,0.984807753012209,96.06));
#1289=CARTESIAN_POINT('',(52.4681186897828,0.98480775301221,96.06));
#1290=CARTESIAN_POINT('',(51.4553708809386,0.999999999999999,97.06));
#1291=CARTESIAN_POINT('Origin',(51.8812946009493,0.492403876506105,0.));
#1292=CARTESIAN_POINT('',(52.4681186897828,0.98480775301221,0.));
#1293=CARTESIAN_POINT('',(51.2944705121159,0.,0.));
#1294=CARTESIAN_POINT('Origin',(53.8590578746867,11.7526011061236,96.56));
#1295=CARTESIAN_POINT('',(53.3666539981806,11.839425194957,97.06));
#1296=CARTESIAN_POINT('',(54.3514617511928,11.6657770172901,96.06));
#1297=CARTESIAN_POINT('Origin',(16.6992965830586,0.5,96.56));
#1298=CARTESIAN_POINT('',(16.6992965830586,1.,97.06));
#1299=CARTESIAN_POINT('',(16.6992965830586,0.,96.06));
#1300=CARTESIAN_POINT('Origin',(16.6992965830586,0.5,-96.56));
#1301=CARTESIAN_POINT('',(16.6992965830586,1.,-97.06));
#1302=CARTESIAN_POINT('',(16.6992965830586,0.,-96.06));
#1303=CARTESIAN_POINT('Origin',(53.8590578746867,11.7526011061236,-96.56));
#1304=CARTESIAN_POINT('',(54.6120669896053,13.1437427679957,-96.06));
#1305=CARTESIAN_POINT('',(54.3514617511928,11.6657770172901,-96.06));
#1306=CARTESIAN_POINT('',(53.5631296291594,12.9536938689247,-97.06));
#1307=CARTESIAN_POINT('',(53.3666539981806,11.839425194957,-97.06));
#1308=CARTESIAN_POINT('',(53.5631296291594,12.9536938689247,-97.06));
#1309=CARTESIAN_POINT('Origin',(8.00875835469524,19.5054584805482,96.56));
#1310=CARTESIAN_POINT('',(7.51635447818914,19.5922825693817,96.06));
#1311=CARTESIAN_POINT('',(8.50116223120134,19.4186343917147,97.06));
#1312=CARTESIAN_POINT('Origin',(47.6446596564132,23.9695861666243,-96.56));
#1313=CARTESIAN_POINT('',(29.2044457680519,56.2100031566348,-96.06));
#1314=CARTESIAN_POINT('',(48.0753007287843,24.2236496759819,-96.06));
#1315=CARTESIAN_POINT('',(29.7190543289323,53.3697228490322,-97.06));
#1316=CARTESIAN_POINT('',(47.2140185840422,23.7155226572667,-97.06));
#1317=CARTESIAN_POINT('',(29.7190543289323,53.3697228490322,-97.06));
#1318=CARTESIAN_POINT('Origin',(8.00875835469524,19.5054584805482,-96.56));
#1319=CARTESIAN_POINT('',(8.50116223120134,19.4186343917147,-97.06));
#1320=CARTESIAN_POINT('',(7.51635447818914,19.5922825693817,-96.06));
#1321=CARTESIAN_POINT('Origin',(27.2957272692186,42.5057373938617,-96.56));
#1322=CARTESIAN_POINT('',(26.8033233927124,42.5925614826951,-96.06));
#1323=CARTESIAN_POINT('',(27.7881311457247,42.4189133050282,-97.06));
#1324=CARTESIAN_POINT('Origin',(20.1747405293715,5.,0.));
#1325=CARTESIAN_POINT('',(20.1747405293715,5.,78.));
#1326=CARTESIAN_POINT('',(20.1747405293715,5.,0.));
#1327=CARTESIAN_POINT('',(20.1747405293715,5.,-78.));
#1328=CARTESIAN_POINT('',(20.1747405293715,5.,0.));
#1329=CARTESIAN_POINT('',(20.1747405293715,5.,0.));
#1330=CARTESIAN_POINT('',(5.40262423418836,7.60472266500395,0.));
#1331=CARTESIAN_POINT('Origin',(29.2044457680519,56.2100031566348,0.));
#1332=CARTESIAN_POINT('',(29.2044457680519,56.2100031566348,0.));
#1333=CARTESIAN_POINT('',(22.2585186613746,16.8176930361465,-78.));
#1334=CARTESIAN_POINT('',(22.2585186613746,16.8176930361465,-78.));
#1335=CARTESIAN_POINT('',(22.2585186613746,16.8176930361465,-94.06));
#1336=CARTESIAN_POINT('',(22.2585186613746,16.8176930361465,-78.));
#1337=CARTESIAN_POINT('',(28.5365347685951,52.4220916482928,-94.06));
#1338=CARTESIAN_POINT('',(26.8713367166788,42.9782842103972,-94.06));
#1339=CARTESIAN_POINT('',(28.5365347685951,52.4220916482928,94.06));
#1340=CARTESIAN_POINT('',(28.5365347685951,52.4220916482929,0.));
#1341=CARTESIAN_POINT('',(22.2585186613746,16.8176930361465,94.06));
#1342=CARTESIAN_POINT('',(26.8713367166788,42.9782842103972,94.06));
#1343=CARTESIAN_POINT('',(22.2585186613746,16.8176930361465,78.));
#1344=CARTESIAN_POINT('',(22.2585186613746,16.8176930361465,78.));
#1345=CARTESIAN_POINT('',(22.2585186613746,16.8176930361465,78.));
#1346=CARTESIAN_POINT('',(21.0256165999394,9.82555798975982,86.56));
#1347=CARTESIAN_POINT('Origin',(21.39027777304,11.8936542710855,86.56));
#1348=CARTESIAN_POINT('',(21.0256165999394,9.82555798975982,-86.56));
#1349=CARTESIAN_POINT('Origin',(21.39027777304,11.8936542710855,-86.56));
#1350=CARTESIAN_POINT('Origin',(54.6120669896053,13.1437427679957,0.));
#1351=CARTESIAN_POINT('',(54.6120669896053,13.1437427679957,0.));
#1352=CARTESIAN_POINT('Origin',(52.2944705121159,0.,0.));
#1353=CARTESIAN_POINT('',(52.8234907596359,3.00022291196993,86.56));
#1354=CARTESIAN_POINT('Origin',(53.3965297459368,6.25008849691022,86.56));
#1355=CARTESIAN_POINT('',(52.8234907596359,3.00022291196993,-86.56));
#1356=CARTESIAN_POINT('Origin',(53.3965297459368,6.25008849691022,-86.56));
#1357=CARTESIAN_POINT('Origin',(29.3368867185741,28.1050015783174,97.06));
#1358=CARTESIAN_POINT('',(30.8797318763762,27.1272605683703,97.06));
#1359=CARTESIAN_POINT('',(39.3490785522812,25.6338862404347,97.06));
#1360=CARTESIAN_POINT('',(32.1653054233621,26.9005792663516,97.06));
#1361=CARTESIAN_POINT('',(38.4287432106464,20.41440514947,97.06));
#1362=CARTESIAN_POINT('Origin',(38.8889108814638,23.0241456949523,97.06));
#1363=CARTESIAN_POINT('',(29.9593965347415,21.9077794774056,97.06));
#1364=CARTESIAN_POINT('',(31.2449700817273,21.6810981753869,97.06));
#1365=CARTESIAN_POINT('Origin',(30.4195642055588,24.5175200228879,97.06));
#1366=CARTESIAN_POINT('Origin',(4.06170644754298,0.,0.));
#1367=CARTESIAN_POINT('Origin',(29.3368867185741,28.1050015783174,-97.06));
#1368=CARTESIAN_POINT('Origin',(35.6093025206794,29.1872755004873,94.76));
#1369=CARTESIAN_POINT('',(43.014635692486,27.8815154611624,93.96));
#1370=CARTESIAN_POINT('',(43.014635692486,27.8815154611624,94.06));
#1371=CARTESIAN_POINT('',(43.014635692486,27.8815154611624,47.38));
#1372=CARTESIAN_POINT('',(45.4573800508015,27.450793723818,93.96));
#1373=CARTESIAN_POINT('',(35.6093025206794,29.1872755004873,93.96));
#1374=CARTESIAN_POINT('',(45.4573800508015,27.450793723818,95.56));
#1375=CARTESIAN_POINT('',(45.4573800508015,27.450793723818,94.76));
#1376=CARTESIAN_POINT('',(25.7612249905573,30.9237572771566,95.56));
#1377=CARTESIAN_POINT('',(35.6093025206794,29.1872755004873,95.56));
#1378=CARTESIAN_POINT('',(25.7612249905573,30.9237572771566,94.06));
#1379=CARTESIAN_POINT('',(25.7612249905573,30.9237572771566,94.76));
#1380=CARTESIAN_POINT('',(35.9648620759249,29.1245807576488,94.06));
#1381=CARTESIAN_POINT('Origin',(24.8061600133892,25.5073146355894,94.76));
#1382=CARTESIAN_POINT('',(23.8510950362211,20.0908719940223,94.06));
#1383=CARTESIAN_POINT('',(25.1645977158536,27.5401158610411,94.06));
#1384=CARTESIAN_POINT('',(23.8510950362211,20.0908719940223,95.56));
#1385=CARTESIAN_POINT('',(24.8061600133892,25.5073146355894,95.56));
#1386=CARTESIAN_POINT('',(23.8510950362211,20.0908719940223,94.76));
#1387=CARTESIAN_POINT('Origin',(34.1940698726939,21.1610923134378,95.56));
#1388=CARTESIAN_POINT('',(38.4287432106464,20.41440514947,95.56));
#1389=CARTESIAN_POINT('',(38.4287432106464,20.41440514947,95.56));
#1390=CARTESIAN_POINT('',(29.9593965347415,21.9077794774056,95.56));
#1391=CARTESIAN_POINT('',(34.1940698726939,21.1610923134378,95.56));
#1392=CARTESIAN_POINT('',(29.9593965347415,21.9077794774056,95.56));
#1393=CARTESIAN_POINT('Origin',(30.4195642055588,24.5175200228879,95.56));
#1394=CARTESIAN_POINT('',(30.8797318763762,27.1272605683703,95.56));
#1395=CARTESIAN_POINT('Origin',(30.4195642055588,24.5175200228879,95.56));
#1396=CARTESIAN_POINT('',(30.8797318763762,27.1272605683703,95.56));
#1397=CARTESIAN_POINT('Origin',(34.6542375435113,23.7708328589201,95.56));
#1398=CARTESIAN_POINT('',(43.5472500964653,16.6179084406837,95.56));
#1399=CARTESIAN_POINT('',(44.5023150736334,22.0343510822508,95.56));
#1400=CARTESIAN_POINT('',(33.6991725663432,18.354390217353,95.56));
#1401=CARTESIAN_POINT('',(39.3490785522812,25.6338862404347,95.56));
#1402=CARTESIAN_POINT('Origin',(38.8889108814638,23.0241456949523,95.56));
#1403=CARTESIAN_POINT('',(35.1144052143287,26.3805734044025,95.56));
#1404=CARTESIAN_POINT('Origin',(34.6542375435113,23.7708328589201,93.96));
#1405=CARTESIAN_POINT('',(44.9537669425219,24.5946618587106,93.96));
#1406=CARTESIAN_POINT('',(47.3223822844539,20.5798269323447,93.96));
#1407=CARTESIAN_POINT('',(44.5023150736334,22.0343510822508,93.96));
#1408=CARTESIAN_POINT('Origin',(33.6991725663432,18.354390217353,94.76));
#1409=CARTESIAN_POINT('',(43.5472500964653,16.6179084406837,94.06));
#1410=CARTESIAN_POINT('',(34.0547321215887,18.2916954745145,94.06));
#1411=CARTESIAN_POINT('',(43.5472500964653,16.6179084406837,94.76));
#1412=CARTESIAN_POINT('Origin',(44.5023150736334,22.0343510822508,94.76));
#1413=CARTESIAN_POINT('',(44.9537669425219,24.5946618587106,94.06));
#1414=CARTESIAN_POINT('',(44.9537669425219,24.5946618587106,47.38));
#1415=CARTESIAN_POINT('',(44.8607527760977,24.0671523077025,94.06));
#1416=CARTESIAN_POINT('Origin',(35.1144052143287,26.3805734044025,95.56));
#1417=CARTESIAN_POINT('',(39.3490785522812,25.6338862404347,95.56));
#1418=CARTESIAN_POINT('Origin',(38.8889108814638,23.0241456949523,95.56));
#1419=CARTESIAN_POINT('Origin',(50.9345103634062,6.68420894107755,-86.56));
#1420=CARTESIAN_POINT('',(50.3614713771054,3.43434335613726,-86.56));
#1421=CARTESIAN_POINT('Origin',(50.9345103634062,6.68420894107755,-86.56));
#1422=CARTESIAN_POINT('',(50.5698491903057,4.61611265975191,-86.56));
#1423=CARTESIAN_POINT('Origin',(50.9345103634062,6.68420894107754,-86.56));
#1424=CARTESIAN_POINT('Origin',(53.1503278076837,6.29350054132695,-86.56));
#1425=CARTESIAN_POINT('',(52.5772888213828,3.04363495638667,-86.56));
#1426=CARTESIAN_POINT('Origin',(37.8858076359945,8.98504729516437,-86.56));
#1427=CARTESIAN_POINT('',(37.5211464628939,6.91695101383873,-86.56));
#1428=CARTESIAN_POINT('Origin',(50.9345103634062,6.68420894107755,86.56));
#1429=CARTESIAN_POINT('',(50.3614713771054,3.43434335613726,86.56));
#1430=CARTESIAN_POINT('Origin',(50.9345103634062,6.68420894107755,86.56));
#1431=CARTESIAN_POINT('',(50.5698491903057,4.61611265975191,86.56));
#1432=CARTESIAN_POINT('Origin',(50.9345103634062,6.68420894107754,86.56));
#1433=CARTESIAN_POINT('Origin',(53.1503278076837,6.29350054132695,86.56));
#1434=CARTESIAN_POINT('',(52.5772888213828,3.04363495638667,86.56));
#1435=CARTESIAN_POINT('Origin',(37.8858076359945,8.98504729516437,86.56));
#1436=CARTESIAN_POINT('',(37.5211464628939,6.91695101383873,86.56));
#1437=CARTESIAN_POINT('Origin',(36.082232058931,27.7110458241464,94.06));
#1438=CARTESIAN_POINT('',(51.9897235884905,12.6686205203183,94.06));
#1439=CARTESIAN_POINT('',(51.9897235884905,12.6686205203183,94.06));
#1440=CARTESIAN_POINT('',(51.8027512517409,11.6082477061386,94.06));
#1441=CARTESIAN_POINT('',(50.2848849245269,3.,94.06));
#1442=CARTESIAN_POINT('',(42.8026371533704,13.1952106511359,94.06));
#1443=CARTESIAN_POINT('',(51.9897235884905,12.6686205203183,94.06));
#1444=CARTESIAN_POINT('Origin',(22.2585186613746,16.8176930361465,-78.));
#1445=CARTESIAN_POINT('',(51.8027512517409,11.6082477061386,-94.06));
#1446=CARTESIAN_POINT('',(28.0305208581873,15.7999333161399,-94.06));
#1447=CARTESIAN_POINT('',(51.8027512517409,11.6082477061386,-78.));
#1448=CARTESIAN_POINT('',(51.8027512517409,11.6082477061386,-78.));
#1449=CARTESIAN_POINT('',(51.8027512517409,11.6082477061386,-39.));
#1450=CARTESIAN_POINT('Origin',(35.9887458905562,9.90884651807325,-78.));
#1451=CARTESIAN_POINT('',(20.1747405293715,3.,-78.));
#1452=CARTESIAN_POINT('',(20.1747405293715,7.45442325903662,-78.));
#1453=CARTESIAN_POINT('',(50.2848849245269,3.,-78.));
#1454=CARTESIAN_POINT('',(28.0817432099638,3.,-78.));
#1455=CARTESIAN_POINT('',(50.6600854241038,5.12786777196168,-78.));
#1456=CARTESIAN_POINT('Origin',(20.1747405293715,3.,0.));
#1457=CARTESIAN_POINT('',(20.1747405293715,3.,78.));
#1458=CARTESIAN_POINT('',(20.1747405293715,3.,0.));
#1459=CARTESIAN_POINT('',(50.2848849245269,3.,78.));
#1460=CARTESIAN_POINT('',(28.0817432099638,3.,78.));
#1461=CARTESIAN_POINT('',(50.2848849245269,3.,0.));
#1462=CARTESIAN_POINT('Origin',(20.1747405293715,5.,0.));
#1463=CARTESIAN_POINT('',(20.1747405293715,7.45442325903662,78.));
#1464=CARTESIAN_POINT('Origin',(51.8027512517409,11.6082477061386,78.));
#1465=CARTESIAN_POINT('',(51.8027512517409,11.6082477061386,78.));
#1466=CARTESIAN_POINT('',(51.8027512517409,11.6082477061386,39.));
#1467=CARTESIAN_POINT('',(51.8027512517409,11.6082477061386,78.));
#1468=CARTESIAN_POINT('Origin',(35.9887458905562,9.90884651807325,78.));
#1469=CARTESIAN_POINT('',(50.6600854241038,5.12786777196168,78.));
#1470=CARTESIAN_POINT('Origin',(36.082232058931,27.7110458241464,-94.06));
#1471=CARTESIAN_POINT('',(51.9897235884905,12.6686205203183,-94.06));
#1472=CARTESIAN_POINT('',(50.2848849245269,3.,-94.06));
#1473=CARTESIAN_POINT('',(51.9897235884905,12.6686205203183,-94.06));
#1474=CARTESIAN_POINT('Origin',(51.9897235884905,12.6686205203183,0.));
#1475=CARTESIAN_POINT('',(51.9897235884905,12.6686205203183,0.));
#1476=CARTESIAN_POINT('Origin',(50.2848849245269,3.,0.));
#1477=CARTESIAN_POINT('Origin',(5.40262423418836,7.60472266500395,0.));
#1478=UNCERTAINTY_MEASURE_WITH_UNIT(LENGTH_MEASURE(0.01),#1482,
'DISTANCE_ACCURACY_VALUE',
'Maximum model space distance between geometric entities at asserted c
onnectivities');
#1479=UNCERTAINTY_MEASURE_WITH_UNIT(LENGTH_MEASURE(0.01),#1482,
'DISTANCE_ACCURACY_VALUE',
'Maximum model space distance between geometric entities at asserted c
onnectivities');
#1480=(
GEOMETRIC_REPRESENTATION_CONTEXT(3)
GLOBAL_UNCERTAINTY_ASSIGNED_CONTEXT((#1478))
GLOBAL_UNIT_ASSIGNED_CONTEXT((#1482,#1484,#1485))
REPRESENTATION_CONTEXT('','3D')
);
#1481=(
GEOMETRIC_REPRESENTATION_CONTEXT(3)
GLOBAL_UNCERTAINTY_ASSIGNED_CONTEXT((#1479))
GLOBAL_UNIT_ASSIGNED_CONTEXT((#1482,#1484,#1485))
REPRESENTATION_CONTEXT('','3D')
);
#1482=(
LENGTH_UNIT()
NAMED_UNIT(*)
SI_UNIT(.MILLI.,.METRE.)
);
#1483=(
LENGTH_UNIT()
NAMED_UNIT(*)
SI_UNIT($,.METRE.)
);
#1484=(
NAMED_UNIT(*)
PLANE_ANGLE_UNIT()
SI_UNIT($,.RADIAN.)
);
#1485=(
NAMED_UNIT(*)
SI_UNIT($,.STERADIAN.)
SOLID_ANGLE_UNIT()
);
#1486=SHAPE_DEFINITION_REPRESENTATION(#1487,#1488);
#1487=PRODUCT_DEFINITION_SHAPE('',$,#1490);
#1488=SHAPE_REPRESENTATION('',(#924),#1480);
#1489=PRODUCT_DEFINITION_CONTEXT('part definition',#1494,'design');
#1490=PRODUCT_DEFINITION('2026-10-02-23-29-20-413','(Unsaved)',#1491,#1489);
#1491=PRODUCT_DEFINITION_FORMATION('',$,#1496);
#1492=PRODUCT_RELATED_PRODUCT_CATEGORY('(Unsaved)','(Unsaved)',(#1496));
#1493=APPLICATION_PROTOCOL_DEFINITION('international standard',
'automotive_design',2009,#1494);
#1494=APPLICATION_CONTEXT(
'Core Data for Automotive Mechanical Design Process');
#1495=PRODUCT_CONTEXT('part definition',#1494,'mechanical');
#1496=PRODUCT('2026-10-02-23-29-20-413','(Unsaved)',$,(#1495));
#1497=PRESENTATION_STYLE_ASSIGNMENT((#1498));
#1498=SURFACE_STYLE_USAGE(.BOTH.,#1499);
#1499=SURFACE_SIDE_STYLE('',(#1500));
#1500=SURFACE_STYLE_FILL_AREA(#1501);
#1501=FILL_AREA_STYLE('Steel - Satin',(#1502));
#1502=FILL_AREA_STYLE_COLOUR('Steel - Satin',#1503);
#1503=COLOUR_RGB('Steel - Satin',0.627450980392157,0.627450980392157,0.627450980392157);
ENDSEC;
END-ISO-10303-21;
